<svg width="200" height="73" viewBox="0 0 200 73" fill="none" xmlns="http://www.w3.org/2000/svg">
<rect width="200" height="72.7864" rx="10" fill="white"/>
<path d="M45.8428 37.4967C45.8823 34.4215 47.5274 31.5116 50.1371 29.9009C48.4907 27.5404 45.7331 26.0438 42.8641 25.9537C39.804 25.6312 36.8375 27.7919 35.2781 27.7919C33.6886 27.7919 31.2877 25.9857 28.7024 26.0391C25.3326 26.1484 22.191 28.0718 20.5515 31.0294C17.0272 37.155 19.656 46.1576 23.032 51.109C24.7211 53.5336 26.6951 56.2419 29.2781 56.1459C31.8057 56.0406 32.7497 54.5278 35.8008 54.5278C38.8235 54.5278 39.7092 56.1459 42.3446 56.0848C45.0568 56.0406 46.7657 53.6495 48.3955 51.2019C49.6091 49.4743 50.5429 47.5649 51.1625 45.5445C47.9751 44.1911 45.8465 40.9709 45.8428 37.4967Z" fill="#090909"/>
<path d="M40.8649 22.6974C42.3438 20.9152 43.0723 18.6244 42.8959 16.3116C40.6366 16.5499 38.5496 17.6339 37.0508 19.3477C35.5852 21.0222 34.8224 23.2727 34.9666 25.497C37.2268 25.5204 39.4487 24.4658 40.8649 22.6974Z" fill="#090909"/>
<path d="M135.996 34.3205V38.047H133.669V40.4908H135.996V48.7944C135.996 51.6297 137.274 52.7639 140.488 52.7639C141.053 52.7639 141.591 52.6964 142.062 52.6154V50.1986C141.658 50.2391 141.403 50.2661 140.959 50.2661C139.52 50.2661 138.888 49.591 138.888 48.0518V40.4908H142.062V38.047H138.888V34.3205H135.996Z" fill="#090909"/>
<path d="M150.25 52.9664C154.527 52.9664 157.149 50.0905 157.149 45.3244C157.149 40.5853 154.513 37.6959 150.25 37.6959C145.973 37.6959 143.337 40.5853 143.337 45.3244C143.337 50.0905 145.96 52.9664 150.25 52.9664ZM150.25 50.3876C147.735 50.3876 146.323 48.5378 146.323 45.3244C146.323 42.138 147.735 40.2748 150.25 40.2748C152.752 40.2748 154.177 42.138 154.177 45.3244C154.177 48.5243 152.752 50.3876 150.25 50.3876Z" fill="#090909"/>
<path d="M159.393 52.6829H162.285V44.0013C162.285 41.9355 163.832 40.5448 166.024 40.5448C166.535 40.5448 167.396 40.6393 167.638 40.7203V37.858C167.328 37.777 166.777 37.7364 166.347 37.7364C164.437 37.7364 162.809 38.7896 162.392 40.2343H162.177V37.9795H159.393V52.6829Z" fill="#090909"/>
<path d="M174.817 40.1668C176.956 40.1668 178.355 41.6655 178.422 43.9742H171.025C171.186 41.679 172.679 40.1668 174.817 40.1668ZM178.408 48.7134C177.87 49.861 176.673 50.4956 174.925 50.4956C172.612 50.4956 171.119 48.8619 171.025 46.283V46.121H181.367V45.1084C181.367 40.4908 178.906 37.6959 174.831 37.6959C170.702 37.6959 168.079 40.6798 168.079 45.3784C168.079 50.077 170.648 52.9664 174.844 52.9664C178.193 52.9664 180.533 51.3462 181.192 48.7134H178.408Z" fill="#090909"/>
<path d="M117.033 47.2531C117.256 50.8636 120.253 53.1727 124.714 53.1727C129.482 53.1727 132.465 50.7517 132.465 46.8893C132.465 43.8526 130.764 42.1733 126.638 41.2077L124.421 40.6619C121.801 40.0461 120.741 39.2205 120.741 37.7791C120.741 35.9599 122.386 34.7704 124.854 34.7704C127.195 34.7704 128.812 35.9319 129.105 37.7931H132.144C131.963 34.3925 128.98 31.9995 124.895 31.9995C120.504 31.9995 117.577 34.3925 117.577 37.989C117.577 40.9558 119.236 42.719 122.874 43.5727L125.467 44.2024C128.129 44.8321 129.3 45.7558 129.3 47.2951C129.3 49.0864 127.46 50.3878 124.951 50.3878C122.261 50.3878 120.393 49.1703 120.128 47.2531H117.033Z" fill="#090909"/>
<path d="M87.0794 37.7364C85.089 37.7364 83.3675 38.7356 82.4798 40.4098H82.2646V37.9795H79.4806V57.5705H82.3722V50.4551H82.6009C83.3675 52.0078 85.0217 52.9259 87.1063 52.9259C90.8049 52.9259 93.1585 49.996 93.1585 45.3244C93.1585 40.6528 90.8049 37.7364 87.0794 37.7364ZM86.259 50.3201C83.8382 50.3201 82.3184 48.4028 82.3184 45.3379C82.3184 42.2595 83.8382 40.3423 86.2725 40.3423C88.7203 40.3423 90.1862 42.219 90.1862 45.3244C90.1862 48.4433 88.7203 50.3201 86.259 50.3201Z" fill="#090909"/>
<path d="M103.277 37.7364C101.286 37.7364 99.5646 38.7356 98.677 40.4098H98.4618V37.9795H95.6778V57.5705H98.5694V50.4551H98.798C99.5646 52.0078 101.219 52.9259 103.304 52.9259C107.002 52.9259 109.356 49.996 109.356 45.3244C109.356 40.6528 107.002 37.7364 103.277 37.7364ZM102.456 50.3201C100.035 50.3201 98.5156 48.4028 98.5156 45.3379C98.5156 42.2595 100.035 40.3423 102.47 40.3423C104.917 40.3423 106.383 42.219 106.383 45.3244C106.383 48.4433 104.917 50.3201 102.456 50.3201Z" fill="#090909"/>
<path d="M74.2926 52.6829H77.6103L70.3477 32.4893H66.9882L59.7256 52.6829H62.9317L64.7857 47.3231H72.4526L74.2926 52.6829ZM68.5076 36.1558H68.7446L71.658 44.6922H65.5803L68.5076 36.1558Z" fill="#090909"/>
<path d="M59.6455 18.246V26.228H62.5162C64.8855 26.228 66.2575 24.7622 66.2575 22.2121C66.2575 19.7008 64.8745 18.246 62.5162 18.246H59.6455ZM60.8798 19.3744H62.3785C64.026 19.3744 65.0013 20.4254 65.0013 22.2287C65.0013 24.0596 64.0425 25.0996 62.3785 25.0996H60.8798V19.3744Z" fill="#090909"/>
<path d="M70.4595 26.3442C72.2117 26.3442 73.2861 25.166 73.2861 23.2133C73.2861 21.2718 72.2062 20.088 70.4595 20.088C68.7073 20.088 67.6273 21.2718 67.6273 23.2133C67.6273 25.166 68.7018 26.3442 70.4595 26.3442ZM70.4595 25.2876C69.4291 25.2876 68.8506 24.5298 68.8506 23.2133C68.8506 21.9079 69.4291 21.1445 70.4595 21.1445C71.4843 21.1445 72.0684 21.9079 72.0684 23.2133C72.0684 24.5243 71.4843 25.2876 70.4595 25.2876Z" fill="#090909"/>
<path d="M82.4361 20.2042H81.2514L80.1825 24.8009H80.0888L78.8546 20.2042H77.7195L76.4852 24.8009H76.3971L75.3226 20.2042H74.1214L75.7744 26.228H76.9922L78.2264 21.7917H78.3201L79.5598 26.228H80.7886L82.4361 20.2042Z" fill="#090909"/>
<path d="M83.8003 26.228H84.985V22.7044C84.985 21.7641 85.5415 21.1777 86.4176 21.1777C87.2937 21.1777 87.7125 21.659 87.7125 22.627V26.228H88.8971V22.3283C88.8971 20.8956 88.1588 20.088 86.8198 20.088C85.9162 20.088 85.3211 20.4918 85.0291 21.1611H84.9409V20.2042H83.8003V26.228Z" fill="#090909"/>
<path d="M90.7628 26.228H91.9475V17.8533H90.7628V26.228Z" fill="#090909"/>
<path d="M96.4029 26.3442C98.1551 26.3442 99.2295 25.166 99.2295 23.2133C99.2295 21.2718 98.1496 20.088 96.4029 20.088C94.6507 20.088 93.5707 21.2718 93.5707 23.2133C93.5707 25.166 94.6452 26.3442 96.4029 26.3442ZM96.4029 25.2876C95.3725 25.2876 94.7939 24.5298 94.7939 23.2133C94.7939 21.9079 95.3725 21.1445 96.4029 21.1445C97.4277 21.1445 98.0118 21.9079 98.0118 23.2133C98.0118 24.5243 97.4277 25.2876 96.4029 25.2876Z" fill="#090909"/>
<path d="M102.759 25.3264C102.115 25.3264 101.646 25.0111 101.646 24.469C101.646 23.938 102.021 23.6558 102.847 23.6005L104.313 23.5065V24.0099C104.313 24.7566 103.652 25.3264 102.759 25.3264ZM102.456 26.3276C103.244 26.3276 103.9 25.9846 104.258 25.3817H104.352V26.228H105.492V22.1125C105.492 20.8403 104.644 20.088 103.139 20.088C101.778 20.088 100.809 20.7518 100.687 21.7862H101.834C101.966 21.3603 102.423 21.1169 103.084 21.1169C103.894 21.1169 104.313 21.4764 104.313 22.1125V22.6325L102.688 22.7265C101.261 22.8151 100.456 23.4401 100.456 24.5243C100.456 25.6251 101.299 26.3276 102.456 26.3276Z" fill="#090909"/>
<path d="M109.512 26.3276C110.339 26.3276 111.039 25.9348 111.397 25.2766H111.49V26.228H112.625V17.8533H111.441V21.1611H111.353C111.028 20.4973 110.333 20.1046 109.512 20.1046C107.997 20.1046 107.022 21.3105 107.022 23.2133C107.022 25.1217 107.986 26.3276 109.512 26.3276ZM109.848 21.1722C110.84 21.1722 111.463 21.9632 111.463 23.2189C111.463 24.48 110.846 25.26 109.848 25.26C108.846 25.26 108.245 24.4911 108.245 23.2133C108.245 21.9466 108.851 21.1722 109.848 21.1722Z" fill="#090909"/>
<path d="M120.308 26.3442C122.06 26.3442 123.134 25.166 123.134 23.2133C123.134 21.2718 122.054 20.088 120.308 20.088C118.555 20.088 117.475 21.2718 117.475 23.2133C117.475 25.166 118.55 26.3442 120.308 26.3442ZM120.308 25.2876C119.277 25.2876 118.699 24.5298 118.699 23.2133C118.699 21.9079 119.277 21.1445 120.308 21.1445C121.332 21.1445 121.916 21.9079 121.916 23.2133C121.916 24.5243 121.332 25.2876 120.308 25.2876Z" fill="#090909"/>
<path d="M124.702 26.228H125.887V22.7044C125.887 21.7641 126.444 21.1777 127.32 21.1777C128.196 21.1777 128.614 21.659 128.614 22.627V26.228H129.799V22.3283C129.799 20.8956 129.061 20.088 127.722 20.088C126.818 20.088 126.223 20.4918 125.931 21.1611H125.843V20.2042H124.702V26.228Z" fill="#090909"/>
<path d="M135.255 18.7051V20.2318H134.302V21.233H135.255V24.6349C135.255 25.7965 135.779 26.2612 137.095 26.2612C137.327 26.2612 137.547 26.2335 137.74 26.2003V25.2102C137.575 25.2268 137.47 25.2379 137.288 25.2379C136.699 25.2379 136.44 24.9613 136.44 24.3307V21.233H137.74V20.2318H136.44V18.7051H135.255Z" fill="#090909"/>
<path d="M139.33 26.228H140.515V22.71C140.515 21.7973 141.055 21.1833 142.025 21.1833C142.862 21.1833 143.309 21.67 143.309 22.6325V26.228H144.493V22.3393C144.493 20.9067 143.705 20.0935 142.427 20.0935C141.523 20.0935 140.89 20.4973 140.598 21.1722H140.504V17.8533H139.33V26.228Z" fill="#090909"/>
<path d="M148.767 21.1003C149.643 21.1003 150.216 21.7143 150.244 22.6602H147.213C147.279 21.7198 147.891 21.1003 148.767 21.1003ZM150.238 24.6017C150.018 25.0719 149.527 25.3319 148.811 25.3319C147.863 25.3319 147.252 24.6626 147.213 23.6061V23.5397H151.45V23.1248C151.45 21.233 150.442 20.088 148.772 20.088C147.081 20.088 146.006 21.3105 146.006 23.2355C146.006 25.1604 147.059 26.3442 148.778 26.3442C150.15 26.3442 151.109 25.6804 151.379 24.6017H150.238Z" fill="#090909"/>
</svg>
