<svg width="126" height="72" viewBox="0 0 126 72" fill="none" xmlns="http://www.w3.org/2000/svg">
<path d="M21.0365 67.8388C15.6597 68.8231 13.0354 65.0593 12.3953 63.0543C9.97211 55.0802 4.96115 38.503 4.30277 35.9878C3.6444 33.4725 4.21133 31.7501 4.57709 31.2033C5.21718 30.0185 6.74425 27.321 7.73181 26.0087C8.71937 24.6964 11.3437 23.7303 12.5325 23.4114L97.5726 5.7771C100.362 5.18473 106.269 4 107.585 4C109.231 4 109.643 4.1367 111.152 5.0936C112.359 5.85912 113.118 7.87316 113.346 8.78449C115.769 16.622 120.808 32.8983 121.576 35.3043C122.344 37.7102 121.896 39.5875 121.576 40.2255C120.89 41.4558 119.326 44.2444 118.558 45.5568C117.79 46.8691 115.221 47.744 114.032 48.0174C85.2738 54.2144 26.4132 66.8546 21.0365 67.8388Z" fill="url(#paint0_linear_574_440)"/>
<path fill-rule="evenodd" clip-rule="evenodd" d="M8.53874 64.0597L8.5299 64.0307C6.14361 56.2109 1.12343 39.6771 0.440953 37.0807C-0.425787 33.7833 0.0755595 30.8651 1.16063 29.0772C1.82697 27.8569 3.41567 25.0548 4.58017 23.5139C5.72952 21.993 7.43486 21.0602 8.48806 20.5568C9.68413 19.9852 10.8898 19.5788 11.7072 19.3604L11.829 19.3279L96.451 1.85389C96.4545 1.85316 96.4579 1.85243 96.4614 1.8517C97.8726 1.55329 100.065 1.10711 102.084 0.733069C103.094 0.546032 104.087 0.371944 104.929 0.242993C105.655 0.131876 106.596 0 107.312 0C108.179 0 109.259 0.0206035 110.428 0.380571C111.544 0.724345 112.466 1.29703 113.198 1.75919C114.778 2.75688 115.704 4.26724 116.188 5.19888C116.695 6.17384 117.042 7.15632 117.236 7.88533C119.66 15.6946 124.621 31.652 125.373 33.9987C126.458 37.3809 125.978 40.4111 125.118 42.1181L125.076 42.2022L125.03 42.2845C124.352 43.4946 122.776 46.295 121.985 47.6398C120.892 49.4998 118.99 50.5071 117.986 50.9773C116.777 51.543 115.541 51.9195 114.7 52.1121L114.67 52.1189L114.641 52.1252C86.1294 58.2433 27.514 70.7789 22.0812 71.7692C18.1737 72.4815 14.9452 71.4763 12.5911 69.6975C10.3852 68.0307 9.10042 65.8116 8.54798 64.0885L8.53874 64.0597ZM113.037 9.06461C112.81 8.16266 112.056 6.16935 110.856 5.41171C109.357 4.46466 108.948 4.32937 107.312 4.32937C106.003 4.32937 100.132 5.5019 97.3603 6.08817L12.8412 23.5409C11.6598 23.8566 9.0515 24.8127 8.06999 26.1115C7.08848 27.4103 5.57077 30.0801 4.93461 31.2526C4.57108 31.7938 4.00762 33.4985 4.66196 35.9879C5.3163 38.4773 10.2966 54.8838 12.7049 62.7758C13.3411 64.7601 15.9493 68.4852 21.2931 67.5111C26.6369 66.537 85.1368 54.0269 113.719 47.8936C114.9 47.623 117.454 46.7572 118.217 45.4584C118.981 44.1595 120.535 41.3996 121.216 40.1819C121.535 39.5506 121.98 37.6926 121.216 35.3114C120.453 32.9303 115.446 16.8214 113.037 9.06461Z" fill="black"/>
<path d="M15.6128 58.0438L7.03585 27.9005C6.56881 26.253 10.7801 23.9965 12.9952 23.3101L106.262 4.08983C107.364 3.95255 109.899 3.87017 111.222 4.63898C112.544 5.40779 113.058 6.97287 113.15 7.65931C115.906 16.1711 121.13 29.6759 121.692 34.1558C121.969 36.3681 122.015 37.0016 121.969 37.7338C121.923 38.466 122.381 40.0556 120.871 41.5579C120.047 42.3773 119.901 42.2558 119.35 42.5303C88.4904 49.1201 26.1105 62.4096 23.4654 62.8489C20.8203 63.2882 18.8732 62.6659 18.2303 62.2998C16.9078 61.7506 15.9342 59.2337 15.6128 58.0438Z" fill="url(#paint1_linear_574_440)"/>
<path fill-rule="evenodd" clip-rule="evenodd" d="M16.6718 57.7533L16.6737 57.7603C16.8177 58.2935 17.1144 59.1414 17.5178 59.9024C17.7189 60.2817 17.9324 60.6122 18.1472 60.8646C18.3683 61.1246 18.5435 61.2458 18.6535 61.2915L18.7167 61.3177L18.7761 61.3516C19.1796 61.5813 20.8663 62.1729 23.2844 61.7712C25.8928 61.338 88.0605 48.0944 118.993 41.4891C119.119 41.4315 119.225 41.3905 119.308 41.3588C119.422 41.3148 119.462 41.2988 119.506 41.2764C119.57 41.2439 119.719 41.1578 120.094 40.7853C120.944 39.9393 120.913 39.2326 120.878 38.4499C120.867 38.1987 120.855 37.9397 120.873 37.6658C120.911 37.0515 120.881 36.5176 120.602 34.291C120.338 32.1898 118.941 27.8197 117.204 22.7734C116.604 21.0289 115.967 19.2144 115.334 17.4095C114.162 14.0702 113.001 10.7638 112.105 7.99415L112.074 7.90072L112.061 7.80343C112.032 7.58685 111.92 7.14861 111.677 6.69162C111.435 6.23847 111.102 5.8347 110.667 5.58228C110.236 5.3318 109.487 5.17092 108.591 5.11508C107.754 5.06298 106.937 5.10998 106.441 5.16886L13.2724 24.3688C12.2667 24.6875 10.7875 25.3675 9.62547 26.1497C9.0317 26.5494 8.58236 26.9352 8.31754 27.2657C8.14339 27.483 8.10818 27.5979 8.10129 27.6326L16.6718 57.7533ZM12.9952 23.3101L106.262 4.08983C107.364 3.95255 109.899 3.87017 111.222 4.63898C112.544 5.40779 113.058 6.97287 113.15 7.65931C114.043 10.4174 115.195 13.6996 116.364 17.0292C118.802 23.9754 121.312 31.1275 121.692 34.1558C121.969 36.3681 122.015 37.0016 121.969 37.7338C121.96 37.872 121.97 38.0406 121.98 38.2335C122.026 39.0628 122.096 40.339 120.871 41.5579C120.262 42.1634 120.023 42.2551 119.718 42.3725C119.61 42.414 119.494 42.4587 119.35 42.5303C88.4904 49.1201 26.1105 62.4096 23.4654 62.8489C20.8203 63.2882 18.8732 62.6659 18.2303 62.2998C16.9078 61.7506 15.9342 59.2337 15.6128 58.0438L7.03585 27.9005C6.56881 26.253 10.7801 23.9965 12.9952 23.3101Z" fill="url(#paint2_linear_574_440)"/>
<path d="M30.8452 48.2886L30.4641 46.5127L28.6881 46.8938L28.307 45.1178L31.8637 44.3546L32.2448 46.1305L37.5775 44.9862L36.4331 39.6535L29.3197 41.18L28.9386 39.404L27.1626 39.7851L26.3994 36.2284L28.1753 35.8473L27.7942 34.0713L36.6836 32.1637L37.0648 33.9397L38.8407 33.5586L39.2218 35.3345L35.6699 36.0968L35.2888 34.3208L29.9561 35.4651L30.7193 39.0219L37.828 37.4964L38.2091 39.2724L39.9851 38.8913L41.1294 44.224L39.3535 44.6051L39.7346 46.381L30.8452 48.2886ZM52.6828 41.7447L51.5385 36.412L46.2058 37.5563L47.3501 42.889L52.6828 41.7447ZM45.3189 50.761L42.2679 36.5436L52.9333 34.2549L53.3144 36.0309L55.0904 35.6498L56.2348 40.9825L54.4588 41.3636L54.8399 43.1395L47.7312 44.665L48.8756 49.9977L45.3189 50.761ZM67.7882 38.5032L67.407 36.7272L62.0744 37.8716L62.4555 39.6475L67.7882 38.5032ZM61.0558 41.8057L60.6747 40.0297L58.8987 40.4108L58.5176 38.6348L60.2936 38.2537L59.9115 36.473L67.0249 34.9465L66.6438 33.1705L59.5304 34.697L59.1492 32.921L68.0387 31.0134L68.4198 32.7894L70.1958 32.4083L71.7212 39.5169L61.0558 41.8057ZM76.1612 38.5642L75.78 36.7882L74.0041 37.1693L72.8597 31.8366L74.6357 31.4555L74.2546 29.6795L83.144 27.7719L83.5251 29.5479L85.3011 29.1668L85.6822 30.9427L82.1302 31.705L81.7491 29.929L76.4164 31.0734L77.5608 36.4061L82.8935 35.2617L82.5124 33.4857L86.0643 32.7235L86.4454 34.4995L84.6695 34.8806L85.0506 36.6566L76.1612 38.5642ZM97.2356 28.4635L96.8545 26.6875L91.5218 27.8319L91.9029 29.6078L97.2356 28.4635ZM91.2665 35.3227L90.8854 33.5467L89.1094 33.9278L87.965 28.5951L89.741 28.214L89.3599 26.438L98.2493 24.5304L98.6304 26.3064L100.406 25.9253L101.17 29.482L92.285 31.3886L92.6661 33.1646L99.7748 31.6391L100.156 33.4151L91.2665 35.3227Z" fill="black"/>
<defs>
<linearGradient id="paint0_linear_574_440" x1="7.45743" y1="26.4188" x2="117.574" y2="46.5076" gradientUnits="userSpaceOnUse">
<stop stop-color="#F8FDFF"/>
<stop offset="1" stop-color="#848795"/>
</linearGradient>
<linearGradient id="paint1_linear_574_440" x1="6.9336" y1="26.4677" x2="117.545" y2="41.6726" gradientUnits="userSpaceOnUse">
<stop stop-color="#F8FDFF"/>
<stop offset="1" stop-color="#C3C8CF"/>
</linearGradient>
<linearGradient id="paint2_linear_574_440" x1="60.9374" y1="18.6423" x2="69.5604" y2="51.8805" gradientUnits="userSpaceOnUse">
<stop stop-color="#F8FDFF"/>
<stop offset="1" stop-color="white"/>
</linearGradient>
</defs>
</svg>
