<svg width="627" height="250" viewBox="0 0 627 250" fill="none" xmlns="http://www.w3.org/2000/svg">
<path d="M623.173 44.8867C620.962 47.5887 617.789 48.3387 616.651 48.5387C613.434 49.1037 612.666 47.6977 608.956 48.2777C606.512 48.6597 604.671 49.6107 602.956 50.4947C600.472 51.7767 600.055 52.4747 597.608 53.8857C597.608 53.8857 594.917 55.4387 591.347 56.6247C584.963 58.7457 575.487 57.8267 567.581 53.9497C562.277 51.3497 561.27 49.1567 557.813 49.4907C554.392 49.8217 553.225 52.1787 548.184 52.5617C545.15 52.7927 542.842 52.1477 542.16 51.9407C540.973 51.5817 540.754 51.3167 539.997 51.0427C535.55 49.4357 532.101 53.8417 526.606 53.4747C524.531 53.3367 523.917 52.6337 521.4 51.6877C510.255 47.4977 503.66 54.2527 496.625 49.8147C493.36 47.7547 490.579 43.8377 491.07 40.2477C491.741 35.3457 498.4 31.5307 503.71 31.8667C507.791 32.1247 509.064 34.7067 511.953 33.8377C514.803 32.9797 515.152 29.9887 518.297 25.8317C521.088 22.1437 524.667 19.4057 527.209 18.1277C537.253 13.0807 547.13 22.7847 552.889 17.8257C555.762 15.3517 553.676 12.6177 557.529 8.04274C562.112 2.60174 568.803 2.03174 569.173 2.00574C569.632 1.97374 576.805 1.58074 581.748 6.60674C584.015 8.91074 585.045 11.4267 585.785 13.2907C588.141 19.2217 586.446 21.5197 588.217 23.1027C591.598 26.1257 598.203 18.1297 608.303 19.7117C616.242 20.9557 621.199 27.3117 621.873 28.2027C624.22 31.3017 624.829 33.9577 624.96 34.5677C625.253 35.9377 626.339 41.0187 623.173 44.8867Z" fill="#E9F4F6"/>
<path d="M582.14 19.3437C584.785 22.5047 586.238 25.6437 587.044 27.8107C592.193 25.0527 596.736 23.8127 599.759 23.2027C605.107 22.1237 610.046 21.1267 615.273 23.4207C619.544 25.2957 622.072 28.5197 623.305 30.3797C622.774 28.6507 620.345 21.4227 613.166 17.6607C608.683 15.3117 604.265 15.3007 602.779 15.3387C598.804 15.4387 595.927 16.4377 595.261 16.6927C592.767 17.6497 590.929 18.9217 589.753 19.8717C589.345 17.3987 588.186 12.6147 584.42 8.10968C582.954 6.35568 578.918 1.49568 571.87 0.305678C570.391 0.055678 565.205 -0.747322 560.206 1.97268C556.022 4.24868 553.669 7.54268 552.766 8.90868C552.075 9.95468 551.588 10.8937 551.26 11.5907C549.155 10.3047 542.566 6.65668 533.842 7.73568C532.242 7.93368 521.683 9.41568 515.34 18.8587C512.273 23.4247 511.454 27.9707 511.196 30.4817C509.936 29.7897 507.521 28.6867 504.349 28.6207C503.4 28.6007 497.908 28.4867 494.227 32.4677C490.57 36.4227 490.945 41.9917 491.08 42.0237C491.178 42.0467 491.287 39.4717 493.222 37.0117C495.035 34.7077 497.418 33.8177 498.11 33.5697C501.746 32.2637 504.947 33.2467 506.188 33.6487C509.648 34.7667 511.736 36.9757 512.61 38.0267C513.399 36.2187 514.767 33.4517 516.988 30.4377C519.983 26.3737 525.24 19.2427 533.041 18.5577C536.856 18.2227 540.292 19.5167 543.316 20.6547C546.306 21.7797 548.632 23.1447 550.236 24.2197C552.537 20.9427 556.564 16.3927 562.86 13.6867C565.527 12.5407 568.146 11.4537 571.47 11.9357C576.558 12.6717 579.826 16.5777 582.14 19.3437Z" fill="white"/>
<path d="M598.903 54.3827C601.969 52.3297 601.373 52.2997 603.509 50.7717C608.954 46.8767 617.202 52.1777 622.565 47.6997C624.514 46.0717 625.877 43.3237 626.053 40.5717C626.185 38.5077 625.623 36.8357 625.201 35.8627C625.056 36.8957 624.548 39.5017 622.414 41.7857C622.025 42.2017 618.624 45.7187 613.618 45.1217C610.412 44.7397 608.332 42.8837 607.607 42.1687C605.667 43.6447 602.062 45.8647 597.346 45.9557C593.903 46.0227 591.317 44.8927 588.375 43.6937C584.427 42.0847 581.522 40.0117 579.647 38.4497C578.879 39.2887 574.457 43.9577 567.363 44.0607C558.511 44.1897 553.438 37.0917 553.029 36.4987C551.877 40.2727 548.504 42.2897 545.828 41.6337C543.442 41.0487 542.343 38.5177 542.188 38.1457C539.632 44.1987 533.935 47.9967 528.084 47.6997C522.213 47.4027 518.589 43.1037 517.938 42.3037C516.473 44.5507 513.818 45.6157 511.422 44.9797C508.519 44.2087 507.492 41.3377 507.412 41.1037C507.231 41.4547 504.812 46.4277 499.422 47.0937C495.583 47.5687 492.763 45.5467 492.129 45.0677C492.969 47.3717 494.132 48.6587 494.882 49.3447C501.353 55.2627 515.982 51.9937 520.076 53.2857C520.35 53.3727 521.747 53.8017 523.716 54.1067C524.11 54.1677 524.542 54.2127 525.074 54.2397C530.326 54.5067 533.552 52.4127 537.822 53.2677C538.549 53.4137 538.762 53.5457 539.901 53.7397C540.556 53.8517 542.769 54.2027 545.662 54.1387C550.47 54.0317 551.547 52.9017 554.809 52.7947C558.033 52.6887 560.384 53.5497 564.203 55.1247C568.616 56.9447 573.177 58.8257 577.712 59.4717C588.695 61.0357 597.813 55.1127 598.903 54.3827Z" fill="#CEEAF0"/>
<path d="M392.693 188.277C402.489 184.842 411.475 184.821 415.583 184.845C424.401 184.894 431.582 186.476 436.385 187.881C438.399 184.173 441.929 178.799 447.92 173.693C451.278 170.831 465.33 159.242 486.525 160.039C509.089 160.889 522.41 175.124 524.655 177.61C535.585 189.723 543.021 210.481 533.903 223.719C514.704 251.595 426.142 240.239 417.362 239.112C413.203 238.579 402.331 236.631 388.934 239.4C377.827 241.695 376.051 244.892 367.05 247.198C349.43 251.712 323.831 247.767 318.222 235.123C315.131 228.153 318.159 218.514 324.441 213.391C329.153 209.547 334.645 208.704 339.044 208.079C342.183 207.633 344.572 207.719 347.683 207.832C351.784 207.984 357.689 208.508 364.775 210.232C368.015 205.335 376.638 193.907 392.693 188.277Z" fill="white"/>
<path d="M516.754 246.485C513.253 246.637 509.702 246.427 509.702 246.427C507.541 246.275 505.487 246.02 503.282 245.746C496.934 244.647 490.647 243.553 484.359 242.46L484.255 242.454C474.659 244.949 466.928 245.212 461.642 244.99C451.92 244.582 449.749 242.509 440.838 243.06C433.241 243.528 434.153 245.077 421.29 246.874C411.817 248.197 406.148 248.08 402.724 247.873C401.065 247.772 399.576 247.604 399.395 247.583C393.756 246.958 387.744 245.283 387.744 245.283C382.102 243.718 372.307 246.063 353.058 247.457C342.59 248.215 337.335 248.11 332.582 245.17C331.483 244.49 328.422 242.542 326.887 238.935C324.214 232.656 328.378 226.745 328.996 225.898C332.959 220.468 339.702 219.017 345.491 217.854C358.088 215.325 369.209 217.88 375.934 220.12C376.715 217.823 381.278 205.181 395.489 199.153C405.847 194.76 415.735 196.25 419.171 196.812C425.791 197.894 430.784 200.209 433.815 201.895C441.145 197.494 452.084 192.366 466.18 190.293C474.386 189.088 485.522 187.45 497.729 192.097C501.165 193.405 508.645 196.353 514.511 203.519C518.572 208.482 520.176 213.41 520.869 216.381C522.406 213.507 526.927 206.074 536.73 201.504C538.626 200.62 549.752 195.674 563.02 199.315C572.614 201.947 578.017 207.613 579.191 208.893C582.909 212.945 584.603 217.025 585.403 219.517C591.494 216.135 598.805 215.921 604.386 218.921C607.673 220.688 612.867 224.917 611.876 228.719C610.092 235.553 588.959 238.497 575.837 237.698C572.922 237.521 566.169 236.896 556.877 237.785C555.031 237.962 552.409 238.263 549.284 238.798C534.516 241.323 525.914 246.088 516.754 246.485Z" fill="#E9F4F6"/>
<path d="M503.088 247.795C495.164 246.971 488.745 245.183 484.25 243.629L484.146 243.626C467.822 247.226 447.096 250.226 423.09 249.987C411.998 249.876 401.775 249.09 392.568 247.947C379.108 248.307 369.294 248.774 362.392 249.165C353.986 249.639 345.406 250.251 337.924 245.578C336.616 244.761 335.635 243.965 335 243.409C339.443 243.397 346.386 242.988 354.299 240.668C363.072 238.098 366.143 235.201 373.726 233.003C378.818 231.526 386.696 230.145 397.633 231.635C400.2 233.254 405.165 235.861 411.885 236.283C426.863 237.223 436.734 226.435 437.72 225.319C440.714 226.015 445.245 226.673 450.351 225.668C456.645 224.427 458.653 221.67 466.371 218.667C469.841 217.318 474.845 215.37 481.346 215.046C491.909 214.522 500.309 218.589 504.022 220.386C508.668 222.635 508.258 223.272 513.716 226.052C520.37 229.441 527.335 231.733 531.102 232.446C547.541 235.561 565.041 220.383 567.307 218.37C568.607 223.943 571.347 225.744 572.814 226.415C573.746 226.841 575.355 227.358 585.73 226.283C592.013 225.63 592.911 225.268 595.137 225.679C598.945 226.381 604.108 228.73 603.998 231.063C603.8 235.277 586.423 239.225 575.797 238.893C574.581 238.855 570.813 238.683 565.597 238.802C563.029 238.859 560.092 238.993 556.842 239.258C556.842 239.258 552.831 239.585 549.231 240.073C540.856 241.211 535.708 244.602 528.302 246.697C518.689 249.417 510.265 248.54 503.088 247.795Z" fill="#CEEAF0"/>
<path d="M98.7349 37.2276C96.911 35.9254 92.9592 33.1735 93.0003 29.0802C93.0043 28.709 93.0946 25.322 95.8807 22.9393C97.85 21.2548 100.074 20.9428 102.015 20.697C103.869 20.4623 105.435 20.5997 106.513 20.7703C105.926 17.8177 106.902 14.7939 109.097 12.8968C111.737 10.6154 115.717 10.3264 118.88 12.2567C119.129 10.8561 119.719 8.61688 121.285 6.36157C121.79 5.63521 125.953 -0.149533 132.942 0.00296125C137.817 0.109306 141.042 3.0388 141.95 3.88856C146.269 7.93266 146.592 13.2148 146.635 14.3515C147.132 13.8739 147.907 13.2258 148.979 12.6881C149.792 12.2797 154.071 10.2803 158.023 12.7202C160.734 14.3936 162.288 17.5368 162.085 20.8445C163.03 20.7542 165.037 20.694 167.208 21.7274C167.951 22.0815 170.351 23.2242 171.447 25.7895C172.456 28.1522 171.812 30.4406 171.629 31.0907C169.604 38.2941 155.023 45.4462 144.193 41.7452C141.367 40.7791 139.264 39.211 134.956 38.9602C130.698 38.7124 128.265 39.9825 124.9 40.9115C116.097 43.3424 105.616 42.1415 98.7349 37.2276Z" fill="white"/>
<path d="M167.488 35.4869C168.722 34.6191 171.628 32.6116 171.601 29.7182C171.572 26.5319 168.442 24.6638 168.169 24.5033C165.292 22.8098 161.371 23.2743 158.466 25.8015C157.681 24.7692 155.163 21.7313 150.667 20.5074C145.081 18.9854 140.556 21.3842 139.62 21.9069C138.097 20.4411 135.578 18.3594 131.993 16.7742C129.915 15.8553 127.707 14.8791 124.675 14.831C119.248 14.7447 115.348 17.6972 113.995 18.851C111.275 21.1715 109.916 23.8432 109.263 25.4494C108.119 25.0541 106.247 24.5585 103.928 24.6488C102.103 24.72 99.0821 24.8374 96.9301 26.9914C95.2547 28.6688 94.112 31.6575 94.7681 33.6309C96.5308 38.927 110.648 35.1057 135.571 37.4814C145.976 38.4736 160.052 40.7158 167.488 35.4869Z" fill="#F2F7F8"/>
<path d="M165.728 34.1957C161.231 34.9642 158.068 31.9394 157.758 31.6314C156.399 32.3337 154.226 33.1865 151.53 33.1393C144.231 33.0129 139.925 26.4135 139.489 25.7233C138.526 26.8078 132.795 33.0591 123.654 33.1323C117.921 33.1784 113.721 30.7706 111.978 29.6269C111.698 30.1607 109.096 34.9251 103.478 35.81C98.8438 36.5393 95.4247 34.1145 94.7686 33.6299C95.2732 34.3864 96.0036 35.3896 96.9918 36.4761C97.3188 36.8353 100.058 39.8019 103.661 41.6338C107.66 43.6664 111.335 43.5962 116.289 43.5009C124.347 43.3464 130.01 40.9928 131.94 40.1219C132.887 39.6945 133.662 39.2973 134.21 39.0033C137.166 40.4921 148.484 45.8134 159.589 42.2669C162.516 41.3319 167.749 39.6614 170.412 34.7295C171.38 32.9377 171.728 31.2331 171.868 30.0734C171.557 30.5609 169.596 33.5346 165.728 34.1957Z" fill="#CEEAF0"/>
<path d="M5.7349 221.228C3.91099 219.925 -0.0408147 217.173 0.000318643 213.08C0.00433165 212.709 0.0946265 209.322 2.88066 206.939C4.85004 205.255 7.07425 204.943 9.01453 204.697C10.8685 204.462 12.4346 204.6 13.5131 204.77C12.9262 201.818 13.9024 198.794 16.0975 196.897C18.737 194.615 22.7169 194.326 25.8802 196.257C26.129 194.856 26.7189 192.617 28.285 190.362C28.7896 189.635 32.9531 183.85 39.9418 184.003C44.8166 184.109 48.042 187.039 48.95 187.889C53.269 191.933 53.592 197.215 53.6351 198.351C54.1318 197.874 54.9073 197.226 55.9787 196.688C56.7924 196.28 61.0713 194.28 65.0231 196.72C67.7338 198.394 69.2879 201.537 69.0852 204.845C70.0303 204.754 72.0368 204.694 74.2078 205.727C74.9512 206.082 77.351 207.224 78.4466 209.79C79.4558 212.152 78.8117 214.441 78.6291 215.091C76.6036 222.294 62.0233 229.446 51.1932 225.745C48.3671 224.779 46.2643 223.211 41.9563 222.96C37.6985 222.712 35.2646 223.983 31.8997 224.912C23.0972 227.342 12.6162 226.142 5.7349 221.228Z" fill="white"/>
<path d="M74.4878 219.487C75.7218 218.619 78.6282 216.612 78.6011 213.718C78.572 210.532 75.4419 208.664 75.169 208.503C72.2917 206.81 68.3709 207.274 65.4655 209.802C64.681 208.769 62.1628 205.731 57.6673 204.507C52.0812 202.985 47.5565 205.384 46.6205 205.907C45.0965 204.441 42.5784 202.359 38.9927 200.774C36.915 199.855 34.7069 198.879 31.675 198.831C26.2484 198.745 22.3478 201.697 20.9954 202.851C18.2746 205.172 16.9162 207.843 16.2631 209.449C15.1194 209.054 13.2473 208.558 10.9278 208.649C9.10287 208.72 6.08208 208.837 3.93011 210.991C2.25468 212.669 1.11198 215.657 1.7681 217.631C3.53081 222.927 17.6476 219.106 42.5713 221.481C52.9761 222.474 67.0517 224.716 74.4878 219.487Z" fill="#F2F7F8"/>
<path d="M72.7275 218.196C68.2309 218.964 65.0677 215.939 64.7577 215.631C63.3993 216.334 61.2262 217.186 58.5295 217.139C51.2308 217.013 46.9249 210.414 46.4895 209.723C45.5264 210.808 39.7948 217.059 30.6542 217.132C24.9206 217.178 20.721 214.771 18.9783 213.627C18.6984 214.161 16.096 218.925 10.4778 219.81C5.84376 220.539 2.42468 218.114 1.76855 217.63C2.27319 218.386 3.00356 219.39 3.99176 220.476C4.31882 220.835 7.05769 223.802 10.6614 225.634C14.6603 227.666 18.3352 227.596 23.2893 227.501C31.3474 227.346 37.0098 224.993 38.94 224.122C39.8871 223.695 40.6616 223.297 41.2104 223.003C44.166 224.492 55.4836 229.813 66.5886 226.267C69.5161 225.332 74.7491 223.661 77.4117 218.729C78.3798 216.938 78.728 215.233 78.8684 214.073C78.5574 214.561 76.5961 217.535 72.7275 218.196Z" fill="#CEEAF0"/>
<path d="M197.898 156.993C206.895 154.411 215.602 156.622 218.135 157.265C223.39 158.594 227.439 160.672 230.104 162.29C230.227 160.871 231.602 147.663 243.288 140.676C252.347 135.259 261.68 137.125 265.439 138.214C277.21 141.625 282.665 151.424 283.995 153.812C293.792 171.417 283.876 191.204 281.723 195.231C279.674 199.067 275.828 206.268 267.733 211.453C259.531 216.705 244.674 216.178 215.295 214.905C201.29 214.298 194.321 213.797 192.018 213.524C188.473 213.102 182.819 211.074 175.553 212.144C173.999 212.374 172.415 212.731 169.245 213.449C161.071 215.3 159.047 216.263 156.756 216.658C149.686 217.879 138.384 213.995 134.393 204.55C130.641 195.67 135.056 185.915 140.674 180.794C145.141 176.722 150.193 175.724 152.59 175.283C163.085 173.355 171.419 178.169 173.852 179.698C174.709 177.555 181.322 161.753 197.898 156.993Z" fill="white"/>
<path d="M267.597 168.134C268.976 166.46 272.424 162.55 278.204 160.755C284.299 158.862 292.029 160.184 296.494 164.819C297.34 165.697 299.476 168.012 300.131 171.709C300.628 174.519 300.037 176.832 299.64 178.024C300.525 177.348 302.839 175.775 306.135 175.643C310.782 175.457 313.876 178.276 314.62 178.977C318.581 182.704 318.549 187.708 318.53 188.539C323.175 187.484 327.883 189.117 330.562 192.654C332.731 195.519 333.969 200.065 332.051 203.147C328.618 208.663 317.867 207.642 316.741 207.535C312.778 207.158 311.919 206.026 309.042 206.718C306.407 207.351 306.109 208.543 300.536 211.381C296.856 213.255 295.507 213.489 294.392 213.513C292.272 213.558 290.748 212.873 289.015 212.099C285.039 210.323 284.909 208.788 281.583 207.801C280.687 207.535 278.901 206.991 276.618 207.224C276.149 207.271 275.586 207.375 274.886 207.573C270.682 208.767 268.571 211.664 267.139 211.552C262.907 211.227 254.616 183.898 267.597 168.134Z" fill="white"/>
<path d="M194.285 170.496C202.357 166.296 215.149 163.924 224.694 170.409C227.666 172.428 229.62 174.826 230.832 176.613C231.808 173.854 235.351 164.958 244.843 159.44C247.188 158.076 257.637 152.356 268.363 156.347C273.731 158.346 276.843 161.753 280.523 166.036C291.471 178.777 288.989 187.804 298.747 192.822C301.212 194.089 306.19 197.063 311.481 195.677C315.257 194.688 316.453 192.242 320.702 192.091C321.645 192.057 326.218 191.897 328.529 195.206C329.77 196.984 330.339 199.736 329.19 201.898C328.505 203.19 327.179 204.32 323.629 205.264C317.059 207.009 315.374 204.789 310.162 205.702C303.495 206.872 302.124 210 298.233 211.5C296.733 212.078 295.528 212.168 294.355 212.289C287.041 213.042 276.313 208.228 274.884 207.574C273.518 208.607 271.396 210.119 268.667 211.705C249.529 222.813 228.734 221.028 211.192 219.299C204.627 218.651 195.596 217.383 184.979 214.679C182.029 215.809 177.797 217.189 172.573 218.082C165.612 219.272 156.008 220.645 147.017 215.647C137.861 210.558 134.215 201.468 133.004 197.875C134.102 195.458 137.803 188.162 145.951 184.71C155.936 180.48 168.51 183.757 177.134 193.146C177.543 191.245 180.741 177.543 194.285 170.496Z" fill="#E9F4F6"/>
<path d="M328.532 195.204C325.447 192.085 321.351 192.067 320.705 192.089C316.456 192.238 315.26 194.685 311.483 195.675C306.193 197.063 301.215 194.089 298.75 192.82C289.574 188.1 291.216 179.832 282.336 168.266C281.194 169.217 279.987 170.1 278.706 170.908C276.145 172.526 272.199 175.095 267.914 175.421C263.98 175.719 261.081 174.044 259.723 173.453C246.754 167.803 224.933 195.839 195.354 200.391C191.012 201.06 184.221 201.572 175.487 199.919C174.47 201.437 169.033 209.211 158.725 211.038C156.681 211.4 149.042 212.632 141.629 207.895C136.389 204.546 133.945 199.93 133.007 197.873C132.988 200.197 133.282 204.309 135.57 208.586C139.262 215.489 145.654 218.175 148.311 219.291C158.557 223.597 168.46 220.81 173.856 219.291C178.738 217.917 182.524 216.058 184.983 214.677C195.602 217.384 204.631 218.649 211.197 219.297C228.741 221.028 249.534 222.813 268.671 211.705C271.402 210.121 273.523 208.607 274.888 207.575C279.32 210.517 290.155 217.011 298.092 214.368C299.429 213.924 303.24 212.368 307.187 210.47C309.984 209.125 312.244 207.901 313.777 207.038C315.019 207.675 317.054 208.537 319.695 208.846C321.511 209.059 323.59 209.302 325.867 208.358C326.479 208.106 330.862 206.211 331.389 202.024C331.826 198.536 329.278 195.958 328.532 195.204Z" fill="#CEEAF0"/>
<path d="M226.352 200.459C234.281 200.657 290.373 201.683 295.236 183.836C296.233 180.177 295.894 172.726 291.213 168.443C285.621 163.327 276.944 165.578 275.528 165.945C265.393 168.575 261.073 178.188 260.438 179.662C256.965 177.346 252.518 177.078 248.859 178.977C243.548 181.734 242.855 187.524 242.811 187.957C236.762 185.492 230.597 186.121 227.343 189.584C226.925 190.029 223.661 193.504 224.664 197.461C225.017 198.849 225.781 199.851 226.352 200.459Z" fill="white"/>
<path d="M260.982 185.341C267.584 188.121 272.166 187.691 275.051 186.872C282.261 184.821 285.177 178.54 290.377 179.28C293.417 179.713 295.537 182.305 296.741 184.128C297.683 183.644 299.153 183.06 301.186 182.892C301.22 182.889 301.327 182.881 301.431 182.875C305.325 182.647 307.955 185.038 307.955 185.038C310.778 187.605 310.665 191.232 310.64 191.733C311.761 191.435 314.407 190.906 317.349 192.008C318.34 192.379 320.054 193.021 321.289 194.735C322.647 196.621 323.329 199.666 322.109 201.802C319.882 205.697 312.151 205.139 309.149 204.923C309.056 204.917 308.983 204.911 308.934 204.906C305.523 204.64 304.785 203.838 302.308 204.328C300.041 204.776 299.784 205.62 294.989 207.629C291.823 208.955 290.661 209.121 289.702 209.138C287.877 209.17 286.567 208.684 285.075 208.138C281.653 206.881 281.542 205.795 278.681 205.096C277.91 204.908 276.374 204.523 274.409 204.689C271.914 204.9 271.61 205.742 269.714 205.83C266.761 205.966 266.403 203.973 263.628 204.034C261.372 204.083 261.112 205.392 257.176 206.25C256.195 206.465 255.006 206.723 253.473 206.667C250.309 206.548 249.915 205.233 246.934 204.974C246.489 204.934 246.139 204.926 245.817 204.943C243.449 205.056 241.679 205.441 241.374 205.516C237.794 206.394 225.975 202.201 226.354 200.461C226.612 199.278 232.055 201.21 237.345 198.071C240.462 196.221 242.297 193.34 243.417 190.863C243.89 191.23 247.917 194.259 253.104 192.918C258.978 191.4 260.873 185.689 260.982 185.341Z" fill="#E9F4F6"/>
</svg>
