<svg width="693" height="135" viewBox="0 0 693 135" fill="none" xmlns="http://www.w3.org/2000/svg">
<path d="M288.676 78.4828C288.792 78.1896 288.839 77.8836 288.808 77.5696C288.391 73.3801 285.077 41.9448 277.5 21.4275C276.75 19.3965 278.705 18.0339 279.963 19.7963C286.663 29.1853 293.921 44.5648 298.212 57.804C298.875 59.8496 302.278 59.7897 302.82 57.7086C304.314 51.9711 306.484 44.699 308.957 39.7242C309.766 38.0958 311.796 38.7182 311.877 40.5347C312.122 45.9754 312.575 54.3003 312.923 60.51C313.04 62.6081 316.29 63.3125 317.447 61.5577C319.343 58.6792 321.85 55.4625 324.846 52.9477C326.184 51.8244 328.092 53.1499 327.981 54.8936C327.797 57.7637 327.877 61.017 328.034 63.8405C328.141 65.7715 330.664 66.0993 331.414 64.3167V64.3167C332.115 62.6512 334.562 62.8304 334.945 64.5963V64.5963C335.38 66.6055 339.116 66.6897 339.854 64.7705C340.685 62.6063 341.746 60.2207 343.089 57.7656C344.023 56.0595 347.229 56.6846 347.71 58.5689C347.951 59.5098 348.21 60.502 348.477 61.5051C349.051 63.6649 352.012 63.3605 352.114 61.128C352.393 55.0429 352.647 47.2249 352.597 39.5968C352.582 37.1949 356.777 36.37 357.463 38.6722C360.151 47.7003 362.925 58.5576 363.848 67.4511C364.043 69.3238 366.532 70.1614 367.72 68.7005L371.582 63.9494C372.91 62.3164 375.618 63.5927 375.241 65.6634C374.799 68.0986 374.35 70.7764 374.016 73.2522C373.755 75.1797 376.152 76.1082 377.484 74.6913C379.529 72.5168 382.236 69.9773 385.318 67.933C386.898 66.8848 389.002 68.8526 388.668 70.7193C388.512 71.588 388.387 72.4734 388.286 73.3368C388.053 75.3224 390.543 76.132 391.687 74.4924C395.366 69.2183 401.23 61.2835 407.151 55.2006C408.495 53.8199 410.678 55.0881 410.304 56.9783C409.462 61.2388 408.529 66.3727 407.795 70.5048C407.435 72.5321 409.844 73.5775 411.019 71.8869C415.397 65.59 421.918 55.1894 425.831 44.1722C426.48 42.3465 428.468 42.4125 428.594 44.3459C428.94 49.6428 428.722 57.027 427.712 62.9517C427.376 64.9201 430.01 66.933 431.738 65.9332C432.846 65.2925 434.038 64.63 435.243 64.0048C436.91 63.1406 438.572 64.9743 437.822 66.6954C437.278 67.9444 436.732 69.3421 436.284 70.7837C435.715 72.6138 438.203 73.8809 439.824 72.8588C442.578 71.1222 446.744 69.1037 452.762 67.541C454.779 67.0172 456.461 70.1872 455.318 71.9297C454.057 73.8517 452.982 75.8765 452.117 77.695C451.27 79.4749 453.406 81.179 455.135 80.2323C457.749 78.8011 461.107 77.2461 464.791 76.2373C466.654 75.7271 467.931 78.2254 466.817 79.8043C462.927 85.3192 459.161 93.0981 457.793 96.0256C457.46 96.7402 456.745 97.2007 455.956 97.2007H284.184C282.771 97.2007 281.804 95.7752 282.325 94.4621L288.676 78.4828Z" fill="#518534"/>
<path d="M580.963 84.3354C580.926 84.2037 580.903 84.0907 580.895 83.9541C580.75 81.4833 579.454 54.3419 590.42 21.1185C591.112 19.0223 588.019 16.9946 586.35 18.4392C578.355 25.3597 571.624 30.6063 566.857 49.0011C566.283 51.2145 562.553 51.1829 562.157 48.9308C559.925 36.2333 556.104 17.0873 551.702 5.95726C550.973 4.11279 548.686 4.65697 548.628 6.63963C548.287 18.3478 547.406 40.7676 546.857 54.4259C546.767 56.6669 543.195 57.2301 542.306 55.1708C539.256 48.1019 534.615 39.0501 528.782 32.8912C527.527 31.5663 525.47 32.7293 525.626 34.5475C526.278 42.1499 526.012 52.1594 525.641 59.6225C525.532 61.8273 522.58 62.1503 521.946 60.0357L520.366 54.7596C519.754 52.7175 516.798 52.9217 516.473 55.0284L515.407 61.9353C515.05 64.25 510.791 64.3075 510.236 62.0319C508.765 55.9922 506.597 48.6972 503.466 41.2192C502.654 39.2799 499.157 39.8217 498.797 41.8932C497.774 47.7854 496.263 55.634 495.017 61.9627C494.586 64.1526 491.754 64.0487 491.55 61.8262C490.621 51.6967 489.706 35.649 490.827 18.0171C490.965 15.8514 488.323 15.0852 487.458 17.0751C483.028 27.2572 476.496 45.5039 475.202 66.8733C475.078 68.9146 472.267 69.6445 471.243 67.8745L462.451 52.6825C461.343 50.7678 458.34 51.8106 458.641 54.0023C459.631 61.211 460.85 70.8368 461.472 78.6252C461.64 80.721 458.819 81.5196 457.692 79.745C454.243 74.3162 448.932 66.9862 442.782 62.0532C441.309 60.8723 439.271 62.4857 439.651 64.3348C440.589 68.9114 441.086 74.492 441.35 79.1208C441.472 81.268 438.634 81.9517 437.69 80.0193C432.385 69.1602 422.507 49.9734 412.799 36.5953C411.605 34.9495 409.143 36.0284 409.438 38.0403C411.019 48.8218 413.009 64.4011 414.258 74.3989C414.528 76.5603 411.826 77.4276 410.836 75.4876C404.535 63.1466 393.365 39.1834 387.467 14.0536C386.983 11.9905 384.704 12.0211 384.554 14.135C383.702 26.2168 384.093 46.4058 386.404 59.9289C386.751 61.9542 383.979 63.6097 382.411 62.2816C379.562 59.8686 375.989 57.0052 372.535 54.6849C370.988 53.6458 369.175 55.232 369.798 56.9882C371.272 61.1419 373.214 67.3064 374.255 73.4663C374.601 75.5137 371.483 76.6836 369.992 75.2379C365.591 70.9694 357.921 65.4134 345.588 61.8485C343.698 61.3019 342.162 63.7737 343.207 65.441C347.51 72.3012 350.792 81.6359 352.739 88.0435C353.336 90.0096 350.774 91.5243 349.193 90.2113C344.572 86.3728 337.524 81.452 329.806 79.3965C328.076 78.9358 326.868 80.9893 327.796 82.52C334.489 93.5521 341.744 114.987 343.595 120.618C343.867 121.445 344.635 122 345.506 122H588.975C590.302 122 591.261 120.732 590.9 119.456L580.963 84.3354Z" fill="#6A9B34"/>
<path d="M108.085 84.336C108.123 84.2039 108.145 84.0905 108.153 83.9534C108.3 81.4782 109.6 54.3281 98.5865 21.0985C97.8922 19.0037 100.979 16.9734 102.65 18.4148C110.695 25.3535 117.465 30.5939 122.257 49.0503C122.831 51.2623 126.556 51.2299 126.953 48.9793C129.194 36.2729 133.037 17.0737 137.465 5.93303C138.197 4.09144 140.482 4.6376 140.54 6.61849C140.883 18.3323 141.769 40.8033 142.32 54.466C142.411 56.7056 145.978 57.2705 146.868 55.2133C149.931 48.133 154.602 39.0491 160.474 32.8776C161.731 31.5563 163.786 32.7217 163.63 34.5387C162.972 42.1553 163.241 52.1911 163.615 59.6611C163.725 61.8643 166.675 62.1879 167.31 60.0754L168.919 54.7258C169.532 52.6861 172.484 52.8907 172.81 54.9955L173.894 61.9929C174.253 64.3063 178.506 64.364 179.061 62.0898C180.541 56.0307 182.724 48.7014 185.884 41.1889C186.698 39.2524 190.192 39.7962 190.552 41.8658C191.581 47.774 193.105 55.6586 194.359 62.0043C194.791 64.1924 197.621 64.0886 197.826 61.8676C198.76 51.7348 199.684 35.6552 198.554 17.9876C198.415 15.8233 201.055 15.055 201.923 17.0424C206.371 27.2218 212.944 45.4946 214.241 66.8973C214.364 68.9369 217.171 69.6681 218.197 67.9012L227.058 52.6473C228.168 50.7354 231.168 51.7813 230.866 53.9716C229.87 61.1923 228.643 70.8486 228.017 78.653C227.85 80.7471 230.666 81.546 231.795 79.7744C235.259 74.3389 240.603 66.9849 246.793 62.0429C248.268 60.8654 250.304 62.4827 249.923 64.3313C248.979 68.919 248.479 74.5163 248.215 79.1524C248.093 81.2981 250.929 81.9819 251.875 80.0522C257.198 69.193 267.131 49.9658 276.89 36.5732C278.087 34.9308 280.546 36.012 280.25 38.0225C278.661 48.8148 276.66 64.4249 275.406 74.4271C275.135 76.5872 277.835 77.4564 278.828 75.5191C285.152 63.182 296.385 39.1838 302.308 14.0207C302.793 11.9597 305.071 11.9898 305.222 14.1018C306.08 26.1838 305.689 46.4068 303.365 59.9424C303.017 61.9666 305.785 63.6245 307.354 62.2996C310.221 59.8797 313.822 57.0035 317.302 54.6758C318.85 53.6398 320.662 55.2291 320.036 56.9844C318.555 61.1439 316.602 67.3217 315.557 73.4921C315.211 75.5378 318.323 76.7066 319.813 75.2636C324.228 70.9906 331.936 65.4177 344.344 61.8458C346.237 61.3011 347.771 63.7779 346.723 65.4445C342.401 72.3102 339.106 81.653 337.153 88.06C336.554 90.0245 339.112 91.5408 340.693 90.2308C345.333 86.3884 352.42 81.4526 360.183 79.3947C361.915 78.9356 363.123 80.9934 362.191 82.5239C355.474 93.5586 348.192 114.993 346.335 120.62C346.063 121.446 345.295 122 344.424 122H100.037C98.71 122 97.7508 120.731 98.1134 119.454L108.085 84.336Z" fill="#6A9B34"/>
<path d="M469.023 89.7004C469.067 89.5705 469.096 89.4572 469.111 89.3208C469.366 87.0229 471.699 63.4925 463.816 33.9618C463.247 31.8296 466.489 29.93 468.085 31.4545C474.383 37.4712 479.717 42.5834 483.014 57.53C483.507 59.7618 487.287 59.9082 487.807 57.6828C490.364 46.7491 494.388 31.2405 498.571 21.8268C499.376 20.0156 501.601 20.6699 501.557 22.6514C501.328 32.9304 501.085 51.435 500.939 63.4315C500.912 65.6729 504.479 66.4268 505.497 64.4295C508.466 58.6035 512.688 51.5548 517.708 46.6471C519.012 45.372 521.004 46.6311 520.766 48.4395C519.937 54.7468 519.697 62.8052 519.659 69.1508C519.646 71.3569 522.564 71.8355 523.309 69.7589L524.289 67.0263C525.008 65.0212 527.946 65.3801 528.161 67.4993L528.537 71.1975C528.773 73.5266 533.087 73.8212 533.788 71.5873C535.284 66.8173 537.303 61.3016 539.969 55.6683C540.868 53.7692 544.336 54.4862 544.593 56.5714C545.187 61.3936 546.027 67.4535 546.765 72.6159C547.08 74.8241 549.89 74.8667 550.201 72.6578C551.439 63.8347 552.837 50.5192 552.738 35.8096C552.724 33.6407 555.393 33.0295 556.139 35.0659C559.549 44.3697 564.134 60.1481 564.41 78.2902C564.442 80.3335 567.219 81.2122 568.336 79.5011L575.878 67.9494C577.087 66.098 580.033 67.2982 579.621 69.4706C578.488 75.4342 577.14 82.972 576.265 89.3247C575.978 91.4061 578.748 92.3582 579.983 90.6587C583.22 86.2059 587.902 80.5443 593.155 76.6446C594.67 75.5196 596.633 77.2312 596.179 79.0632C595.287 82.6689 594.657 86.9115 594.227 90.6152C593.979 92.7502 596.768 93.583 597.818 91.7075C603.071 82.3223 612.271 66.7031 621.161 55.5979C622.431 54.0113 624.818 55.2236 624.42 57.2166C622.596 66.3491 620.291 79.0025 618.745 87.6249C618.36 89.7678 620.995 90.7746 622.08 88.8874C628.289 78.0948 638.779 58.1772 645.085 36.967C645.689 34.9374 647.931 35.1003 647.953 37.2177C648.064 47.8585 646.829 64.6543 644.32 76.2558C643.886 78.2634 646.598 80.0819 648.241 78.8496C650.644 77.0477 653.506 75.0172 656.301 73.3164C657.892 72.3475 659.619 74.0123 658.912 75.7364C657.505 79.1652 655.733 83.968 654.564 88.8717C654.083 90.89 657.138 92.2512 658.733 90.9234C663.121 87.269 670.491 82.7814 681.905 80.3672C683.218 80.0893 683.736 82.3046 682.942 83.3874V83.3874C681.914 84.7889 683.791 85.5034 685.362 84.7593C685.7 84.5991 686.045 84.4545 686.397 84.3268C687.588 83.8944 688.254 85.2107 687.33 86.0781C681.385 91.6577 669.834 101.225 660.357 108.933C650.691 116.794 638.62 121.042 626.162 121.159L460.567 122.721C459.188 122.734 458.21 121.38 458.656 120.075L469.023 89.7004Z" fill="#518534"/>
<path d="M224.396 89.7004C224.352 89.5705 224.323 89.4572 224.308 89.3208C224.053 87.0229 221.72 63.4925 229.603 33.9618C230.172 31.8296 226.93 29.93 225.334 31.4545C219.036 37.4712 213.702 42.5834 210.405 57.53C209.912 59.7618 206.132 59.9082 205.612 57.6828C203.055 46.7491 199.031 31.2405 194.848 21.8268C194.043 20.0156 191.818 20.6699 191.862 22.6514C192.091 32.9304 192.334 51.435 192.48 63.4315C192.507 65.6729 188.94 66.4268 187.922 64.4295C184.953 58.6035 180.731 51.5548 175.711 46.6471C174.407 45.372 172.415 46.6311 172.653 48.4395C173.482 54.7468 173.722 62.8052 173.76 69.1508C173.773 71.3569 170.855 71.8355 170.11 69.7589L169.13 67.0263C168.411 65.0212 165.473 65.3801 165.258 67.4993L164.882 71.1975C164.646 73.5266 160.332 73.8212 159.631 71.5873C158.135 66.8173 156.116 61.3016 153.45 55.6683C152.551 53.7692 149.083 54.4862 148.826 56.5714C148.232 61.3936 147.392 67.4535 146.654 72.6159C146.339 74.8241 143.529 74.8667 143.218 72.6578C141.98 63.8347 140.582 50.5192 140.681 35.8096C140.695 33.6407 138.026 33.0295 137.28 35.0659C133.87 44.3697 129.285 60.1481 129.009 78.2902C128.977 80.3335 126.2 81.2122 125.083 79.5011L117.541 67.9494C116.332 66.098 113.386 67.2982 113.798 69.4706C114.93 75.4342 116.279 82.972 117.154 89.3247C117.441 91.4061 114.671 92.3582 113.436 90.6587C110.199 86.2059 105.517 80.5443 100.264 76.6446C98.7485 75.5196 96.7862 77.2312 97.2397 79.0632C98.1324 82.6689 98.7621 86.9115 99.192 90.6152C99.4399 92.7502 96.6512 93.583 95.6014 91.7075C90.3479 82.3223 81.1478 66.7031 72.2578 55.5979C70.9877 54.0113 68.6012 55.2236 68.9992 57.2166C70.8228 66.3491 73.1284 79.0025 74.6743 87.6249C75.0585 89.7678 72.4242 90.7746 71.3386 88.8874C65.1302 78.0948 54.6402 58.1772 48.3336 36.967C47.7301 34.9374 45.4882 35.1003 45.4661 37.2177C45.3553 47.8585 46.5901 64.6543 49.0986 76.2558C49.5326 78.2634 46.8213 80.0819 45.1781 78.8496C42.7752 77.0477 39.9125 75.0172 37.1183 73.3164C35.5266 72.3475 33.8003 74.0123 34.5074 75.7364C35.9136 79.1652 37.6858 83.968 38.8551 88.8717C39.3364 90.89 36.2807 92.2512 34.6863 90.9234C30.2982 87.269 22.928 82.7814 11.5143 80.3672C10.2005 80.0893 9.68277 82.3046 10.477 83.3874V83.3874C11.505 84.7889 9.62822 85.5034 8.05743 84.7593C7.71915 84.5991 7.37412 84.4545 7.02228 84.3268C5.83092 83.8944 5.16477 85.2107 6.08892 86.0781C12.0338 91.6577 23.5847 101.225 33.0624 108.933C42.7281 116.794 54.7992 121.042 67.2573 121.159L232.852 122.721C234.231 122.734 235.209 121.38 234.763 120.075L224.396 89.7004Z" fill="#518534"/>
</svg>
