<svg width="155" height="65" viewBox="0 0 155 65" fill="none" xmlns="http://www.w3.org/2000/svg">
<path fill-rule="evenodd" clip-rule="evenodd" d="M147.619 0H7.38095V3.69318H3.69048V7.38636L0 7.38636V57.6136L3.69048 57.6136V61.3068L7.38095 61.3068V65H147.619V61.3068L151.31 61.3068V57.6136L155 57.6136V7.38636L151.31 7.38636V3.69318H147.619V0ZM147.619 3.69318L147.619 7.38636H151.31V57.6136H147.619L147.619 61.3068H7.38095V57.6136H3.69048V7.38636H7.38095V3.69318H147.619Z" fill="#E6E5EA"/>
<path d="M42.5093 39.9858V38.1694H40.6929V34.5317H44.3306V38.1694H49.7847V27.2612H44.3306V25.4448H53.4175V38.1694H51.6011V39.9858H42.5093ZM65.2339 38.1694V27.2612H59.7798V38.1694H65.2339ZM57.9585 39.9858V38.1694H56.1421V27.2612H57.9585V25.4448H67.0503V27.2612H68.8667V38.1694H67.0503V39.9858H57.9585ZM73.4078 39.9858V38.1694H71.5914V25.4448H75.229V38.1694H80.6832V25.4448H84.316V38.1694H82.4996V39.9858H73.4078ZM87.0406 39.9858V25.4448H99.7652V27.2612H90.6783V30.8989H96.1324V32.7153H90.6783V38.1694H99.7652V39.9858H87.0406ZM111.582 30.8989V27.2612H106.127V30.8989H111.582ZM102.49 39.9858V25.4448H113.398V27.2612H115.214V30.8989H113.398V32.7153H115.214V39.9858H111.582V32.7153H106.127V39.9858H102.49Z" fill="#E6E5EA"/>
</svg>
