<svg width="155" height="65" viewBox="0 0 155 65" fill="none" xmlns="http://www.w3.org/2000/svg">
<path fill-rule="evenodd" clip-rule="evenodd" d="M147.619 0H7.38095V3.69318H3.69048V7.38636H0V57.6136H3.69048V61.3068H7.38095V65H147.619V61.3068H151.31V57.6136H155V7.38636H151.31V3.69318H147.619V0Z" fill="#FBCB4E"/>
<path fill-rule="evenodd" clip-rule="evenodd" d="M147.619 0H7.38095V3.69318H3.69048V7.38636H0V57.6136L3.69048 57.6136V61.3068H7.38095V57.6136H3.69048V7.38636H7.38095V3.69318H147.619L147.619 7.38636H151.31V57.6136H147.619V61.3068H151.31V57.6136L155 57.6136V7.38636H151.31V3.69318H147.619V0ZM147.619 61.3068H7.38095V65H147.619V61.3068Z" fill="#383838"/>
<path d="M42.5098 39.9858V38.1694H40.6934V34.5317H44.3311V38.1694H49.7852V27.2612H44.3311V25.4448H53.418V38.1694H51.6016V39.9858H42.5098ZM65.2344 38.1694V27.2612H59.7803V38.1694H65.2344ZM57.959 39.9858V38.1694H56.1426V27.2612H57.959V25.4448H67.0508V27.2612H68.8672V38.1694H67.0508V39.9858H57.959ZM73.4082 39.9858V38.1694H71.5918V25.4448H75.2295V38.1694H80.6836V25.4448H84.3165V38.1694H82.5V39.9858H73.4082ZM87.0411 39.9858V25.4448H99.7657V27.2612H90.6788V30.8989H96.1329V32.7153H90.6788V38.1694H99.7657V39.9858H87.0411ZM111.582 30.8989V27.2612H106.128V30.8989H111.582ZM102.49 39.9858V25.4448H113.398V27.2612H115.215V30.8989H113.398V32.7153H115.215V39.9858H111.582V32.7153H106.128V39.9858H102.49Z" fill="#383838"/>
</svg>
