<svg width="236" height="273" viewBox="0 0 236 273" fill="none" xmlns="http://www.w3.org/2000/svg">
<path d="M109.805 176.054C92.8447 176.054 80.6275 172.568 79.0067 172.082C77.3012 171.766 64.3942 169.142 39.9754 158.122C13.8354 146.328 3.5022 130.201 3.07584 129.521C2.30775 128.298 2.65582 126.687 3.85654 125.888C22.3408 113.564 25.9837 104.13 26.015 104.039C26.0526 103.93 26.0996 103.82 26.1529 103.713C26.1749 103.669 28.4728 99.0234 29.0309 94.8349C29.6077 90.5086 30.9182 86.9441 31.3006 85.9597C31.8148 83.5112 35.8621 66.8704 54.2711 49.0664C73.768 30.2092 94.6223 26.5537 95.5001 26.4063C95.5283 26.4001 95.5597 26.397 95.5879 26.3938C95.8449 26.3593 102.002 25.5568 109.385 25.5568C115.276 25.5568 120.254 26.0709 124.189 27.0804C135.522 29.996 140.707 32.9053 150.677 39.3353C160.963 45.9721 165.139 50.2891 172.882 59.271C182.087 69.949 186.658 86.4236 188.194 93.0104C190.103 101.199 192.774 106.19 193.176 106.914C193.708 107.651 197.179 112.363 201.844 116.758C206.951 121.564 213.224 125.859 213.287 125.903C213.882 126.311 214.29 126.944 214.412 127.656C214.535 128.367 214.362 129.098 213.936 129.681C206.39 139.97 192.081 149.661 191.476 150.068C190.652 150.614 171.312 163.267 139.905 172.054C130.421 174.71 120.295 176.054 109.812 176.054H109.808H109.805Z" fill="white"/>
<path d="M109.382 28.228C114.069 28.228 119.229 28.5635 123.521 29.667C134.494 32.4885 139.51 35.3101 149.228 41.5802C158.947 47.8502 163.023 51.9258 170.86 61.0174C178.698 70.109 183.4 84.2167 185.595 93.6219C187.789 103.027 190.924 108.357 190.924 108.357C190.924 108.357 194.686 113.686 200.016 118.702C205.346 123.718 211.782 128.107 211.782 128.107C204.424 138.139 189.984 147.858 189.984 147.858C189.984 147.858 170.547 160.712 139.184 169.49C128.728 172.415 118.627 173.39 109.805 173.39C92.1611 173.39 79.6304 169.49 79.6304 169.49C79.6304 169.49 66.7767 167.295 41.0693 155.696C15.362 144.096 5.32983 128.107 5.32983 128.107C25.0806 114.94 28.5292 104.908 28.5292 104.908C28.5292 104.908 31.0372 99.892 31.6642 95.1894C32.2912 90.4868 33.8587 86.7248 33.8587 86.7248C33.8587 86.7248 36.9938 69.482 56.1175 50.9853C75.2413 32.4885 95.9326 29.04 95.9326 29.04C95.9326 29.04 102.09 28.228 109.382 28.228ZM109.382 22.8984C101.826 22.8984 95.5 23.723 95.2366 23.7574C95.1771 23.7637 95.1175 23.7731 95.0579 23.7825C94.1456 23.933 72.4981 27.7264 52.415 47.1543C34.0186 64.9488 29.4853 81.8372 28.736 85.1949C28.2344 86.5116 26.9616 90.1545 26.3816 94.4872C25.9678 97.5846 24.347 101.347 23.7576 102.535C23.6291 102.792 23.582 102.877 23.5037 103.127C23.1996 103.836 19.2556 112.423 2.37343 123.678C-0.0280153 125.28 -0.717716 128.499 0.815321 130.945C1.2605 131.653 12.0106 148.435 38.8779 160.558C62.883 171.39 76.0407 174.23 78.3732 174.682C80.5615 175.324 92.9261 178.726 109.802 178.726C120.533 178.726 130.901 177.346 140.616 174.628C172.421 165.728 192.097 152.852 192.921 152.31C192.934 152.3 192.947 152.294 192.956 152.285C193.577 151.868 208.258 141.923 216.077 131.264C216.933 130.098 217.278 128.637 217.033 127.211C216.789 125.787 215.976 124.521 214.782 123.709C214.722 123.668 208.612 119.483 203.665 114.827C199.389 110.802 196.147 106.482 195.423 105.494C194.906 104.535 192.523 99.8763 190.78 92.418C189.2 85.6401 184.485 68.6701 174.892 57.5438C167.142 48.5525 162.643 43.9032 152.113 37.1064C142.106 30.6514 136.503 27.507 124.844 24.5099C120.693 23.4439 115.492 22.9016 109.376 22.9016L109.382 22.8984Z" fill="black"/>
<path d="M7.64635 126.524C7.64635 126.524 14.4212 132.183 32.6045 137.512C32.6045 137.512 26.9959 138.453 23.9988 137.512C23.9988 137.512 37.934 149.112 73.36 158.204C108.786 167.295 134.493 160.398 134.493 160.398C134.493 160.398 166.157 155.382 193.119 137.826L185.281 137.512C185.281 137.512 199.984 133.722 209.562 126.524C209.562 126.524 210.694 127.48 211.782 128.107C211.782 128.107 198.031 146.441 174.572 156.241C174.572 156.241 147.297 169.797 123.182 172.622C99.0674 175.446 78.5109 169.189 78.5109 169.189C78.5109 169.189 24.1399 156.009 5.32959 128.107C5.32959 128.107 6.82811 127.138 7.64635 126.524Z" fill="#B5C1DB"/>
<path d="M13.2837 122.32C13.2837 122.32 17.8703 117.762 31.6645 119.016C31.6645 119.016 39.5021 119.329 47.0262 123.718C54.5503 128.107 67.7175 127.167 67.7175 127.167C67.7175 127.167 76.1821 126.853 82.7657 122.151C89.3493 117.448 98.4409 116.194 98.4409 116.194C98.4409 116.194 113.583 114.313 123.255 116.194C123.255 116.194 131.672 117.448 137.002 122.464C142.332 127.48 154.953 127.251 154.953 127.251C154.953 127.251 166.471 127.167 175.249 122.464C184.028 117.762 195 119.016 195 119.016C195 119.016 199.894 119.511 204.813 122.869C204.813 122.869 197.508 117.448 190.925 108.356C190.925 108.356 185.282 99.8919 178.385 82.0221C171.487 64.1524 158.947 53.4932 158.947 53.4932C158.947 53.4932 144.423 37.1628 109.05 36.2379C73.674 35.31 56.1178 56.0013 56.1178 56.0013C56.1178 56.0013 41.0696 72.3035 37.9346 85.4707C34.7995 98.6379 30.4105 106.475 30.4105 106.475C30.4105 106.475 26.8741 111.67 21.7452 114.558C21.7452 114.558 16.8451 119.665 13.2837 122.317V122.32Z" fill="#FF6218"/>
<path d="M173.199 251.65C161.944 251.65 155.15 247.778 154.865 247.612L153.219 246.656L153.699 244.813C156.069 235.712 154.417 216.064 154.401 215.867L153.843 209.355L158.615 213.82C162.085 217.068 165.549 218.713 168.907 218.713C172.183 218.713 174.218 217.136 174.302 217.071L174.516 216.895L174.672 216.823C175.039 216.604 179.011 214.027 177.798 207.236C176.34 199.066 171.644 191.956 171.597 191.884L170.418 190.119L171.967 188.664C184.636 176.773 197.8 170.741 211.098 170.741C222.595 170.741 229.805 175.412 230.106 175.61L232.363 177.099L230.711 179.237C224.319 187.504 223.472 196.709 222.723 204.828C222.626 205.894 222.529 206.938 222.422 207.954C221.588 215.942 218.911 223.588 214.676 230.069C209.221 238.42 202.06 244.349 193.395 247.694C186.595 250.318 179.801 251.647 173.199 251.647V251.65Z" fill="white"/>
<path d="M211.098 173.252C221.974 173.252 228.727 177.707 228.727 177.707C221.024 187.673 220.861 198.759 219.93 207.697C219.149 215.177 216.691 222.406 212.578 228.701C208.462 235.006 202.098 241.652 192.495 245.358C185.131 248.198 178.613 249.142 173.202 249.142C162.493 249.142 156.128 245.442 156.128 245.442C158.636 235.812 156.903 215.65 156.903 215.65C161.533 219.983 165.681 221.221 168.91 221.221C173.214 221.221 175.882 219.02 175.882 219.02C175.882 219.02 181.873 215.766 180.271 206.794C178.704 198.016 173.688 190.491 173.688 190.491C188.228 176.841 201.329 173.249 211.105 173.249M211.098 168.236H211.095C204.844 168.236 198.508 169.543 192.263 172.117C184.764 175.211 177.359 180.161 170.249 186.836L167.151 189.742L169.506 193.275C169.546 193.335 173.97 200.091 175.324 207.678C175.754 210.076 175.475 212.029 174.503 213.481C174.045 214.164 173.484 214.612 173.478 214.616L172.951 214.901L172.716 215.12C172.428 215.318 171.023 216.208 168.901 216.208C166.198 216.208 163.314 214.788 160.323 211.992L150.777 203.06L151.896 216.083C152.357 221.456 153.141 236.978 151.266 244.179L150.307 247.866L153.602 249.778C153.909 249.957 161.273 254.155 173.196 254.155C180.105 254.155 187.206 252.769 194.294 250.035C203.461 246.499 211.023 240.245 216.773 231.441C221.224 224.629 224.037 216.597 224.914 208.214C225.021 207.176 225.118 206.148 225.218 205.06C225.971 196.899 226.748 188.46 232.692 180.77L236 176.493L231.489 173.515C231.163 173.299 223.341 168.233 211.098 168.229V168.236Z" fill="black"/>
<path d="M156.125 216.628C156.125 216.628 156.345 230.297 159.84 234.222C159.84 234.222 175.619 239.768 190.482 232.529C205.345 225.29 208.349 216.073 208.415 210.65C208.415 210.65 209.108 217.453 208.167 226.544C208.167 226.544 216.478 219.055 219.064 213.079C219.064 213.079 216.566 229.165 202.649 239.611C188.733 250.057 172.964 249.139 172.964 249.139C172.964 249.139 161.458 249.289 156.128 245.442C156.128 245.442 151.739 231.789 156.128 216.628H156.125Z" fill="#E1240E"/>
<path d="M175.563 193.943C175.563 193.943 182.814 194.523 190.63 189.846C190.63 189.846 185.282 194.884 185.595 202.721C185.909 210.559 195.627 209.618 195.627 209.618C195.627 209.618 200.33 210.559 207.227 203.975C207.227 203.975 212.557 215.261 200.643 225.921C188.73 236.58 174.544 236.26 174.544 236.26C174.544 236.26 165.058 237.053 157.142 233.056C157.142 233.056 157.358 225.454 156.583 215.97L175.56 193.946L175.563 193.943Z" fill="#FF6218"/>
<path d="M135.277 270.184C134.28 270.184 133.377 270.084 132.594 269.889C129.048 269.002 126.998 266.663 124.866 263.923C122.524 260.911 120.035 250.979 119.42 248.414C119.219 248.016 118.558 246.941 117.269 246.941C117.047 246.941 116.809 246.969 116.555 247.022C115.078 247.339 113.166 247.499 110.877 247.499C107.137 247.499 103.601 247.079 103.453 247.063L103.303 247.044L103.156 247.01C103.156 247.01 102.359 246.831 101.356 246.831C98.6724 246.831 98.293 247.966 98.152 248.395C96.6189 252.991 94.7567 259.506 94.7379 259.572L94.6909 259.738L94.6219 259.898C90.9884 268.316 85.6714 270.081 81.8529 270.081C78.235 270.081 75.3947 268.497 74.5796 267.986C72.8459 267.127 67.438 263.096 64.165 245.533C60.7133 227.027 63.9267 209.436 64.1587 208.217C64.2716 207.524 65.5005 200.022 67.0774 195.297C67.5226 193.965 67.7546 193.024 67.8769 192.385C67.5697 192.714 67.2436 193.137 67.0148 193.507C65.7576 197.034 64.4315 201.489 64.4315 202.724C64.4315 205.643 63.5693 207.972 63.469 208.226L63.3154 208.624L63.0457 208.957C57.5876 215.628 52.1922 217.318 50.8065 217.66C50.1638 217.907 48.4709 218.478 46.6025 218.478C42.9815 218.478 40.4609 216.327 39.859 212.725C38.8056 206.408 41.7745 199.047 41.903 198.736L41.95 198.624L42.0065 198.517C50.653 181.864 64.1368 171.684 64.7073 171.258L65.8234 170.424L109.423 185.008L151.999 170.888L153.138 171.831C165.609 182.174 172.28 193.532 173.123 195.018C175.848 198.83 176.876 203.194 176.92 203.379C177.227 204.724 178.61 211.599 175.779 215.559C174.675 217.101 173.076 218.026 171.155 218.227C170.619 218.283 170.076 218.312 169.54 218.312C163.831 218.312 160.078 215.083 159.383 214.434C158.737 213.894 155.291 210.957 153.921 208.903C153.492 208.261 153.15 207.574 152.88 206.913C155.194 217.108 154.749 233.369 154.727 234.15V234.197C154.699 234.752 154.037 247.894 150.479 257.274C146.679 267.287 140.958 269.331 140.318 269.532L140.246 269.554L140.171 269.573C140.071 269.598 137.71 270.181 135.293 270.181L135.277 270.184ZM149.476 195.131C149.485 195.799 149.714 197.921 151.708 203C151.793 203.22 151.877 203.445 151.959 203.677C151.934 203.521 151.918 203.414 151.912 203.367L151.89 203.201V203.035C151.89 202.517 151.724 201.11 151.604 200.276C151.303 198.106 150.523 195.63 149.94 194.927C149.93 194.927 149.921 194.927 149.912 194.927C149.736 194.927 149.576 195.037 149.473 195.131H149.476Z" fill="#F7A76A"/>
<path d="M66.2909 173.39L109.407 187.811L151.423 173.876C164.277 184.535 170.86 196.448 170.86 196.448C173.368 199.896 174.309 203.972 174.309 203.972C174.309 203.972 176.817 214.945 170.86 215.572C170.403 215.619 169.957 215.641 169.525 215.641C164.346 215.641 161.142 212.437 161.142 212.437C161.142 212.437 157.38 209.302 156.126 207.421C154.872 205.54 154.558 203.032 154.558 203.032C154.558 202.091 154.245 199.896 154.245 199.896C154.245 199.896 153.304 192.999 150.796 192.372C150.483 192.294 150.188 192.26 149.915 192.26C147.996 192.26 147.034 193.94 147.034 193.94C147.034 193.94 145.78 195.194 149.228 203.972C152.677 212.75 152.05 234.068 152.05 234.068C152.05 234.068 151.423 247.236 147.974 256.327C144.526 265.419 139.51 266.986 139.51 266.986C139.51 266.986 137.394 267.516 135.278 267.516C134.572 267.516 133.867 267.457 133.24 267.3C130.732 266.673 129.164 265.105 126.97 262.284C124.775 259.462 121.954 247.549 121.954 247.549C121.954 247.549 120.693 244.273 117.27 244.273C116.875 244.273 116.452 244.317 115.997 244.414C114.533 244.728 112.69 244.831 110.877 244.831C107.257 244.831 103.77 244.414 103.77 244.414C103.77 244.414 102.717 244.163 101.353 244.163C99.3061 244.163 96.5598 244.728 95.6193 247.549C94.0517 252.252 92.1707 258.835 92.1707 258.835C89.2112 265.685 85.167 267.41 81.847 267.41C78.5269 267.41 75.8559 265.638 75.8559 265.638C75.8559 265.638 70.2254 263.538 66.7769 245.041C63.3283 226.544 66.7769 208.675 66.7769 208.675C66.7769 208.675 68.0309 200.837 69.5984 196.134C71.1659 191.432 70.5389 190.491 70.5389 190.491C70.5389 190.491 70.0216 189.197 68.5137 189.197C68.3632 189.197 68.2033 189.209 68.0309 189.237C66.1499 189.551 64.5823 192.372 64.5823 192.372C64.5823 192.372 61.7608 200.21 61.7608 202.718C61.7608 205.226 60.977 207.264 60.977 207.264C55.334 214.161 50.0044 215.101 50.0044 215.101C50.0044 215.101 48.3584 215.807 46.5934 215.807C44.8284 215.807 42.9505 215.101 42.4803 212.28C41.5398 206.637 44.3613 199.74 44.3613 199.74C52.8259 183.437 66.2909 173.387 66.2909 173.387M65.3378 167.452L63.1026 169.12C62.5132 169.559 48.556 180.099 39.6305 197.288L39.5207 197.501L39.4299 197.724C39.0819 198.574 36.0691 206.223 37.2259 213.158C38.0473 218.08 41.6369 221.14 46.5965 221.14C48.7503 221.14 50.669 220.547 51.5938 220.205C53.0484 219.829 56.5065 218.653 60.5036 215.318C59.7857 222.582 59.3186 234.119 61.5382 246.022C64.8645 263.867 70.4762 268.918 73.3259 270.344C74.5172 271.056 77.7808 272.742 81.847 272.742C85.6278 272.742 92.6347 271.209 97.0645 260.951L97.2025 260.635L97.2965 260.302C97.3153 260.24 99.0772 254.076 100.57 249.562C100.742 249.527 101.005 249.496 101.353 249.496C101.949 249.496 102.444 249.587 102.563 249.609L102.886 249.694L103.137 249.709C103.294 249.728 106.981 250.164 110.877 250.164C113.326 250.164 115.323 249.998 116.981 249.656C117.27 250.819 117.828 252.995 118.527 255.365C120.518 262.13 121.838 264.365 122.766 265.56C125.117 268.582 127.587 271.385 131.951 272.476C132.945 272.724 134.067 272.852 135.281 272.852C137.974 272.852 140.522 272.234 140.805 272.162L140.955 272.125L141.102 272.078C142.353 271.686 148.802 269.181 152.959 258.221C156.665 248.449 157.348 234.896 157.376 234.326V234.279L157.38 234.231C157.42 232.799 157.627 224.293 156.862 215.794C157.157 216.051 157.411 216.268 157.605 216.431C158.696 217.437 162.998 220.98 169.528 220.98C170.155 220.98 170.791 220.945 171.421 220.879C174.086 220.6 176.397 219.262 177.936 217.111C179.598 214.788 180.337 211.565 180.134 207.533C180.008 205.032 179.56 203.016 179.51 202.793C179.388 202.267 178.281 197.721 175.362 193.582C174.199 191.564 167.327 180.146 154.831 169.781L152.555 167.894L149.749 168.825L109.42 182.199L67.9869 168.339L65.3441 167.455L65.3378 167.452Z" fill="black"/>
<path d="M78.5333 263.384C78.5333 263.384 72.8902 258.995 71.0092 245.828C71.0092 245.828 68.1877 233.915 68.8147 219.494C69.4417 205.073 71.166 195.824 71.166 195.824C71.166 195.824 71.3509 193.037 70.633 190.824C69.912 188.614 68.0309 189.241 68.0309 189.241C68.0309 189.241 66.4634 189.241 64.5824 192.376C62.7013 195.511 59.5663 201.467 59.5663 201.467C59.5663 201.467 53.6097 198.332 49.8477 193.63C49.8477 193.63 58.3123 182.03 66.4634 176.387C66.4634 176.387 70.8524 183.284 80.8846 190.495C80.8846 190.495 79.0036 196.451 79.0036 202.094C79.0036 202.094 79.0036 209.305 78.3766 212.44C77.7495 215.575 80.151 220.456 80.151 220.456C80.151 220.456 82.4521 225.607 87.7817 229.369C93.1113 233.131 98.4408 234.385 98.4408 234.385C98.4408 234.385 105.338 235.953 111.922 235.639C118.505 235.326 124.462 232.818 124.462 232.818C124.462 232.818 131.986 229.683 135.748 223.413C139.51 217.143 139.51 212.753 139.51 212.753C139.51 212.753 139.823 207.737 139.196 204.602C138.569 201.467 138.569 196.765 138.569 196.765C138.569 196.765 138.256 192.689 137.002 190.181C137.002 190.181 145.153 185.165 151.11 176.7C151.11 176.7 161.142 184.225 167.412 193.316C167.412 193.316 163.023 198.332 157.693 201.467C157.693 201.467 152.991 193.003 150.796 192.376C148.602 191.749 147.219 193.674 147.219 193.674C147.219 193.674 146.579 194.624 146.962 196.636C146.962 196.636 151.733 229.683 147.031 244.417C147.031 244.417 145.777 257.585 139.193 263.228C139.193 263.228 131.042 259.779 127.907 246.612C127.907 246.612 125.713 239.715 130.415 238.147C130.415 238.147 124.145 240.969 113.486 241.909C102.827 242.85 87.7785 238.461 87.7785 238.461C87.7785 238.461 89.0326 240.028 90.9136 240.969C90.9136 240.969 91.8541 245.044 87.1515 253.823C82.449 262.601 78.5302 263.384 78.5302 263.384H78.5333Z" fill="#FF6218"/>
<path d="M135.905 187.83C135.905 187.83 139.347 191.968 139.664 205.731C139.98 219.494 135.262 224.66 135.262 224.66C135.262 224.66 129.306 233.335 117.95 234.802C106.595 236.269 101.404 234.802 101.404 234.802C101.404 234.802 90.4874 233.949 82.5526 224.293C74.6178 214.637 79.7405 190.219 82.1952 186.438L135.908 187.83H135.905Z" fill="white"/>
<path d="M109.571 200.436C108.84 200.097 91.4562 191.987 74.1038 176.867L64.2158 168.252L76.6808 172.324C76.803 172.365 89.5031 176.403 111.636 176.669C111.655 176.669 111.862 176.669 112.232 176.669C115.223 176.669 130.723 176.472 142.087 172.556L153.123 168.756L144.83 176.97C144.373 177.425 133.369 188.219 111.997 200.329L110.809 201.004L109.567 200.43L109.571 200.436Z" fill="#B5C1DB"/>
<path d="M75.8558 174.857C75.8558 174.857 88.7157 179.061 111.608 179.334C111.608 179.334 111.827 179.337 112.238 179.337C115.549 179.337 131.243 179.114 142.961 175.08C142.961 175.08 131.998 185.939 110.689 198.016C110.689 198.016 93.1204 189.902 75.8558 174.857ZM52.5718 161.643L72.3571 178.876C89.9917 194.244 107.711 202.511 108.457 202.856L110.94 204.004L113.32 202.655C134.998 190.369 146.244 179.334 146.714 178.87L163.298 162.442L141.228 170.045C130.264 173.819 115.157 174.011 112.241 174.011C111.902 174.011 111.711 174.011 111.692 174.011H111.686H111.677C90.0356 173.75 77.6271 169.832 77.5048 169.794L52.5749 161.646L52.5718 161.643Z" fill="black"/>
<path d="M74.7363 264.864C74.7363 264.864 87.938 263.071 90.9163 240.969C90.9163 240.969 88.4083 239.401 87.4678 238.147C87.4678 238.147 93.4244 240.028 98.4404 240.655C103.456 241.282 110.598 242.144 113.924 241.869C117.251 241.596 122.894 240.655 130.418 238.147C130.418 238.147 127.596 240.655 127.596 242.536C127.596 244.417 128.637 249.239 128.637 249.239C128.637 249.239 131.719 261.174 142.67 264.864C142.67 264.864 140.632 268.034 134.898 267.51C129.164 266.986 126.969 262.284 126.969 262.284C126.969 262.284 123.521 256.327 122.894 252.252C122.267 248.176 120.699 245.668 120.699 245.668C120.699 245.668 120.072 244.414 116.937 244.728C113.802 245.041 106.905 244.728 106.905 244.728C106.905 244.728 103.51 244.126 100.635 244.414C97.4999 244.728 95.9324 247.236 95.9324 247.236C95.9324 247.236 92.7911 259.607 89.3457 263.61C85.9002 267.613 82.5113 267.385 82.5113 267.385C82.5113 267.385 77.9936 267.751 74.7363 264.861V264.864Z" fill="#E1240E"/>
<path d="M169.698 217.691C169.547 217.691 169.425 217.688 169.344 217.685C169.3 217.685 169.243 217.685 169.177 217.685C168.008 217.685 163.873 217.418 159.826 213.995C155.703 210.505 154.565 208.781 154.377 208.471L153.371 206.797L155.001 205.721C159.989 202.436 167.538 196.874 168.71 194.805L170.253 192.081L172.121 194.595C172.338 194.887 177.398 201.781 176.855 208.305C176.827 208.894 176.62 212.449 175.548 214.722C174.658 216.613 172.526 217.694 169.698 217.694V217.691Z" fill="#A35531"/>
<path d="M170.487 195.809C170.487 195.809 175.334 202.329 174.82 208.17C174.82 208.17 174.663 211.813 173.704 213.851C172.926 215.497 170.578 215.657 169.697 215.657C169.487 215.657 169.362 215.647 169.362 215.647C169.362 215.647 169.299 215.65 169.18 215.65C168.337 215.65 164.716 215.462 161.145 212.443C157.069 208.995 156.129 207.427 156.129 207.427C156.129 207.427 168.55 199.245 170.49 195.812M170.023 188.35L166.945 193.793C166.885 193.887 165.888 195.395 160.079 199.68C156.894 202.032 153.912 203.997 153.884 204.019L150.624 206.17L152.633 209.521C152.934 210.026 154.251 211.948 158.511 215.553C163.085 219.425 167.832 219.726 169.18 219.726C169.233 219.726 169.28 219.726 169.324 219.726C169.427 219.729 169.553 219.732 169.7 219.732C173.346 219.732 176.152 218.224 177.394 215.591C178.601 213.036 178.848 209.358 178.892 208.433C179.469 201.289 174.35 194.169 173.76 193.379L170.023 188.353V188.35Z" fill="black"/>
<path d="M47.4836 217.691C44.6589 217.691 42.5271 216.607 41.6336 214.719C40.5614 212.446 40.3545 208.891 40.3262 208.302C39.7807 201.778 44.8439 194.884 45.0602 194.592L46.9287 192.078L48.4711 194.802C49.6436 196.875 57.1928 202.433 62.1806 205.719L63.8109 206.794L62.8045 208.468C62.6195 208.778 61.4815 210.503 57.3558 213.992C53.3085 217.416 49.1765 217.682 48.004 217.682C48.004 217.682 47.8848 217.682 47.8378 217.682C47.7531 217.685 47.6341 217.688 47.4836 217.688V217.691Z" fill="#A35531"/>
<path d="M46.6967 195.808C48.6373 199.241 61.0583 207.424 61.0583 207.424C61.0583 207.424 60.1178 208.991 56.0423 212.44C52.4714 215.462 48.8504 215.647 48.0071 215.647C47.888 215.647 47.8253 215.644 47.8253 215.644C47.8253 215.644 47.6999 215.653 47.4898 215.653C46.6089 215.653 44.2607 215.493 43.4832 213.847C42.5208 211.807 42.3672 208.167 42.3672 208.167C41.8561 202.326 46.6998 195.805 46.6998 195.805M47.1544 188.341L43.4237 193.379C42.8343 194.169 37.7148 201.289 38.2947 208.433C38.3386 209.358 38.5894 213.032 39.7933 215.591C41.0348 218.224 43.8375 219.732 47.4867 219.732C47.6341 219.732 47.7594 219.732 47.8629 219.726C47.9068 219.726 47.9569 219.726 48.0071 219.726C49.352 219.726 54.0985 219.425 58.6757 215.553C62.9362 211.948 64.2529 210.026 64.5539 209.521L66.5634 206.17L63.2998 204.019C63.2716 204 60.2902 202.032 57.105 199.68C51.2237 195.341 50.2769 193.849 50.2393 193.789L47.1575 188.338L47.1544 188.341Z" fill="black"/>
<path d="M91.4526 177.876C91.4526 177.876 100.607 184.999 111.219 189.532C111.219 189.532 124.634 183.409 131.669 177.707C131.669 177.707 104.128 179.748 91.4526 177.876Z" fill="#FFFFFD"/>
<path d="M183.108 74.3166C183.071 74.1849 181.541 68.8302 176.167 61.3594C171.157 54.3965 161.693 44.1167 145.033 34.6928L142.03 32.9936L144.434 30.5169C144.648 30.2943 149.795 25.0306 158.846 19.0552C167.188 13.5469 180.572 6.37706 196.953 3.50849L199.451 3.06958L200.009 5.54627C200.11 5.98518 202.426 16.4311 202.132 30.2378C201.737 48.6844 196.761 64.2719 187.742 75.3104L184.447 79.3452L183.105 74.3166H183.108Z" fill="#FD6519"/>
<path d="M197.413 6.13236C197.413 6.13236 206.809 47.7594 185.682 73.6235C185.682 73.6235 179.719 51.2519 146.347 32.3727C146.347 32.3727 166.571 11.5309 197.413 6.13236ZM201.495 0.00646973L196.495 0.881159C179.66 3.8281 165.931 11.1798 157.379 16.8291C148.09 22.9644 142.748 28.4288 142.522 28.6608L137.716 33.6141L143.723 37.0125C159.805 46.1104 168.963 55.9764 173.813 62.6509C178.888 69.6358 180.434 74.6769 180.534 75.0155L183.117 85.2797L189.805 76.9969C195.093 70.523 199.05 62.6478 201.561 53.5937C203.53 46.496 204.618 38.6584 204.796 30.2973C205.097 16.1676 202.712 5.4144 202.608 4.96295L201.492 0.0127459L201.495 0.00646973Z" fill="black"/>
<path d="M185.995 16.757C185.995 16.757 188.792 15.1425 192.861 14.7632C192.861 14.7632 193.642 14.5939 193.987 16.4686C194.332 18.3434 196.977 26.7672 196.977 26.7672C196.977 26.7672 198.554 15.2993 198.222 10.6782C198.222 10.6782 201.156 28.1749 198.097 44.7311C195.034 61.2904 189.519 68.1874 185.682 73.6236C185.682 73.6236 183.929 68.5542 182.45 66.2907C182.45 66.2907 189.638 57.2994 191.591 42.5334C193.545 27.7642 190.917 20.5975 190.917 20.5975C190.917 20.5975 190.588 19.6632 189.648 19.6789L185.995 16.7602V16.757Z" fill="#E1240E"/>
<path d="M147.883 30.8992L160.358 23.8673L156.439 27.7861C156.439 27.7861 183.513 10.1295 197.721 7.67163C197.721 7.67163 169.427 10.4995 147.883 30.8992Z" fill="white"/>
<path d="M161.263 42.3076C161.263 42.3076 178.384 23.397 188.729 19.9484C188.729 19.9484 190.532 18.3715 191.513 22.9205C192.494 27.4694 192.447 37.9436 191.686 41.7997C190.924 45.6558 190.648 48.9413 188.748 54.1957C186.848 59.45 185.575 61.215 182.45 66.2906C182.45 66.2906 180.619 62.8672 178.406 59.9046C176.192 56.9419 169.223 48.051 161.263 42.3076Z" fill="#B5C1DB"/>
<path d="M169.919 40.9532C169.919 40.9532 174.936 33.1156 188.103 25.905C188.103 25.905 190.651 43.7403 178.403 59.9046C178.403 59.9046 178.698 49.1044 177.757 43.4613C176.817 37.8182 169.919 40.9532 169.919 40.9532Z" fill="#FEFFFD"/>
<path fill-rule="evenodd" clip-rule="evenodd" d="M189.324 17.9855C190.02 19.2821 189.534 20.8976 188.237 21.5939C178.842 26.6391 171.77 32.318 167.056 36.7251C164.7 38.9275 162.937 40.8084 161.772 42.1276C161.189 42.787 160.756 43.3056 160.474 43.6532C160.332 43.827 160.229 43.958 160.163 44.0424C160.13 44.0846 160.106 44.1152 160.092 44.1337L160.077 44.1532C160.077 44.1536 160.076 44.154 160.076 44.1544C159.19 45.3281 157.521 45.5625 156.346 44.6776C155.17 43.7922 154.935 42.1214 155.821 40.9458L157.949 42.549C155.821 40.9458 155.821 40.9452 155.822 40.9445L155.823 40.9429L155.826 40.9388L155.835 40.927C155.842 40.9175 155.852 40.905 155.864 40.8894C155.887 40.8582 155.921 40.8148 155.964 40.7596C156.05 40.6492 156.175 40.4918 156.338 40.2911C156.665 39.8899 157.144 39.3156 157.778 38.5989C159.044 37.1658 160.924 35.1615 163.416 32.8318C168.398 28.1746 175.84 22.2022 185.716 16.8986C187.012 16.2023 188.628 16.6889 189.324 17.9855Z" fill="black"/>
<path fill-rule="evenodd" clip-rule="evenodd" d="M60.1343 21.1657C60.8305 22.4623 60.3439 24.0778 59.0473 24.7741C49.6524 29.8193 42.5802 35.4982 37.866 39.9052C35.5101 42.1076 33.7472 43.9885 32.5818 45.3077C31.9992 45.9672 31.5663 46.4858 31.2837 46.8334C31.1424 47.0072 31.0387 47.1382 30.9727 47.2226C30.9397 47.2648 30.9161 47.2954 30.9019 47.3138L30.887 47.3334C30.8867 47.3338 30.8864 47.3341 30.8861 47.3345C30.0003 48.5082 28.3309 48.7426 27.156 47.8578C25.9804 46.9724 25.7452 45.3016 26.6306 44.126L28.7592 45.7292C26.6306 44.126 26.6311 44.1254 26.6316 44.1247L26.6328 44.1231L26.6359 44.1189L26.6449 44.1071C26.652 44.0977 26.6616 44.0852 26.6736 44.0696C26.6975 44.0384 26.7311 43.9949 26.7742 43.9397C26.8605 43.8294 26.9853 43.6719 27.1484 43.4713C27.4746 43.0701 27.9545 42.4958 28.5876 41.7791C29.8537 40.346 31.7343 38.3416 34.2264 36.0119C39.2081 31.3548 46.6496 25.3823 56.5258 20.0787C57.8224 19.3824 59.438 19.8691 60.1343 21.1657Z" fill="black"/>
<path d="M29.5608 75.31C20.5413 64.2715 15.5659 48.6841 15.1709 30.2375C14.8762 16.4307 17.193 5.98481 17.2933 5.54591L17.8514 3.06921L20.35 3.50813C36.7337 6.37669 50.1173 13.5465 58.4565 19.0548C67.5073 25.0302 72.6519 30.297 72.8683 30.5165L75.2728 32.9932L72.2695 34.6924C40.245 52.8098 34.2539 74.0999 34.1975 74.3099L32.8557 79.3448L29.5608 75.31Z" fill="#FD6519"/>
<path d="M19.8919 6.13216C50.7344 11.5307 70.9586 32.3725 70.9586 32.3725C37.5892 51.2517 31.6232 73.6234 31.6232 73.6234C10.493 47.7592 19.8919 6.13216 19.8919 6.13216ZM15.8132 0.00627621L14.6939 4.95652C14.5936 5.40797 12.2047 16.1611 12.5057 30.2908C12.6844 38.652 13.7723 46.4927 15.7411 53.5873C18.2523 62.6413 22.2055 70.5165 27.4975 76.9904L34.2033 85.2011L36.7678 75.0091C36.8682 74.6705 38.4137 69.6293 43.4894 62.6444C48.3393 55.9699 57.4967 46.104 73.5795 37.0061L79.5862 33.6077L74.7802 28.6543C74.5577 28.4254 69.2124 22.9579 59.9232 16.8227C51.3708 11.1733 37.6425 3.82163 20.8073 0.874689L15.8069 0L15.8132 0.00627621Z" fill="black"/>
<path d="M31.3099 16.7569C31.3099 16.7569 28.5134 15.1424 24.4442 14.763C24.4442 14.763 23.6635 14.5938 23.3186 16.4685C22.9738 18.3433 20.3278 26.7671 20.3278 26.7671C20.3278 26.7671 18.7509 15.2992 19.0832 10.6781C19.0832 10.6781 16.1488 28.1748 19.2086 44.7309C22.2716 61.2902 27.7861 68.1873 31.6234 73.6235C31.6234 73.6235 33.3759 68.5541 34.8556 66.2906C34.8556 66.2906 27.667 57.2993 25.7139 42.5333C23.7607 27.7641 26.3879 20.5973 26.3879 20.5973C26.3879 20.5973 26.7171 19.6631 27.6576 19.6788L31.3099 16.7601V16.7569Z" fill="#E1240E"/>
<path d="M69.4227 30.899L56.9484 23.867L60.8672 27.7858C60.8672 27.7858 33.793 10.1293 19.585 7.67139C19.585 7.67139 47.8787 10.4992 69.4227 30.899Z" fill="white"/>
<path d="M56.0458 42.3073C56.0458 42.3073 38.9253 23.3967 28.5796 19.9482C28.5796 19.9482 26.777 18.3713 25.7957 22.9202C24.8176 27.4723 24.8615 37.9433 25.6233 41.7994C26.3851 45.6555 26.661 48.9411 28.5608 54.1954C30.4606 59.4498 31.7335 61.2148 34.8591 66.2904C34.8591 66.2904 36.69 62.8669 38.9033 59.9043C41.1166 56.9417 48.0859 48.0507 56.0458 42.3073Z" fill="#B5C1DB"/>
<path d="M47.3868 40.9531C47.3868 40.9531 42.3707 33.1155 29.2035 25.9049C29.2035 25.9049 26.6547 43.7402 38.9033 59.9044C38.9033 59.9044 38.6087 49.1042 39.5492 43.4612C40.4897 37.8181 47.3868 40.9531 47.3868 40.9531Z" fill="#FEFFFD"/>
<path fill-rule="evenodd" clip-rule="evenodd" d="M27.9326 17.872C27.2363 19.1686 27.723 20.7841 29.0196 21.4804C38.4145 26.5256 45.4867 32.2045 50.2009 36.6115C52.5568 38.8139 54.3197 40.6948 55.4851 42.014C56.0677 42.6735 56.5006 43.1921 56.7832 43.5397C56.9245 43.7135 57.0282 43.8445 57.0942 43.9289C57.1272 43.9711 57.1508 44.0017 57.165 44.0201L57.1799 44.0397C57.1802 44.0401 57.1805 44.0404 57.1808 44.0408C58.0666 45.2145 59.736 45.4489 60.9109 44.5641C62.0865 43.6787 62.3217 42.0079 61.4363 40.8323L59.3077 42.4355C61.4363 40.8323 61.4358 40.8317 61.4353 40.831L61.4341 40.8294L61.431 40.8252L61.422 40.8134C61.4149 40.804 61.4053 40.7915 61.3933 40.7759C61.3694 40.7447 61.3358 40.7012 61.2927 40.646C61.2064 40.5357 61.0816 40.3782 60.9185 40.1776C60.5923 39.7764 60.1124 39.2021 59.4792 38.4854C58.2132 37.0523 56.3326 35.0479 53.8405 32.7182C48.8587 28.0611 41.4173 22.0886 31.5411 16.785C30.2445 16.0887 28.6289 16.5754 27.9326 17.872Z" fill="black"/>
<path d="M80.3482 133.355C80.3482 133.355 79.2446 128.581 81.0818 126.01C82.9189 123.439 85.6935 124.173 86.6935 126.01C87.6936 127.847 93.5718 134.826 93.5718 134.826C93.5718 134.826 100.917 142.541 111.57 141.437C122.223 140.334 125.527 137.029 125.527 137.029C125.527 137.029 131.772 132.255 133.243 128.947C133.243 128.947 129.935 130.051 131.772 128.214C133.609 126.377 134.71 125.643 134.71 125.643C134.71 125.643 136.547 123.806 137.281 124.909C138.014 126.013 136.547 127.113 136.547 127.113C136.547 127.113 135.813 127.48 135.077 131.888C134.34 136.296 130.302 146.215 130.302 146.215C130.302 146.215 126.261 154.297 119.649 157.602C113.037 160.909 107.159 159.072 107.159 159.072C107.159 159.072 97.2398 156.134 93.9355 146.582C93.9355 146.582 86.9569 130.421 86.5901 128.95C86.2233 127.48 85.1197 126.013 83.6525 127.48C82.1822 128.95 80.3451 133.358 80.3451 133.358L80.3482 133.355Z" fill="#150102"/>
<path d="M118.919 144.745C118.919 144.745 122.226 143.274 125.164 144.378C128.101 145.481 124.06 150.256 124.06 150.256C124.06 150.256 119.653 155.398 111.937 156.134C104.222 156.868 103.488 152.827 103.488 152.827C103.488 152.827 101.651 150.623 118.916 144.745H118.919Z" fill="#D12519"/>
<path d="M108.278 156.097C108.278 156.097 107.162 155.031 110.103 152.457C113.043 149.883 119.285 147.316 119.285 147.316C119.285 147.316 124.649 145.303 123.207 148.325C123.035 148.686 122.891 149.062 122.74 149.435C121.978 151.341 118.875 156.73 108.278 156.094V156.097Z" fill="#F9746F"/>
<path d="M120.06 81.1129C120.06 81.1129 119.64 84.8969 125.104 82.7933C130.569 80.6897 136.876 75.2253 136.876 75.2253L150.749 65.1336C150.749 65.1336 155.373 60.9295 163.781 62.1898C163.781 62.1898 161.678 65.1336 155.793 70.1779C155.793 70.1779 167.145 77.7459 162.941 95.4025C158.737 113.059 138.977 109.698 138.977 109.698C138.977 109.698 122.161 106.754 127.205 88.6778C127.205 88.6778 118.377 88.2577 120.057 81.1098L120.06 81.1129Z" fill="black"/>
<path d="M153.483 72.0748C153.483 72.0748 150.539 74.5985 146.335 76.699C146.335 76.699 149.699 78.3794 149.699 91.835C149.699 91.835 148.018 91.1735 146.335 92.346C144.651 93.5185 145.915 95.619 145.915 95.619C145.915 95.619 146.755 96.8793 149.279 97.2994C149.279 97.2994 148.018 103.607 138.347 105.708C138.347 105.708 145.915 109.912 156.426 101.503C166.938 93.0953 158.95 77.9593 158.95 77.9593C158.95 77.9593 157.69 75.4356 153.486 72.0748H153.483Z" fill="white"/>
<path d="M132.043 94.7787C133.204 94.7787 134.146 93.8369 134.146 92.6751C134.146 91.5133 133.204 90.5715 132.043 90.5715C130.881 90.5715 129.939 91.5133 129.939 92.6751C129.939 93.8369 130.881 94.7787 132.043 94.7787Z" fill="white"/>
<path d="M97.5124 81.1129C97.5124 81.1129 97.9324 84.8969 92.468 82.7933C87.0037 80.6897 80.6959 75.2253 80.6959 75.2253L66.8234 65.1336C66.8234 65.1336 62.1992 60.9295 53.791 62.1898C53.791 62.1898 55.8946 65.1336 61.7791 70.1779C61.7791 70.1779 50.4271 77.7459 54.6312 95.4025C58.8353 113.059 78.5955 109.698 78.5955 109.698C78.5955 109.698 95.4119 106.754 90.3676 88.6778C90.3676 88.6778 99.1959 88.2577 97.5155 81.1098L97.5124 81.1129Z" fill="black"/>
<path d="M64.0893 72.0748C64.0893 72.0748 67.0331 74.5985 71.2372 76.699C71.2372 76.699 67.8733 78.3794 67.8733 91.835C67.8733 91.835 69.5537 91.1735 71.2372 92.346C72.9176 93.5185 71.6572 95.619 71.6572 95.619C71.6572 95.619 70.8171 96.8793 68.2933 97.2994C68.2933 97.2994 69.5537 103.607 79.2253 105.708C79.2253 105.708 71.6573 109.912 61.1455 101.503C50.6337 93.0953 58.6218 77.9593 58.6218 77.9593C58.6218 77.9593 59.882 75.4356 64.0861 72.0748H64.0893Z" fill="white"/>
<path d="M85.5294 94.7787C86.6912 94.7787 87.6331 93.8369 87.6331 92.6751C87.6331 91.5133 86.6912 90.5715 85.5294 90.5715C84.3676 90.5715 83.4258 91.5133 83.4258 92.6751C83.4258 93.8369 84.3676 94.7787 85.5294 94.7787Z" fill="white"/>
<path d="M109.1 123.091C114.814 123.091 119.446 119.783 119.446 115.702C119.446 111.621 114.814 108.313 109.1 108.313C103.386 108.313 98.7544 111.621 98.7544 115.702C98.7544 119.783 103.386 123.091 109.1 123.091Z" fill="black"/>
<path d="M105.257 114.962C106.358 114.962 107.25 113.97 107.25 112.746C107.25 111.522 106.358 110.529 105.257 110.529C104.155 110.529 103.263 111.522 103.263 112.746C103.263 113.97 104.155 114.962 105.257 114.962Z" fill="white"/>
<path d="M78.3767 205.856C78.3767 205.856 79.6308 219.964 94.9925 226.861C110.354 233.758 123.452 226.861 123.452 226.861C123.452 226.861 137.943 220.277 139.51 203.035C139.51 203.035 142.297 215.249 135.262 224.66C128.227 234.072 117.038 235.454 117.038 235.454C117.038 235.454 105.04 239.085 92.1709 232.507C78.0632 225.297 78.0632 213.697 78.0632 213.697C78.0632 213.697 77.7497 211.189 78.3767 205.859V205.856Z" fill="#B5C1DB"/>
<path d="M228.727 177.707C228.727 177.707 216.949 180.149 214.127 199.273C214.127 199.273 212.901 210.402 208.656 215.653C208.656 215.653 208.797 223.413 208.17 226.548C208.17 226.548 214.914 221.253 219.068 213.083C219.068 213.083 220.886 203 221.269 195.805C222.592 188.61 224.786 183.281 228.73 177.704L228.727 177.707Z" fill="#B5C1DB"/>
<path d="M57.7198 205.142C57.7198 205.142 53.3245 215.578 43.123 212.91C43.123 212.91 43.4271 216.042 48.3617 215.65C53.2963 215.258 56.5912 212.437 61.0586 207.421C61.0586 207.421 59.9488 206.621 57.7198 205.138V205.142Z" fill="#963524"/>
<path d="M159.261 205.229C159.261 205.229 163.716 215.578 173.917 212.913C173.917 212.913 173.613 216.045 168.678 215.653C163.744 215.261 160.449 212.44 155.981 207.424C155.981 207.424 157.032 206.709 159.261 205.229Z" fill="#963524"/>
</svg>
