<svg width="221" height="285" viewBox="0 0 221 285" fill="none" xmlns="http://www.w3.org/2000/svg">
<path d="M46.6246 237.561C47.5066 237.656 50.5424 237.845 52.5104 236.264L55.1016 234.176L52.9113 231.665C52.8712 231.621 47.9257 225.735 47.656 216.19L47.656 216.052C47.6487 216.015 47.3644 211.256 49.5584 206.46L50.4586 204.484L48.9643 202.917C48.7019 202.64 46.3076 200.22 42.9365 199.856C40.7826 199.623 36.7081 200.118 33.6432 206.026C28.643 215.673 35.7059 229.511 36.2635 230.571C37.3058 232.656 40.5749 236.413 46.3622 237.528L46.4934 237.554L46.6246 237.568L46.621 237.568L46.6246 237.561Z" fill="white"/>
<path d="M42.595 203.038C40.7109 202.834 38.4586 203.697 36.487 207.498C32.11 215.946 39.1182 229.11 39.1182 229.11C39.1182 229.11 41.1482 233.261 46.972 234.383C46.972 234.383 49.421 234.646 50.5034 233.771C50.5034 233.771 44.7707 227.211 44.4573 216.278C44.4573 216.278 44.0564 210.786 46.6476 205.119C46.6476 205.119 44.8983 203.282 42.5914 203.034L42.595 203.038ZM43.2765 196.671C47.6899 197.145 50.7185 200.111 51.2797 200.702L54.2718 203.843L52.4714 207.786C50.7148 211.631 50.8314 215.494 50.846 215.84L50.8642 216.004L50.8533 216.099C51.0902 224.168 54.9642 229.114 55.3469 229.58L59.917 234.587L54.5232 238.757C51.6806 241.045 47.8175 240.914 46.2905 240.75L46.0244 240.721L45.762 240.674C37.5839 239.099 34.1436 233.407 33.4657 232.124C32.5874 230.473 25.0508 215.666 30.8017 204.557C34.8834 196.674 40.8894 196.419 43.2802 196.674L43.2765 196.674L43.2765 196.671Z" fill="#1D1D1B"/>
<path d="M21.9972 271.585C25.6343 271.975 29.1548 271.039 31.4909 270.175C31.5419 270.16 31.7387 270.088 31.7533 270.08C33.397 269.45 34.5887 268.819 35.088 268.542C35.4415 268.393 36.0465 268.12 36.7863 267.675C36.8774 267.624 36.9539 267.573 37.0195 267.533C39.669 265.889 44.3375 261.837 45.5693 253.422C45.5912 253.28 45.6094 253.148 45.6204 253.024L45.6896 252.387L45.7042 252.263C45.7042 252.263 45.7151 252.161 45.7297 251.968C45.8718 250.459 45.8937 248.819 45.7989 247.102C45.7917 246.978 45.7807 246.858 45.7589 246.738C45.7005 246.406 44.2829 238.545 38.1639 232.838C34.4866 229.405 32.6608 219.193 32.3 215.822C32.2927 215.713 32.2599 215.141 32.2854 214.24C32.3292 212.681 32.5915 209.546 33.8343 205.953C34.4101 204.287 33.5318 202.462 31.8627 201.882C31.6476 201.809 26.5819 200.053 21.1371 199.466C15.6923 198.879 11.6762 199.663 9.04855 201.776C2.67444 206.911 3.10448 221.402 3.2539 224.252C3.2539 224.277 4.69345 243.359 4.69345 243.385C4.87932 245.203 6.7234 261.326 14.1763 268.127C16.3338 270.099 18.9614 271.261 21.9826 271.585L21.9935 271.585L21.9972 271.585Z" fill="#FF5527"/>
<path d="M20.8045 202.648C17.1382 202.254 13.3334 202.444 11.0703 204.266C5.64735 208.635 6.4637 224.081 6.4637 224.081L7.89231 243.057C7.89231 243.057 9.58333 259.585 16.3474 265.762C18.1623 267.416 20.2542 268.178 22.3388 268.404C25.3127 268.725 28.2719 267.956 30.4222 267.154C30.4695 267.139 30.5096 267.125 30.5497 267.11L30.5534 267.11C30.5534 267.11 30.5825 267.099 30.6008 267.096C32.4776 266.378 33.6912 265.656 33.6912 265.656C33.6912 265.656 34.2925 265.445 35.1891 264.902C35.2146 264.891 35.2365 264.873 35.262 264.854C37.4705 263.488 41.3445 260.124 42.3905 252.963C42.4014 252.85 42.4233 252.744 42.4342 252.646L42.4962 252.051L42.5107 251.928L42.5362 251.702C42.6674 250.357 42.6893 248.888 42.5982 247.288C42.5982 247.288 41.3773 240.222 35.9726 235.181C30.5716 230.141 29.1065 216.114 29.1065 216.114C29.1065 216.114 29.0409 215.385 29.081 214.135C29.1393 212.116 29.4783 208.737 30.8048 204.904C30.8048 204.904 25.9286 203.202 20.7936 202.648M21.4897 196.281C27.2916 196.904 32.7036 198.781 32.9295 198.857C36.2605 200.024 38.0208 203.664 36.8655 206.999C35.7612 210.184 35.5317 212.954 35.4879 214.321C35.4661 214.977 35.4879 215.41 35.4879 215.549C36.0273 220.447 37.9953 228.312 40.3459 230.502C47.1246 236.829 48.75 245.262 48.9103 246.199C48.9541 246.439 48.9832 246.683 48.9942 246.927C49.0998 248.797 49.078 250.586 48.9176 252.248C48.8958 252.485 48.8848 252.613 48.8848 252.613L48.8703 252.737C48.8447 252.97 48.8192 253.196 48.7901 253.425C48.7755 253.571 48.7536 253.724 48.7245 253.885L48.7245 253.903C47.3141 263.51 41.8985 268.244 38.7278 270.234C38.6148 270.306 38.5055 270.372 38.3925 270.441C37.6126 270.908 36.9493 271.228 36.4719 271.433C35.8086 271.793 34.5513 272.435 32.8858 273.073C32.7983 273.109 32.7109 273.138 32.6234 273.167C32.6015 273.175 32.576 273.182 32.5578 273.189C28.7312 274.607 25.0576 275.135 21.6427 274.771C17.9291 274.37 14.6928 272.934 12.0214 270.492C3.69029 262.89 1.70773 245.652 1.51093 243.709C1.50729 243.655 1.49998 243.593 1.49269 243.538L0.0640846 224.562C0.0604402 224.518 0.0604518 224.467 0.0531629 224.416C0.0422296 224.237 -0.172792 219.988 0.348361 215.126C1.17565 207.418 3.3623 202.239 7.03588 199.28C10.3887 196.58 15.1083 195.596 21.4714 196.281L21.4751 196.281L21.4897 196.281Z" fill="#1D1D1B"/>
<path d="M6.46409 224.081L7.8927 243.057C7.8927 243.057 9.58372 259.585 16.3478 265.762C20.7466 269.778 26.7599 268.521 30.4262 267.15C29.3074 267.555 21.3406 269.971 16.0526 259.289C16.0526 259.289 13.64 254.078 14.5365 245.75L12.5867 216.839L17.4812 213.089L17.4848 213.089L29.0887 214.128C29.147 212.109 29.4859 208.73 30.8125 204.896C30.8125 204.896 16.4899 199.889 11.067 204.258C5.64409 208.628 6.46044 224.073 6.46044 224.073L6.46409 224.081Z" fill="#B83111"/>
<path d="M57.5073 232.004C57.5073 232.004 90.7554 236.075 100.074 195.465C100.074 195.465 85.1029 191.876 75.1901 187.342C75.1901 187.342 70.9662 208.188 50.838 206.519C50.838 206.519 43.1701 222.536 57.511 232.004L57.5073 232.004Z" fill="white"/>
<path fill-rule="evenodd" clip-rule="evenodd" d="M77.4972 192.331C81.8012 194.033 86.4625 195.52 90.3037 196.65C92.3118 197.24 94.1231 197.74 95.5772 198.13C90.8358 214.821 81.6883 222.208 73.8382 225.572C69.556 227.405 65.5216 228.098 62.5587 228.327C61.0827 228.44 59.8837 228.44 59.0782 228.411C58.9726 228.407 58.8742 228.404 58.7794 228.4C53.5533 224.603 52.3871 219.839 52.4818 215.805C52.5329 213.666 52.952 211.734 53.3711 210.313C63.3787 210.218 69.771 205.014 73.5612 199.708C75.4417 197.073 76.6918 194.416 77.4935 192.335L77.4972 192.331ZM50.8345 206.519L47.5035 204.923L48.6042 202.627L51.1407 202.838C59.6103 203.541 64.5485 199.624 67.5552 195.411C69.0968 193.25 70.1172 191.012 70.7477 189.295C71.0611 188.443 71.2725 187.739 71.4037 187.262C71.4693 187.025 71.513 186.843 71.5385 186.73C71.5531 186.675 71.5604 186.635 71.564 186.613L71.564 186.599L72.4861 182.05L76.7173 183.985C81.4295 186.139 87.4501 188.111 92.3847 189.561C94.8337 190.279 96.9766 190.863 98.5073 191.263C99.2726 191.464 99.8812 191.617 100.3 191.723C100.508 191.774 100.668 191.814 100.774 191.839C100.829 191.854 100.869 191.861 100.894 191.868L100.931 191.876L104.488 192.728L103.668 196.293C98.7478 217.733 87.3189 227.832 76.7428 232.358C71.5495 234.581 66.6878 235.412 63.1272 235.689C61.3414 235.827 59.8691 235.827 58.8195 235.791C58.2947 235.773 57.8756 235.747 57.5767 235.722C57.4273 235.711 57.3071 235.7 57.2196 235.689C57.1759 235.685 57.1394 235.682 57.1102 235.678L57.0738 235.678L57.0592 235.671L57.0519 235.671C57.0519 235.671 57.0483 235.671 57.4966 232.004L57.0483 235.671L56.1846 235.565L55.4593 235.088C46.997 229.497 44.9415 221.778 45.0873 215.623C45.1602 212.612 45.7469 209.978 46.3082 208.108C46.5888 207.168 46.8694 206.402 47.0881 205.859C47.1974 205.586 47.2885 205.371 47.3578 205.211C47.3942 205.13 47.4197 205.068 47.4452 205.021C47.4562 204.996 47.4671 204.977 47.4744 204.959L47.4853 204.937L47.4853 204.93L47.4926 204.93C47.4926 204.93 48.6042 205.461 50.8273 206.523L50.8345 206.519Z" fill="#1D1D1B"/>
<path d="M18.825 213.975C18.825 213.975 20.1479 233.932 20.4796 235.452C20.4796 235.452 29.1205 233.407 36.5879 237.679C44.0554 241.95 43.0604 250.452 43.0604 250.452C43.0604 250.452 42.3534 262.195 31.0958 265.631C31.0958 265.631 31.3546 249.501 15.0713 244.282L12.8591 218.782C12.8591 218.782 12.3525 214.271 15.064 212.084C17.7754 209.897 18.5444 211.964 18.825 213.975Z" fill="#FFFFF3"/>
<path d="M172.239 238.266C172.37 237.387 172.68 234.362 171.178 232.332L169.196 229.657L166.601 231.746C166.557 231.782 160.474 236.487 150.926 236.37L150.788 236.37C150.751 236.37 145.984 236.462 141.279 234.075L139.344 233.094L137.719 234.526C137.431 234.778 134.916 237.07 134.417 240.423C134.096 242.566 134.424 246.659 140.204 249.957C149.64 255.343 163.751 248.853 164.833 248.335C166.958 247.377 170.846 244.264 172.195 238.524L172.224 238.393L172.242 238.262L172.239 238.266Z" fill="white"/>
<path d="M137.58 240.89C137.3 242.767 138.072 245.052 141.79 247.173C150.052 251.889 163.492 245.423 163.492 245.423C163.492 245.423 167.724 243.565 169.079 237.788C169.079 237.788 169.44 235.354 168.613 234.235C168.613 234.235 161.823 239.698 150.89 239.563C150.89 239.563 145.387 239.738 139.829 236.921C139.829 236.921 137.923 238.594 137.58 240.89ZM131.246 239.946C131.899 235.558 134.986 232.65 135.598 232.114L138.856 229.253L142.723 231.214C146.491 233.123 150.358 233.167 150.704 233.163L150.872 233.153L150.963 233.167C159.035 233.258 164.134 229.592 164.615 229.224L169.804 224.861L173.751 230.419C175.923 233.353 175.636 237.209 175.41 238.729L175.37 238.991L175.311 239.25C173.409 247.359 167.578 250.562 166.269 251.189C164.586 251.998 149.483 258.93 138.619 252.73C130.908 248.332 130.897 242.318 131.25 239.942L131.243 239.942L131.246 239.946Z" fill="#1D1D1B"/>
<path d="M205.231 264.254C205.771 260.635 204.976 257.082 204.207 254.709C204.196 254.658 204.131 254.458 204.123 254.443C203.558 252.774 202.979 251.56 202.72 251.047C202.585 250.689 202.338 250.073 201.922 249.315C201.875 249.224 201.827 249.14 201.787 249.075C200.253 246.363 196.393 241.531 188.037 239.957C187.895 239.931 187.767 239.906 187.643 239.887L187.009 239.793L186.889 239.774C186.889 239.774 186.787 239.76 186.597 239.734C185.096 239.53 183.459 239.443 181.736 239.468C181.612 239.468 181.491 239.475 181.367 239.494C181.032 239.537 173.12 240.638 167.172 246.517C163.594 250.052 153.316 251.462 149.931 251.684C149.821 251.684 149.245 251.695 148.349 251.633C146.793 251.528 143.673 251.138 140.131 249.749C138.487 249.108 136.632 249.909 135.983 251.553C135.903 251.764 133.939 256.757 133.133 262.173C132.328 267.589 132.944 271.634 134.952 274.345C139.825 280.92 154.319 281.084 157.172 281.047C157.198 281.047 176.32 280.388 176.345 280.384C178.171 280.271 194.356 279.087 201.452 271.918C203.507 269.844 204.779 267.264 205.228 264.258L205.228 264.247L205.231 264.254Z" fill="#FF5527"/>
<path d="M136.304 262.643C135.761 266.291 135.798 270.1 137.525 272.436C141.673 278.034 157.136 277.844 157.136 277.844L176.156 277.188C176.156 277.188 192.738 276.171 199.185 269.662C200.913 267.917 201.758 265.858 202.068 263.784C202.509 260.828 201.864 257.836 201.146 255.653C201.131 255.606 201.12 255.566 201.106 255.522C201.106 255.5 201.095 255.486 201.091 255.471C200.45 253.569 199.776 252.322 199.776 252.322C199.776 252.322 199.586 251.71 199.083 250.795C199.072 250.77 199.054 250.748 199.04 250.719C197.764 248.455 194.561 244.45 187.45 243.113C187.337 243.094 187.232 243.069 187.137 243.054L186.546 242.967L186.426 242.949L186.204 242.916C184.866 242.73 183.401 242.646 181.798 242.672C181.798 242.672 174.687 243.605 169.432 248.798C164.177 253.991 150.102 254.884 150.102 254.884C150.102 254.884 149.37 254.921 148.123 254.83C146.108 254.687 142.748 254.214 138.968 252.73C138.968 252.73 137.07 257.53 136.308 262.643M129.97 261.699C130.83 255.927 132.922 250.595 133.01 250.376C134.311 247.092 138.021 245.485 141.305 246.775C144.442 248.011 147.201 248.35 148.564 248.448C149.22 248.496 149.654 248.496 149.792 248.496C154.709 248.157 162.646 246.509 164.928 244.25C171.524 237.734 180.016 236.451 180.96 236.33C181.204 236.298 181.444 236.279 181.688 236.276C183.562 236.247 185.347 236.341 187.002 236.567C187.235 236.596 187.363 236.615 187.363 236.615L187.483 236.633C187.716 236.669 187.942 236.702 188.168 236.739C188.314 236.76 188.463 236.786 188.624 236.822L188.642 236.822C198.183 238.623 202.691 244.224 204.554 247.475C204.623 247.588 204.685 247.705 204.747 247.818C205.18 248.616 205.472 249.29 205.661 249.775C205.993 250.453 206.583 251.735 207.156 253.423C207.188 253.514 207.214 253.601 207.239 253.689C207.247 253.711 207.254 253.736 207.258 253.758C208.519 257.639 208.898 261.331 208.395 264.728C207.844 268.42 206.277 271.598 203.73 274.167C195.796 282.185 178.489 283.46 176.539 283.58C176.484 283.58 176.422 283.588 176.368 283.591L157.347 284.247C157.304 284.247 157.253 284.247 157.202 284.247C157.023 284.247 152.766 284.295 147.93 283.573C140.262 282.432 135.175 280.038 132.368 276.248C129.806 272.789 129.016 268.03 129.956 261.703L129.97 261.699Z" fill="#1D1D1B"/>
<path d="M157.136 277.844L176.156 277.188C176.156 277.188 192.738 276.171 199.185 269.662C203.377 265.431 202.367 259.371 201.146 255.653C201.507 256.787 203.599 264.848 192.709 269.695C192.709 269.695 187.403 271.893 179.123 270.661L150.157 271.434L146.611 266.39L148.12 254.833C146.104 254.691 142.744 254.217 138.965 252.734C138.965 252.734 133.378 266.842 137.525 272.436C141.673 278.034 157.136 277.844 157.136 277.844Z" fill="#B83111"/>
<path d="M166.983 227.69C166.983 227.69 172.402 194.635 132.204 183.672C132.204 183.672 128.01 198.483 123.075 208.207C123.075 208.207 143.732 213.272 141.246 233.32C141.246 233.32 156.939 241.63 166.983 227.69Z" fill="white"/>
<path fill-rule="evenodd" clip-rule="evenodd" d="M128.155 206.104C130.029 201.872 131.705 197.277 132.992 193.483C133.662 191.5 134.234 189.711 134.683 188.275C151.166 193.691 158.178 203.13 161.218 211.111C162.876 215.466 163.404 219.522 163.514 222.493C163.568 223.972 163.517 225.168 163.459 225.973C163.452 226.079 163.444 226.177 163.433 226.268C159.425 231.338 154.618 232.307 150.59 232.048C148.455 231.91 146.545 231.414 145.138 230.937C145.452 220.933 140.51 214.333 135.364 210.331C132.809 208.345 130.204 206.986 128.159 206.104L128.155 206.104ZM141.25 233.32L139.522 236.586L137.274 235.394L137.587 232.868C138.633 224.435 134.919 219.344 130.834 216.166C128.738 214.537 126.545 213.429 124.854 212.725C124.015 212.376 123.319 212.139 122.845 211.986C122.609 211.909 122.43 211.858 122.321 211.829C122.266 211.814 122.226 211.803 122.208 211.796L122.193 211.796L122.193 211.793L117.685 210.688L119.791 206.537C122.135 201.916 124.351 195.983 126.002 191.11C126.822 188.694 127.488 186.573 127.948 185.061C128.177 184.306 128.359 183.701 128.48 183.289C128.542 183.082 128.585 182.925 128.615 182.819C128.629 182.768 128.64 182.728 128.647 182.703L128.658 182.666L129.657 179.146L133.185 180.108C154.406 185.895 164.031 197.725 168.127 208.476C170.139 213.757 170.77 218.648 170.901 222.216C170.966 224.005 170.908 225.477 170.828 226.523C170.788 227.044 170.744 227.464 170.708 227.762C170.689 227.912 170.675 228.032 170.66 228.12C170.653 228.163 170.649 228.2 170.646 228.229L170.638 228.265L170.638 228.28L170.638 228.287C170.638 228.287 169.424 228.089 166.994 227.693L170.638 228.291L170.496 229.147L169.99 229.851C164.06 238.08 156.261 239.818 150.12 239.421C147.114 239.228 144.508 238.532 142.66 237.894C141.731 237.573 140.98 237.263 140.444 237.027C140.178 236.906 139.963 236.808 139.81 236.731C139.734 236.695 139.672 236.662 139.624 236.637C139.603 236.626 139.581 236.615 139.566 236.607L139.544 236.596L139.537 236.596L139.537 236.589C139.537 236.589 140.112 235.501 141.261 233.324L141.25 233.32Z" fill="#1D1D1B"/>
<path d="M148.987 265.675C148.987 265.675 168.981 265.165 170.515 264.896C170.515 264.896 168.824 256.178 173.394 248.893C177.964 241.608 186.419 242.945 186.419 242.945C186.419 242.945 198.125 244.13 201.099 255.518C201.099 255.518 184.991 254.604 179.116 270.661L153.547 271.834C153.547 271.834 149.017 272.155 146.943 269.356C144.869 266.557 146.965 265.872 148.984 265.675L148.987 265.675Z" fill="#FFFFF3"/>
<path d="M114.642 213.498C119.846 213.498 124.682 211.238 127.995 207.419C130.739 209.095 133.888 209.996 137.164 209.996C138.709 209.996 140.255 209.791 141.756 209.383C146.782 208.042 150.864 204.605 153.065 200.05C154.679 200.524 156.359 200.768 158.05 200.768C161.137 200.768 164.188 199.948 166.873 198.399C171.385 195.786 174.439 191.405 175.387 186.438C175.518 186.438 175.649 186.442 175.777 186.442C180.493 186.442 184.928 184.601 188.27 181.259C191.951 177.582 193.769 172.556 193.405 167.501C198.033 166.364 202.101 163.38 204.524 159.181C207.137 154.677 207.6 149.349 205.927 144.56C210.107 142.267 213.26 138.332 214.51 133.634C215.847 128.626 214.918 123.382 212.094 119.191C215.592 115.915 217.535 111.421 217.535 106.388C217.535 101.355 215.271 96.3331 211.441 93.024C213.908 88.9532 214.677 83.9712 213.427 79.2699C212.086 74.237 208.642 70.1479 204.072 67.9467C205.406 63.3729 204.856 58.3582 202.425 54.1453C199.837 49.6772 195.428 46.5976 190.457 45.6392C190.555 40.8795 188.729 36.1782 185.303 32.7379C181.961 29.396 177.523 27.5592 172.799 27.5592C172.38 27.5592 171.965 27.5737 171.549 27.6029C170.42 22.9708 167.435 18.9 163.218 16.4655C160.547 14.9166 157.5 14.1003 154.417 14.1003C152.423 14.1003 150.459 14.4356 148.597 15.0806C146.308 10.9078 142.376 7.7517 137.682 6.48344C136.176 6.0862 134.653 5.8894 133.126 5.8894C129.584 5.8894 126.132 6.96451 123.224 8.91792C119.948 5.41562 115.451 3.47314 110.418 3.47314C105.385 3.47314 100.363 5.73269 97.0609 9.55569C94.3203 7.87561 91.1678 6.97544 87.8878 6.97544C86.3426 6.97544 84.7974 7.17953 83.2886 7.5877C78.2629 8.9325 74.1775 12.3692 71.9763 16.9211C70.3654 16.4473 68.689 16.2031 66.998 16.2031C63.9148 16.2031 60.8681 17.0231 58.1858 18.572C53.674 21.1668 50.6199 25.5438 49.6724 30.5221C49.5303 30.5221 49.3881 30.5184 49.246 30.5184C44.541 30.5184 40.1094 32.3552 36.7711 35.6972C33.0939 39.389 31.279 44.4073 31.6471 49.4476C27.0186 50.581 22.9515 53.5621 20.5206 57.7751C17.9185 62.2869 17.4666 67.6078 19.1321 72.3893C14.9556 74.6743 11.8032 78.6103 10.5385 83.3152C9.19739 88.3555 10.134 93.6144 12.9767 97.7982C9.53997 101.093 7.51002 105.707 7.51002 110.568C7.51002 110.743 7.5246 110.918 7.55011 111.089C7.69224 116.115 9.9372 120.751 13.6509 123.951C11.1763 128.025 10.4073 133.007 11.6537 137.701C12.9985 142.734 16.4389 146.819 20.998 149.024C19.6642 153.613 20.2181 158.635 22.6599 162.837C25.2438 167.301 29.6536 170.377 34.6209 171.335C34.5225 176.102 36.3557 180.804 39.796 184.244C43.1161 187.579 47.5513 189.419 52.2782 189.419C52.6973 189.419 53.12 189.405 53.5355 189.375C54.6725 194.007 57.6573 198.071 61.8593 200.498C64.5307 202.043 67.5775 202.863 70.6643 202.863C72.6541 202.863 74.6185 202.532 76.4771 201.887C78.7586 206.06 82.6872 209.216 87.3849 210.48C88.8901 210.885 90.4353 211.089 91.9805 211.089C95.5156 211.089 98.956 210.014 101.846 208.064C105.119 211.566 109.612 213.509 114.645 213.509L114.642 213.498ZM151.581 179.047C139.504 185.745 126.362 189.146 112.524 189.146C98.6863 189.146 84.9905 185.578 73.0405 178.825C72.891 178.741 72.3298 178.424 72.1877 178.344L71.9872 178.223C71.8196 178.121 71.6519 178.023 71.4879 177.917C71.4478 177.892 71.4114 177.87 71.3713 177.844C59.7747 170.971 50.0113 161.208 43.1379 149.611C43.1161 149.575 43.0942 149.534 43.0687 149.498C42.9047 149.243 42.7698 149.039 42.6678 148.853C42.584 148.7 42.3179 148.233 42.2778 148.161C42.2487 148.106 42.2195 148.051 42.1904 147.997C35.4373 136.017 31.8657 122.365 31.8657 108.513C31.8657 94.6603 35.4336 80.9792 42.1867 69.0145C42.2742 68.8578 42.5913 68.3002 42.6678 68.1654L42.7881 67.9686C42.8938 67.7973 42.9921 67.6296 43.1015 67.462C43.127 67.4219 43.1525 67.3818 43.1744 67.3417C50.0077 55.7707 59.7711 46.0109 71.4041 39.1156C71.4442 39.0938 71.4806 39.0683 71.5207 39.0427C71.7613 38.886 71.9726 38.7512 72.1585 38.6455C72.184 38.6309 72.2095 38.6164 72.235 38.6018C72.4646 38.4669 72.6797 38.3394 72.8692 38.2446C72.9238 38.2191 72.9749 38.19 73.0259 38.1608C84.9796 31.3895 98.6462 27.8106 112.539 27.8106C126.431 27.8106 140.065 31.3895 152.055 38.1644C152.106 38.1936 152.157 38.2191 152.208 38.2483C152.391 38.3394 152.602 38.4633 152.821 38.5945L153.039 38.7257C153.214 38.8314 153.385 38.9334 153.557 39.0464C153.597 39.0719 153.633 39.0938 153.673 39.1193C165.259 45.9781 175.022 55.7415 181.907 67.349C181.929 67.3855 181.954 67.4255 181.976 67.462C182.14 67.7135 182.271 67.9175 182.373 68.1071C182.388 68.1326 182.402 68.1544 182.417 68.1799C182.552 68.4095 182.69 68.6537 182.811 68.887C182.825 68.9161 182.84 68.9416 182.858 68.9708C189.629 80.9427 193.212 94.6093 193.212 108.498C193.212 122.387 189.684 135.831 183.007 147.745C182.931 147.876 182.858 148.011 182.781 148.146C182.709 148.281 182.636 148.416 182.555 148.543C182.483 148.66 182.417 148.78 182.359 148.9C182.227 149.126 182.104 149.338 181.987 149.516C181.91 149.626 181.841 149.739 181.772 149.855L181.765 149.87C181.728 149.924 181.695 149.975 181.659 150.034C174.888 161.306 165.35 170.843 154.074 177.615C153.998 177.662 153.921 177.713 153.845 177.764L153.823 177.779C153.739 177.823 153.659 177.874 153.582 177.925C153.404 178.045 153.181 178.172 152.944 178.311C152.846 178.358 152.748 178.409 152.653 178.468C152.42 178.606 152.234 178.715 152.059 178.803C151.895 178.872 151.735 178.956 151.578 179.051L151.581 179.047Z" fill="#FFBA48"/>
<path d="M110.421 6.9317C104.94 6.9317 100.202 10.004 97.8407 14.5303C95.2167 11.9428 91.6525 10.434 87.8914 10.434C86.6706 10.434 85.4315 10.5943 84.1923 10.926C78.9371 12.3327 75.136 16.5384 74.0208 21.5167C71.8815 20.2995 69.4579 19.6617 67.0016 19.6617C64.5926 19.6617 62.1509 20.2776 59.9168 21.5677C55.1936 24.2828 52.6243 29.3303 52.8357 34.4398C51.6586 34.1337 50.4522 33.9806 49.2459 33.9806C45.6234 33.9806 41.9972 35.3655 39.2201 38.1426C35.3716 42.0057 34.1908 47.5379 35.7105 52.4032C30.827 52.436 26.1221 54.9908 23.5163 59.5026C20.783 64.2403 21.0891 69.8819 23.8224 74.2005C19.1321 75.4761 15.2361 79.1497 13.8768 84.2081C12.47 89.4962 14.2157 94.8644 17.9695 98.323C13.782 100.779 10.9685 105.342 10.9685 110.565L11.0013 110.579C11.0013 116.06 14.0882 120.798 18.6182 123.16C15.1888 126.637 13.6545 131.761 14.9956 136.808C16.4024 142.078 20.6226 145.865 25.5863 146.98C23.1919 151.215 23.0316 156.583 25.6519 161.095C28.2795 165.636 33.0501 168.19 37.9446 168.19C38.1377 168.19 38.3309 168.187 38.524 168.179C37.3104 172.884 38.5386 178.092 42.245 181.795C45.0111 184.572 48.6446 185.953 52.2781 185.953C53.6994 185.953 55.1208 185.742 56.4911 185.319C56.5384 190.184 59.0786 194.893 63.5904 197.495C65.8208 198.785 68.2553 199.398 70.6642 199.398C73.3575 199.398 76.0106 198.632 78.292 197.189C79.5712 201.879 83.2412 205.775 88.285 207.135C89.5205 207.466 90.7596 207.627 91.9805 207.627C95.9821 207.627 99.7613 205.921 102.404 203.046C104.86 207.233 109.197 210.047 114.645 210.047C120.094 210.047 124.85 206.974 127.226 202.462C129.85 205.039 133.414 206.544 137.168 206.544C138.385 206.544 139.628 206.384 140.86 206.052C146.133 204.646 149.916 200.44 151.031 195.462C153.17 196.679 155.598 197.317 158.058 197.317C160.518 197.317 162.916 196.701 165.15 195.414C169.873 192.681 172.442 187.637 172.231 182.542C173.397 182.841 174.592 182.99 175.784 182.99C179.425 182.99 183.055 181.598 185.828 178.821C189.691 174.958 190.857 169.426 189.352 164.56C194.221 164.513 198.926 161.973 201.528 157.461C204.276 152.723 203.97 147.082 201.237 142.763C205.927 141.469 209.823 137.799 211.164 132.756C212.571 127.486 210.825 122.117 207.09 118.641C211.263 116.184 214.076 111.866 214.076 106.399C214.076 100.932 210.989 96.1801 206.477 93.8185C209.907 90.3417 211.427 85.2176 210.085 80.1701C208.679 74.882 204.458 71.1137 199.477 69.9985C201.885 65.7637 202.031 60.3954 199.429 55.8836C196.801 51.3427 192.031 48.7879 187.136 48.7879C186.943 48.7879 186.75 48.7916 186.557 48.7989C187.771 44.0939 186.542 38.886 182.854 35.1833C180.077 32.4062 176.44 31.0214 172.807 31.025C171.385 31.025 169.964 31.2364 168.594 31.6591C168.561 26.7938 166.006 22.0706 161.494 19.4685C159.264 18.1784 156.829 17.5661 154.42 17.5661C151.727 17.5661 149.074 18.3315 146.793 19.7747C145.499 15.0843 141.811 11.1884 136.781 9.82902C135.561 9.50831 134.336 9.3516 133.13 9.3516C129.124 9.3516 125.334 11.0463 122.663 13.9181C120.207 9.7452 115.903 6.9317 110.421 6.9317ZM112.524 192.604C97.5492 192.604 83.4963 188.708 71.3385 181.835C71.0469 181.675 70.7408 181.496 70.4492 181.332C70.1577 181.154 69.8843 180.993 69.6074 180.815C57.4969 173.635 47.3399 163.482 40.1604 151.371C39.9818 151.098 39.8032 150.821 39.6429 150.529C39.4825 150.238 39.3039 149.932 39.1399 149.64L39.1727 149.688C32.3176 137.53 28.4035 123.477 28.4035 108.506C28.4035 93.5342 32.2994 79.4813 39.1727 67.3053C39.3331 67.0137 39.5117 66.7076 39.6757 66.416C39.8543 66.1245 40.0146 65.8512 40.1932 65.5742C47.3581 53.4455 57.5297 43.3104 69.6402 36.1308C69.9135 35.9523 70.1905 35.7737 70.482 35.6133C70.7553 35.453 71.0323 35.289 71.3239 35.1432C83.4853 28.2552 97.5674 24.3411 112.542 24.3411C127.517 24.3411 141.57 28.2552 153.761 35.1432C154.052 35.289 154.326 35.4493 154.603 35.6133C154.894 35.7919 155.168 35.9523 155.445 36.1308C167.573 43.3104 177.712 53.4637 184.892 65.5742C185.07 65.8475 185.249 66.1245 185.409 66.416C185.569 66.6894 185.733 66.9809 185.879 67.2579C192.767 79.4339 196.681 93.6144 196.681 108.491C196.681 123.367 192.818 137.337 186.025 149.447C185.846 149.753 185.686 150.077 185.493 150.384C185.478 150.431 185.445 150.497 185.413 150.544C185.234 150.85 185.056 151.16 184.862 151.448C184.782 151.561 184.717 151.692 184.636 151.805C177.555 163.591 167.657 173.489 155.867 180.57C155.754 180.651 155.641 180.731 155.51 180.796C155.219 180.99 154.912 181.168 154.606 181.347C154.559 181.379 154.493 181.427 154.446 181.427C154.122 181.62 153.815 181.799 153.477 181.959C153.429 181.974 153.396 181.992 153.349 182.025C141.253 188.752 127.506 192.601 112.535 192.601M110.421 0.00728881C114.277 0.00728882 118.009 1.00951 121.205 2.90096C122.076 3.41847 122.911 4.00158 123.702 4.64664C126.61 3.20345 129.835 2.42719 133.13 2.42719C134.952 2.42719 136.774 2.66408 138.549 3.13056C138.564 3.13056 138.574 3.13785 138.589 3.1415C143.279 4.40976 147.336 7.25605 150.138 11.0718C151.538 10.7839 152.974 10.6344 154.42 10.6344C158.112 10.6344 161.76 11.6148 164.96 13.4662C169.177 15.897 172.362 19.7054 174.082 24.1297C179.246 24.4359 184.061 26.5934 187.749 30.2815C191.182 33.7292 193.274 38.23 193.795 42.9423C198.624 44.5531 202.804 47.8841 205.421 52.4069C207.855 56.6271 208.715 61.5106 207.997 66.1974C212.254 68.9926 215.417 73.2821 216.773 78.3807C217.735 81.9996 217.728 85.808 216.747 89.3978C216.47 90.4146 216.117 91.4059 215.694 92.3644C219.065 96.1582 221 101.115 221 106.388C221 110.237 219.998 113.965 218.107 117.161C217.589 118.032 217.01 118.867 216.365 119.657C218.621 124.195 219.207 129.465 217.855 134.53C216.605 139.228 213.763 143.288 209.94 146.098C210.971 151.087 210.169 156.357 207.516 160.927C205.096 165.122 201.299 168.303 196.878 170.027C196.576 175.104 194.447 179.984 190.719 183.708C187.275 187.152 182.854 189.262 178.087 189.78C176.487 194.598 173.171 198.752 168.608 201.395C165.39 203.25 161.742 204.23 158.05 204.23C156.961 204.23 155.878 204.146 154.807 203.979C152.019 208.213 147.74 211.362 142.656 212.725C140.86 213.21 139.008 213.458 137.16 213.458C134.187 213.458 131.3 212.842 128.651 211.668C124.853 215.028 119.904 216.96 114.642 216.96C109.689 216.96 105.064 215.295 101.383 212.317C98.4858 213.76 95.2678 214.54 91.9768 214.54C90.1291 214.54 88.2778 214.296 86.4811 213.811C81.7834 212.547 77.7271 209.7 74.9282 205.881C73.5324 206.169 72.1038 206.315 70.6606 206.315C66.9688 206.315 63.3244 205.334 60.1209 203.483C55.9189 201.059 52.7337 197.258 51.0098 192.838C45.8348 192.535 41.0168 190.374 37.336 186.675C33.9029 183.242 31.8074 178.741 31.2826 174.025C26.4537 172.414 22.2736 169.083 19.6569 164.56C17.2151 160.358 16.3513 155.468 17.0693 150.766C12.8199 147.971 9.66018 143.685 8.30081 138.59C7.05077 133.893 7.49175 128.958 9.39778 124.618C6.18704 121.01 4.27007 116.356 4.08785 111.366C4.05505 111.1 4.04047 110.831 4.04047 110.561C4.04047 105.699 5.73879 101.038 8.69806 97.339C6.42394 92.8017 5.82624 87.5173 7.18197 82.4224C8.44658 77.7065 11.2929 73.6429 15.1122 70.8404C14.0845 65.8621 14.879 60.6032 17.5139 56.0367C19.9484 51.8201 23.7495 48.6349 28.1666 46.9111C28.4654 41.849 30.5901 36.98 34.3074 33.2481C37.766 29.7895 42.194 27.6758 46.9682 27.1656C48.5681 22.3403 51.8918 18.1857 56.4619 15.5581C59.6617 13.7103 63.3098 12.73 66.9979 12.73C68.084 12.73 69.1664 12.8138 70.2342 12.9814C73.0258 8.74662 77.308 5.5942 82.3956 4.23118C84.1851 3.75012 86.0364 3.50229 87.8842 3.50229C90.858 3.50229 93.748 4.1182 96.3975 5.29535C100.188 1.93519 105.141 -4.04886e-08 110.414 -3.86457e-08L110.421 0.00728881ZM151.049 41.561C150.893 41.4699 150.736 41.3752 150.663 41.3387C150.557 41.2877 150.455 41.233 150.353 41.1747C138.881 34.6949 125.808 31.2692 112.539 31.2692C99.2694 31.2692 86.1676 34.6949 74.7314 41.1711C74.6257 41.2294 74.5237 41.2877 74.4144 41.3387C74.3342 41.3788 74.152 41.4845 73.9916 41.5793C73.9442 41.6084 73.8896 41.6376 73.8422 41.6667C73.7547 41.7141 73.5652 41.838 73.4012 41.9437C73.3247 41.9911 73.2445 42.0421 73.168 42.0895C62.0342 48.6895 52.6899 58.0302 46.1518 69.0983C46.1045 69.1785 46.0534 69.2623 46.0024 69.3425C45.9113 69.481 45.8275 69.6195 45.7436 69.7653L45.6598 69.9037C45.5906 70.0277 45.5213 70.1516 45.4484 70.2755C45.3719 70.4067 45.299 70.5415 45.2261 70.6691C45.2189 70.6837 45.2116 70.6982 45.2043 70.7128C38.7427 82.16 35.3279 95.2289 35.3279 108.509C35.3279 121.789 38.7427 134.833 45.2043 146.291C45.248 146.367 45.2881 146.444 45.3282 146.524C45.3573 146.575 45.3865 146.626 45.4156 146.677C45.5104 146.845 45.6052 147.009 45.6926 147.169C45.7437 147.26 45.8639 147.446 45.9732 147.614C46.0243 147.69 46.0716 147.767 46.1154 147.843C52.6936 158.941 62.0379 168.285 73.1352 174.863C73.2117 174.911 73.2882 174.958 73.3648 175.005C73.5032 175.096 73.6417 175.18 73.7875 175.264L73.9333 175.352C74.0572 175.421 74.1811 175.49 74.3087 175.563C74.4399 175.639 74.5747 175.712 74.7023 175.785C74.7168 175.793 74.7314 175.804 74.746 175.811C86.1749 182.269 99.2402 185.684 112.528 185.684C125.815 185.684 138.316 182.44 149.858 176.048C150.091 175.909 150.328 175.789 150.568 175.68C150.674 175.621 150.816 175.537 150.878 175.501C151.02 175.414 151.166 175.333 151.315 175.26C151.461 175.177 151.592 175.096 151.669 175.045C151.767 174.98 151.869 174.914 151.971 174.856C152.077 174.783 152.186 174.714 152.299 174.648C163.087 168.168 172.216 159.039 178.7 148.252C178.747 148.171 178.794 148.095 178.845 148.018C178.907 147.916 178.998 147.767 179.119 147.592C179.17 147.512 179.239 147.395 179.316 147.268C179.414 147.074 179.523 146.881 179.64 146.699C179.676 146.637 179.716 146.561 179.76 146.484C179.844 146.335 179.924 146.185 180.008 146.039C186.389 134.647 189.76 121.669 189.76 108.502C189.76 95.3346 186.335 82.1308 179.855 70.68C179.822 70.6253 179.793 70.567 179.764 70.5087C179.662 70.3156 179.549 70.1115 179.447 69.9402C179.418 69.8928 179.388 69.8418 179.363 69.7908C179.316 69.7033 179.195 69.5174 179.086 69.3498C179.039 69.2733 178.988 69.1931 178.94 69.1166C172.351 58.0047 163.01 48.664 151.924 42.1004C151.844 42.053 151.767 42.0057 151.691 41.9546C151.552 41.8672 151.414 41.7834 151.275 41.6995L151.06 41.5683L151.049 41.561Z" fill="#1D1D1B"/>
<path d="M13.7892 110.772C13.7892 105.732 16.5262 101.33 20.6006 98.9573C16.9526 95.619 15.2543 90.4366 16.6209 85.3344C17.9402 80.4509 21.7304 76.9085 26.2932 75.673C23.6364 71.5074 23.3376 66.059 25.9944 61.4889C28.5272 57.1338 33.1046 54.6702 37.8533 54.6374C36.3737 49.9397 37.5217 44.6043 41.2645 40.8724C44.8652 37.2972 49.931 36.1128 54.5047 37.2972C54.3006 32.3663 56.8007 27.4973 61.3927 24.8734C65.7806 22.3623 70.9848 22.5008 75.1067 24.826C76.1927 20.019 79.8882 15.9627 84.9976 14.6034C89.903 13.2914 94.8886 14.7746 98.2706 18.0838C100.567 13.7141 105.173 10.7476 110.505 10.7476C115.837 10.7476 120.021 13.4627 122.411 17.4897C125.793 13.8854 131.012 12.198 136.14 13.5428C141.031 14.8548 144.617 18.6159 145.874 23.1386C150.073 20.5 155.579 20.2048 160.171 22.8434C164.559 25.3544 167.045 29.9136 167.074 34.6113C171.808 33.1608 177.187 34.2833 180.944 38.0115C184.531 41.5867 185.726 46.6087 184.545 51.1533C189.498 50.9492 194.407 53.4311 197.064 57.9903C199.597 62.3454 199.455 67.5241 197.111 71.6131C201.955 72.6882 206.058 76.3254 207.429 81.4276C208.733 86.2965 207.257 91.242 203.923 94.5985C208.31 96.8763 211.313 101.465 211.313 106.738C211.313 112.012 208.577 116.181 204.52 118.553C208.154 121.91 209.852 127.089 208.482 132.176C207.177 137.045 203.387 140.588 198.824 141.838C201.481 146.003 201.78 151.452 199.108 156.022C196.575 160.377 191.998 162.826 187.268 162.873C188.729 167.571 187.599 172.906 183.838 176.638C180.252 180.195 175.204 181.398 170.613 180.228C170.817 185.144 168.317 190.013 163.725 192.652C159.337 195.163 154.114 195.024 149.996 192.699C148.91 197.506 145.229 201.562 140.105 202.922C135.214 204.234 130.229 202.751 126.847 199.456C124.536 203.811 119.911 206.774 114.612 206.774C109.313 206.774 105.097 204.059 102.706 200.017C99.3567 203.636 94.1196 205.338 88.9774 203.964C84.072 202.652 80.5004 198.891 79.2577 194.368C75.0593 197.007 69.5526 197.302 64.9606 194.664C60.5727 192.153 58.1054 187.608 58.058 182.914C53.3239 184.364 47.9448 183.242 44.2019 179.514C40.6012 175.938 39.4059 170.916 40.583 166.372C35.6302 166.576 30.7212 164.094 28.0644 159.535C25.5169 155.18 25.6737 150.001 28.0024 145.912C23.1736 144.837 19.07 141.185 17.6997 136.098C16.395 131.229 17.8892 126.283 21.2238 122.927C16.8214 120.649 13.8184 116.075 13.8184 110.787L13.7855 110.772L13.7892 110.772ZM41.1843 148.489C41.3411 148.769 41.516 149.064 41.6727 149.349C41.8294 149.629 42.0043 149.895 42.1756 150.161C49.1583 161.849 59.0347 171.649 70.8135 178.581C71.0796 178.752 71.3493 178.909 71.6299 179.08C71.9142 179.237 72.213 179.408 72.4936 179.565C84.3198 186.198 97.9864 189.959 112.55 189.959C127.113 189.959 140.48 186.245 152.245 179.754C152.292 179.721 152.325 179.707 152.372 179.692C152.704 179.536 153.003 179.364 153.316 179.178C153.363 179.178 153.425 179.131 153.473 179.102C153.772 178.931 154.07 178.759 154.355 178.57C154.482 178.508 154.592 178.428 154.701 178.351C166.166 171.514 175.791 161.966 182.679 150.588C182.759 150.479 182.821 150.355 182.898 150.245C183.087 149.965 183.259 149.669 183.434 149.371C183.466 149.323 183.496 149.261 183.514 149.214C183.703 148.919 183.86 148.605 184.031 148.31C190.635 136.622 194.396 123.138 194.396 108.783C194.396 94.4272 190.591 80.7388 183.889 68.9891C183.747 68.7231 183.59 68.4425 183.434 68.1764C183.277 67.8958 183.102 67.6298 182.931 67.3637C175.948 55.6761 166.086 45.8762 154.293 38.9445C154.027 38.7732 153.757 38.6165 153.476 38.4452C153.21 38.2885 152.941 38.1318 152.66 37.9933C140.801 31.3459 127.135 27.5702 112.571 27.5702C98.0082 27.5702 84.3088 31.3459 72.4827 37.9933C72.1984 38.1354 71.9324 38.2885 71.6663 38.4452C71.3821 38.6019 71.116 38.7732 70.85 38.9445C59.0712 45.8725 49.1802 55.6578 42.2121 67.3637C42.0408 67.6298 41.8804 67.8958 41.7091 68.1764C41.5524 68.4571 41.3775 68.7523 41.2208 69.0365C34.5369 80.7862 30.7467 94.3507 30.7467 108.801C30.7467 123.251 34.5515 136.812 41.2208 148.547L41.188 148.5L41.1843 148.489Z" fill="#C7541B"/>
<path d="M111.854 196.012C63.2416 196.012 23.8336 157.069 23.8336 109.03C23.8336 60.9919 63.2416 22.049 111.854 22.049C160.466 22.049 199.874 60.9919 199.874 109.03C199.874 157.069 160.466 196.012 111.854 196.012Z" fill="#FFBA48"/>
<path d="M81.7913 95.4882C57.8372 95.0194 38.037 114.06 37.5683 138.022C20.9604 120.751 21.4938 93.29 38.7644 76.6821C56.035 60.0743 83.4966 60.6077 100.104 77.8782C108.412 86.5094 112.429 97.6945 112.211 108.799C104.517 100.798 93.7684 95.7306 81.7832 95.4963L81.7913 95.4882Z" fill="#FFBA48"/>
<path fill-rule="evenodd" clip-rule="evenodd" d="M101.269 76.7571C84.0425 58.8434 55.558 58.2906 37.6444 75.5168C19.7302 92.7436 19.1771 121.228 36.4036 139.142L39.1084 141.955L39.1847 138.053C39.6305 115.264 58.2383 97.0987 80.9216 97.0958L81.752 97.112C93.2915 97.3377 103.637 102.214 111.046 109.919L113.751 112.731L113.827 108.83C114.053 97.3153 109.887 85.7106 101.27 76.7576M85.466 94.0975L85.6173 93.9462L81.8233 93.8719C58.315 93.4119 38.6641 111.066 36.2033 134.02C22.8524 117.347 24.189 92.9407 39.8851 77.8469C56.5124 61.8577 82.9508 62.3714 98.9397 78.9983L98.9403 78.9989C105.983 86.3155 109.822 95.536 110.496 104.935C103.671 98.9853 95.0213 95.0533 85.466 94.0975Z" fill="#C7541B"/>
<path d="M100.104 77.87C83.4963 60.5994 56.0266 60.066 38.7641 76.6739C39.2329 52.7198 59.033 33.6794 82.9872 34.14C106.941 34.6007 125.982 54.4089 125.521 78.3629C125.287 90.34 120.22 101.089 112.219 108.79C112.437 97.6862 108.42 86.5093 100.112 77.87L100.104 77.87Z" fill="#FFBA48"/>
<path fill-rule="evenodd" clip-rule="evenodd" d="M83.0186 32.5241C58.1724 32.0463 37.6346 51.7957 37.1484 76.6424L37.0721 80.5451L39.8851 77.8388C56.5041 61.85 82.9504 62.3634 98.9395 78.9904L99.4164 79.4864L99.4169 79.4864C107.098 87.7336 110.809 98.2773 110.603 108.759L110.526 112.664L113.34 109.955C121.637 101.969 126.894 90.8176 127.137 78.3947L127.138 78.3941C127.615 53.5486 107.866 33.002 83.0186 32.5241ZM40.6289 72.8779C42.9795 51.6497 61.1859 35.3375 82.9564 35.7562C106.017 36.1997 124.349 55.2691 123.905 78.3314M40.6289 72.8779C58.4126 58.535 84.4531 59.7753 100.785 76.2537L100.801 76.2537L101.278 76.7497C108.902 84.6777 113.042 94.669 113.738 104.842C119.903 97.7172 123.707 88.4838 123.905 78.332" fill="#C7541B"/>
<path d="M125.514 78.3629C125.983 54.4089 106.942 34.6088 82.9799 34.14C100.25 17.5322 127.712 18.0656 144.32 35.3361C160.928 52.6066 160.394 80.0682 143.124 96.676C134.493 104.984 123.308 109.001 112.203 108.782C120.204 101.089 125.271 90.34 125.506 78.3548L125.514 78.3629Z" fill="#FFBA48"/>
<path fill-rule="evenodd" clip-rule="evenodd" d="M145.484 34.2159C128.258 16.3017 99.7727 15.7487 81.8589 32.9751L79.0462 35.6798L82.9476 35.7562C105.737 36.202 123.902 54.8098 123.905 77.4929L123.889 78.3234C123.663 89.8629 118.787 100.209 111.082 107.617L108.27 110.322L112.171 110.398C123.686 110.625 135.291 106.459 144.244 97.8412C162.158 80.6144 162.711 52.1297 145.484 34.2159ZM126.903 82.0391L127.055 82.1906L127.129 78.3947C127.589 54.8864 109.935 35.2356 86.981 32.7748C103.655 19.424 128.06 20.7605 143.154 36.4566C159.144 53.0839 158.63 79.5222 142.003 95.5111L142.002 95.5116C134.686 102.554 125.465 106.394 116.066 107.067C122.016 100.243 125.947 91.5937 126.903 82.0391Z" fill="#C7541B"/>
<path d="M143.131 96.684C160.401 80.0762 160.935 52.6066 144.327 35.3441C168.281 35.8129 187.322 55.6129 186.861 79.567C186.392 103.521 166.592 122.562 142.638 122.101C130.661 121.867 119.912 116.799 112.21 108.798C123.315 109.017 134.492 105 143.131 96.6921L143.131 96.684Z" fill="#FFBA48"/>
<path fill-rule="evenodd" clip-rule="evenodd" d="M140.456 33.6519L143.162 36.4649C159.151 53.0839 158.638 79.53 142.01 95.5191L141.514 95.996L141.514 95.9966C133.267 103.677 122.724 107.389 112.242 107.183L108.337 107.106L111.046 109.92C119.032 118.216 130.183 123.474 142.606 123.717L142.607 123.717C167.453 124.195 187.991 104.445 188.477 79.5988L188.477 79.5982C188.955 54.7522 169.205 34.2144 144.358 33.7282L140.456 33.6519ZM185.245 79.5361C184.793 102.597 165.731 120.928 142.669 120.485C132.517 120.286 123.284 116.483 116.159 110.318C126.332 109.621 136.323 105.481 144.251 97.8573L144.747 97.3803L144.747 97.365C161.226 81.0327 162.466 54.9923 148.123 37.2087C169.351 39.5593 185.663 57.7653 185.245 79.5355" fill="#C7541B"/>
<path d="M142.638 122.093C166.592 122.562 186.392 103.521 186.861 79.5592C203.469 96.8297 202.935 124.291 185.665 140.899C168.394 157.507 140.933 156.974 124.325 139.703C116.017 131.072 112 119.887 112.218 108.783C119.912 116.783 130.661 121.851 142.646 122.085L142.638 122.093Z" fill="#FFBA48"/>
<path fill-rule="evenodd" clip-rule="evenodd" d="M185.322 75.6259L185.245 79.5273C184.799 102.317 166.192 120.482 143.509 120.485L142.678 120.469C131.138 120.243 120.792 115.366 113.384 107.662L110.679 104.85L110.603 108.75C110.376 120.265 114.543 131.87 123.16 140.823C140.387 158.737 168.872 159.29 186.786 142.064C204.7 124.837 205.253 96.3523 188.026 78.4385L185.322 75.6259ZM138.966 123.483L138.815 123.635L142.607 123.709C166.115 124.169 185.766 106.514 188.227 83.5606C201.578 100.234 200.241 124.64 184.545 139.734C167.918 155.723 141.479 155.209 125.49 138.582L125.49 138.582C118.447 131.265 114.608 122.045 113.934 112.646C120.76 118.596 129.41 122.528 138.966 123.483Z" fill="#C7541B"/>
<path d="M124.316 139.711C140.924 156.981 168.394 157.515 185.656 140.907C185.188 164.861 165.387 183.901 141.433 183.441C117.479 182.972 98.4386 163.172 98.8993 139.218C99.1336 127.241 104.201 116.492 112.202 108.79C111.984 119.895 116 131.072 124.308 139.711L124.316 139.711Z" fill="#FFBA48"/>
<path fill-rule="evenodd" clip-rule="evenodd" d="M113.895 104.917L111.081 107.626C102.785 115.613 97.5268 126.763 97.2837 139.186L97.2837 139.187C96.8059 164.033 116.555 184.571 141.402 185.057L141.403 185.057C166.249 185.535 186.787 165.785 187.273 140.939L187.349 137.036L184.536 139.742C167.917 155.731 141.471 155.218 125.482 138.591L125.005 138.095L125.004 138.095C117.323 129.847 113.612 119.304 113.818 108.822L113.895 104.917ZM110.683 112.739C111.379 122.912 115.52 132.903 123.144 140.831L123.62 141.327L123.636 141.327C139.968 157.806 166.009 159.046 183.792 144.703C181.442 165.931 163.235 182.244 141.465 181.825C118.403 181.373 100.072 162.311 100.516 139.249C100.715 129.097 104.518 119.864 110.683 112.739Z" fill="#C7541B"/>
<path d="M98.9079 139.21C98.4392 163.164 117.48 182.964 141.442 183.433C124.171 200.041 96.7097 199.507 80.1018 182.237C63.494 164.966 64.0274 137.505 81.2979 120.897C89.9292 112.589 101.114 108.572 112.218 108.791C104.218 116.484 99.1504 127.233 98.916 139.218L98.9079 139.21Z" fill="#FFBA48"/>
<path fill-rule="evenodd" clip-rule="evenodd" d="M112.251 107.175C100.736 106.948 89.1316 111.114 80.1786 119.732C62.2644 136.959 61.7114 165.443 78.9378 183.357C96.1646 201.271 124.649 201.824 142.563 184.598L145.376 181.893L141.475 181.817C118.685 181.371 100.52 162.763 100.517 140.08L100.533 139.25C100.759 127.71 105.636 117.364 113.34 109.956L116.152 107.251L112.251 107.175ZM97.5184 135.537L97.3671 135.386L97.2929 139.178C96.8329 162.687 114.488 182.337 137.441 184.798C120.768 198.149 96.3617 196.812 81.2679 181.116C65.2786 164.489 65.7924 138.051 82.4193 122.062L82.4199 122.061C89.7365 115.019 98.957 111.179 108.356 110.506C102.406 117.331 98.4738 125.981 97.5184 135.537Z" fill="#C7541B"/>
<path d="M81.2894 121.309C64.0188 137.917 63.4854 165.386 80.0933 182.649C56.1392 182.18 37.0987 162.38 37.5594 138.426C38.0281 114.472 57.8282 95.4314 81.7824 95.8921C93.7595 96.1265 104.508 101.194 112.21 109.195C101.106 108.976 89.9287 112.993 81.2894 121.301L81.2894 121.309Z" fill="#FFBA48"/>
<path fill-rule="evenodd" clip-rule="evenodd" d="M81.814 94.2761C56.9678 93.7983 36.43 113.548 35.9438 138.394L35.9438 138.395C35.466 163.241 55.2155 183.779 80.0622 184.265L83.965 184.341L81.2586 181.528C65.2698 164.909 65.7832 138.463 82.4103 122.474L82.9062 121.997L82.9062 121.997C91.1535 114.316 101.697 110.605 112.179 110.811L116.083 110.887L113.375 108.074C105.388 99.777 94.2375 94.5192 81.8145 94.2761L81.814 94.2761ZM81.7518 97.5081C91.9036 97.7069 101.137 101.511 108.262 107.675C98.0889 108.372 88.0975 112.512 80.1695 120.136L79.6736 120.613L79.6736 120.628C63.1951 136.96 61.9548 163.001 76.2977 180.784C55.0694 178.434 38.7572 160.227 39.1759 138.457C39.6275 115.396 58.6896 97.0649 81.7513 97.5081" fill="#C7541B"/>
<path d="M66.8229 156.849C58.8866 156.849 52.4529 150.436 52.4529 142.526C52.4529 134.616 58.8866 128.203 66.8229 128.203C74.7592 128.203 81.1929 134.616 81.1929 142.526C81.1929 150.436 74.7592 156.849 66.8229 156.849Z" fill="#011619"/>
<path d="M62.8907 149.745C57.7372 146.915 55.697 140.728 58.3339 135.926C60.9708 131.123 67.2862 129.524 72.4397 132.353C77.5932 135.183 79.6334 141.37 76.9965 146.173C74.3596 150.975 68.0442 152.574 62.8907 149.745Z" fill="#3D5C5E"/>
<path d="M64.0876 145.765C60.7072 143.131 59.8239 138.612 62.1148 135.672C64.4056 132.731 69.0031 132.482 72.3836 135.116C75.764 137.749 76.6473 142.268 74.3564 145.208C72.0656 148.149 67.4681 148.398 64.0876 145.765Z" fill="#011619"/>
<path d="M65.5218 143.437C63.2481 141.666 62.6031 138.692 64.0813 136.795C65.5595 134.897 68.601 134.795 70.8747 136.566C73.1485 138.338 73.7934 141.312 72.3152 143.209C70.8371 145.107 67.7955 145.209 65.5218 143.437Z" fill="#3F6162"/>
<path d="M76.6621 146.71C76.6621 146.71 78.1563 139.643 75.1205 135.999C72.0847 132.355 67.6604 132.187 67.6604 132.187C67.6604 132.187 63.6734 131.666 59.7812 133.933C59.7812 133.933 63.7645 129.392 70.4557 131.48C77.1468 133.568 78.0179 140.081 78.0179 140.081C78.0179 140.081 78.6119 144.261 76.6621 146.706L76.6621 146.71Z" fill="#F3FDF4"/>
<path d="M57.9222 136.746C57.9222 136.746 56.4972 143.288 62.1643 147.741C67.8314 152.195 75.8965 147.741 75.8965 147.741C75.8965 147.741 72.7076 151.878 66.7417 151.025C60.7466 150.168 58.6729 145.719 58.6729 145.719C58.6729 145.719 55.9032 141.538 57.9185 136.746L57.9222 136.746Z" fill="#0B272B"/>
<path d="M78.6056 126.497C74.3803 121.864 74.387 114.979 78.6207 111.117C82.8543 107.255 89.7116 107.88 93.9369 112.512C98.1621 117.144 98.1554 124.03 93.9218 127.892C89.6881 131.753 82.8309 131.129 78.6056 126.497Z" fill="#04151F"/>
<path d="M81.1615 123.257C78.5166 119.796 78.8084 115.129 81.8132 112.833C84.8181 110.536 89.3981 111.48 92.043 114.94C94.6879 118.401 94.3961 123.068 91.3912 125.365C88.3864 127.661 83.8064 126.717 81.1615 123.257Z" fill="#09C3F2"/>
<path d="M80.2964 114.526C80.2964 114.526 79.8955 118.181 81.1565 120.452C82.4175 122.722 85.1982 123.987 85.1982 123.987C85.1982 123.987 91.1204 127.314 93.8427 120.346C93.8427 120.346 94.1343 122.03 92.5708 124.147C91.0074 126.265 88.7077 126.509 88.7077 126.509C88.7077 126.509 84.8993 127.453 81.7651 123.954C78.6309 120.455 78.9261 117.19 80.2928 114.526L80.2964 114.526Z" fill="#00598E"/>
<path d="M89.6816 115.255C89.6889 114.963 89.554 114.701 89.277 114.468C89.0146 114.256 88.734 114.151 88.4352 114.151C88.2165 114.151 88.0124 114.205 87.8229 114.315C87.6844 114.417 87.5022 114.792 87.2763 115.441C87.0722 116.024 86.9045 116.316 86.7733 116.316C86.6786 116.316 86.5619 116.039 86.4235 115.485C86.2704 114.843 86.1246 114.446 85.9861 114.293C85.782 114.147 85.5488 114.074 85.2864 114.074C84.9803 114.074 84.7106 114.169 84.4773 114.358C84.2368 114.541 84.1202 114.781 84.1275 115.08C84.1348 115.539 84.2477 115.988 84.4664 116.425C84.583 116.658 84.7944 116.997 85.1005 117.442C85.3411 117.792 85.4723 118.039 85.4941 118.185C85.4723 118.36 85.2609 118.732 84.86 119.3C84.481 119.84 84.2514 120.306 84.1712 120.7C84.0983 120.846 84.0619 121.017 84.0619 121.214C84.0619 121.491 84.153 121.706 84.3352 121.859C84.5174 122.004 84.7507 122.077 85.0349 122.077C85.1953 122.077 85.3702 122.052 85.5597 122.001C85.7638 122.023 85.9315 121.859 86.0627 121.509C86.1355 121.283 86.2449 120.948 86.3907 120.503C86.5219 120.131 86.6713 119.942 86.8389 119.934C86.9774 119.934 87.1305 120.124 87.2981 120.503C87.4439 120.838 87.597 121.184 87.7573 121.542C87.9541 121.906 88.1837 122.088 88.4461 122.088C88.8106 122.096 89.124 121.979 89.3864 121.738C89.6415 121.498 89.769 121.195 89.769 120.831C89.769 120.437 89.6014 120 89.2661 119.519C89.237 119.483 89.0219 119.22 88.621 118.732C88.417 118.484 88.3186 118.291 88.3258 118.152C88.3404 117.992 88.4607 117.741 88.6866 117.398C89.0511 116.851 89.2661 116.516 89.3317 116.392C89.5577 115.969 89.6743 115.59 89.6816 115.255Z" fill="white"/>
<path d="M56.1622 112.81C51.9369 108.178 51.9437 101.293 56.1773 97.4307C60.4109 93.569 67.2682 94.1935 71.4935 98.8257C75.7188 103.458 75.712 110.343 71.4784 114.205C67.2448 118.067 60.3875 117.442 56.1622 112.81Z" fill="#04151F"/>
<path d="M58.7118 109.565C56.0669 106.104 56.3587 101.437 59.3635 99.1405C62.3684 96.844 66.9484 97.7876 69.5933 101.248C72.2382 104.709 71.9464 109.376 68.9415 111.673C65.9367 113.969 61.3567 113.025 58.7118 109.565Z" fill="#FF2E2A"/>
<path d="M57.8511 100.838C57.8511 100.838 57.4502 104.493 58.7112 106.763C59.9722 109.034 62.7529 110.298 62.7529 110.298C62.7529 110.298 68.675 113.626 71.3974 106.658C71.3974 106.658 71.689 108.341 70.1255 110.459C68.5621 112.573 66.2624 112.82 66.2624 112.82C66.2624 112.82 62.454 113.764 59.3198 110.266C56.1819 106.767 56.4808 103.502 57.8475 100.838L57.8511 100.838Z" fill="#A30408"/>
<path d="M66.4955 101.279C66.2914 100.849 65.7265 100.634 64.8008 100.634C64.4509 100.634 64.1266 100.681 63.8277 100.776C63.4268 100.892 63.1681 101.071 63.0515 101.311C62.7964 101.814 62.5303 102.86 62.2533 104.449C61.9837 105.951 61.8488 107.048 61.8488 107.74C61.8488 108.054 61.8816 108.232 61.9472 108.276C61.9982 108.371 62.1477 108.451 62.3955 108.516C62.5996 108.567 62.7745 108.593 62.9203 108.593C63.2701 108.593 63.5653 108.487 63.8059 108.276C64.0318 107.911 64.1703 107.554 64.2213 107.204C64.2505 106.949 64.2979 106.57 64.3635 106.067C64.4145 105.856 64.5348 105.75 64.7243 105.75C64.8044 105.75 64.8919 105.779 64.9867 105.838C65.0814 105.889 65.1251 105.954 65.1179 106.035C65.1397 106.341 65.1798 106.796 65.2381 107.401C65.2819 107.846 65.3875 108.137 65.5552 108.276C65.7957 108.48 66.0982 108.582 66.4627 108.582C66.9437 108.582 67.2936 108.44 67.5122 108.156C67.5851 108.09 67.6216 107.842 67.6216 107.412C67.6216 106.581 67.5195 105.564 67.3155 104.362C67.0749 102.955 66.8016 101.927 66.4955 101.279ZM65.5115 103.509C65.5115 103.684 65.4459 103.83 65.3147 103.946C65.1835 104.056 65.0304 104.11 64.8555 104.11C64.6805 104.11 64.5275 104.056 64.3963 103.946C64.2578 103.83 64.1885 103.684 64.1885 103.509C64.1885 103.334 64.2578 103.192 64.3963 103.083C64.5275 102.966 64.6805 102.908 64.8555 102.908C65.0304 102.908 65.1835 102.966 65.3147 103.083C65.4459 103.192 65.5115 103.334 65.5115 103.509Z" fill="white"/>
<path d="M35.9024 128.137C31.6772 123.505 31.6839 116.619 35.9175 112.757C40.1511 108.895 47.0084 109.52 51.2337 114.152C55.459 118.784 55.4523 125.67 51.2186 129.532C46.985 133.393 40.1277 132.769 35.9024 128.137Z" fill="#04151F"/>
<path d="M38.453 124.9C35.8081 121.439 36.0999 116.772 39.1048 114.475C42.1096 112.179 46.6896 113.122 49.3345 116.583C51.9794 120.044 51.6876 124.711 48.6828 127.007C45.6779 129.304 41.0979 128.36 38.453 124.9Z" fill="#62D717"/>
<path d="M37.5904 116.166C37.5904 116.166 37.1895 119.821 38.4504 122.092C39.7114 124.362 42.4921 125.627 42.4921 125.627C42.4921 125.627 48.4143 128.954 51.1367 121.986C51.1367 121.986 51.4282 123.67 49.8648 125.787C48.3013 127.901 46.0017 128.149 46.0017 128.149C46.0017 128.149 42.1933 129.093 39.0591 125.594C35.9212 122.095 36.2201 118.83 37.5867 116.166L37.5904 116.166Z" fill="#266A00"/>
<path d="M46.6025 116.95C46.6025 116.767 46.4422 116.614 46.1215 116.49C45.8664 116.388 45.6295 116.337 45.4108 116.337C45.0901 116.337 44.9042 116.432 44.8532 116.622C44.7585 116.745 44.671 116.96 44.5908 117.267C44.4961 117.616 44.4232 117.842 44.3721 117.944C44.2628 118.163 44.1025 118.269 43.8911 118.262C43.4538 118.24 43.1549 117.704 42.9946 116.654C42.9435 116.45 42.7103 116.348 42.2948 116.348C42.0324 116.348 41.781 116.399 41.5404 116.501C41.2416 116.632 41.0922 116.815 41.0922 117.048C41.2088 118.243 41.3291 119.027 41.453 119.399C41.6935 120.12 42.1381 120.558 42.7868 120.711C42.8233 120.791 42.8415 120.915 42.8415 121.082C42.8415 121.33 42.8087 121.702 42.7431 122.198C42.6702 122.693 42.6338 123.065 42.6338 123.313C42.6338 123.495 42.6447 123.633 42.6666 123.728C42.7394 124.063 43.1148 124.231 43.7927 124.231C44.0332 124.231 44.2883 124.195 44.558 124.122C44.9225 124.027 45.112 123.896 45.1265 123.728C45.1411 123.488 45.112 123.065 45.0391 122.46C44.9589 121.811 44.9188 121.388 44.9188 121.192C44.9188 120.98 44.9443 120.827 44.9953 120.732C45.6732 120.485 46.1288 119.985 46.362 119.235C46.5224 118.724 46.6025 117.963 46.6025 116.95Z" fill="white"/>
<path d="M115.286 109.835C106.128 109.835 98.7039 99.1481 98.7039 85.9645C98.7039 72.7809 106.128 62.0935 115.286 62.0935C124.444 62.0935 131.868 72.7809 131.868 85.9645C131.868 99.1481 124.444 109.835 115.286 109.835Z" fill="#011619"/>
<path d="M112.768 79.0645C111.37 73.6051 113.16 68.4302 116.767 67.5061C120.374 66.5819 124.432 70.2585 125.831 75.7179C127.229 81.1773 125.439 86.3522 121.832 87.2763C118.225 88.2005 114.167 84.5239 112.768 79.0645Z" fill="white"/>
<path d="M159.383 109.836C150.225 109.836 142.801 99.1482 142.801 85.9646C142.801 72.781 150.225 62.0936 159.383 62.0936C168.541 62.0936 175.965 72.781 175.965 85.9646C175.965 99.1482 168.541 109.836 159.383 109.836Z" fill="#011619"/>
<path d="M156.863 79.066C155.464 73.6065 157.255 68.4317 160.862 67.5075C164.469 66.5834 168.527 70.26 169.925 75.7194C171.324 81.1788 169.534 86.3537 165.927 87.2778C162.32 88.2019 158.262 84.5254 156.863 79.066Z" fill="white"/>
<path d="M148.268 125.871C148.268 125.871 150.455 125.871 151.184 130.973C151.913 136.076 149.726 144.436 149.726 144.436C149.726 144.436 145.353 157.578 134.419 161.222C123.486 164.867 115.833 157.578 115.833 157.578C115.833 157.578 104.171 147.202 104.9 134.17C104.9 134.17 104.776 125.871 108.846 125.871L148.268 125.871Z" fill="#011617"/>
<path d="M112.553 145.916L113.281 143.729C114.375 142.636 117.29 141.178 117.29 141.178C117.29 141.178 123.85 139.356 128.953 141.907C134.055 144.458 135.148 149.196 135.148 149.196C135.148 149.196 136.97 153.933 134.055 155.756C131.139 157.578 129.681 158.307 123.121 157.213C116.561 156.12 112.553 145.916 112.553 145.916Z" fill="#FE7273"/>
<path d="M130.91 146.521C130.91 146.521 133.406 150.325 133.731 155.956C133.731 155.956 136.165 155.468 135.837 151.24C135.509 147.013 132.032 143.86 132.032 143.86L130.906 146.521L130.91 146.521Z" fill="#FBF6E3"/>
<path d="M135.148 148.467C135.148 148.467 131.475 146.692 128.887 146.214C127.087 145.883 125.232 145.846 123.439 146.218C121.646 146.59 119.627 147.417 118.654 149.137C116.562 152.84 117.098 153.394 117.098 153.394C117.098 153.394 114.007 151.382 112.549 145.916C112.549 145.916 112.185 144.822 113.271 143.416C113.271 143.416 114.736 140.813 122.025 140.449C129.314 140.085 132.958 144.822 132.958 144.822C132.958 144.822 134.78 146.644 135.145 148.467L135.148 148.467Z" fill="#DF1813"/>
</svg>
