<svg width="282" height="249" viewBox="0 0 282 249" fill="none" xmlns="http://www.w3.org/2000/svg">
<path d="M85.48 245.96C82.5467 245.96 79.9709 244.313 78.6313 241.885C76.567 242.842 73.4831 243.814 69.2824 243.99C69.0879 244 68.8965 244.003 68.7114 244.003C65.1694 244.003 63.4408 242.503 62.6157 241.245C62.142 240.52 61.8722 239.742 61.7373 238.964C61.6651 238.958 61.5961 238.949 61.524 238.936C60.633 238.779 59.8957 238.152 59.5945 237.302C58.6941 234.751 58.6377 229.057 64.8714 225.775C66.6376 224.847 69.1945 224.395 72.6894 224.395C77.9537 224.395 84.1592 225.424 87.4784 226.055C88.2596 223.203 89.8407 217.782 92.5294 209.929C92.8243 209.063 93.5709 208.426 94.4745 208.269C94.6188 208.244 94.7631 208.232 94.9043 208.232C95.5725 208.232 96.2156 208.498 96.6894 208.978C96.9278 209.16 98.7003 210.378 105.26 212.078C105.96 212.26 106.55 212.734 106.873 213.383C107.199 214.029 107.227 214.786 106.954 215.457C106.832 215.755 104.388 221.728 101.157 227.777C104.758 228.414 109.797 230.061 112.156 234.312C113.656 237.01 113.951 239.382 113.034 241.358C112.024 243.542 109.935 244.301 109.157 244.514C108.661 244.696 107.623 244.985 106.079 244.985C104.031 244.985 101.831 244.476 99.5443 243.476C97.8564 242.738 96.8901 242.371 96.3568 242.189C96.2878 242.196 96.2156 242.202 96.1435 242.202C95.949 242.202 95.7482 242.174 95.5443 242.117C95.1458 242.167 93.6745 242.465 90.9294 244.229C89.4925 245.151 87.9835 245.716 86.4431 245.907C86.1262 245.948 85.8031 245.967 85.4863 245.967L85.48 245.96Z" fill="#B98C48"/>
<path d="M94.9019 210.735C94.9019 210.735 96.1568 212.304 104.627 214.5C104.627 214.5 101.176 222.971 97.0979 229.873C97.0979 229.873 106.823 229.873 109.961 235.52C113.098 241.167 108.392 242.108 108.392 242.108C108.392 242.108 107.589 242.465 106.077 242.465C104.756 242.465 102.889 242.192 100.549 241.167C97.3552 239.771 96.3199 239.516 95.9905 239.516C95.8023 239.516 95.843 239.598 95.843 239.598C95.843 239.598 95.7803 239.589 95.6517 239.589C95.0744 239.589 93.1607 239.799 89.5686 242.108C88.3293 242.905 87.1654 243.278 86.127 243.41C85.9105 243.438 85.6941 243.451 85.4776 243.451C82.607 243.451 80.1851 241.073 80.1537 238.124C80.1537 238.092 80.1537 238.061 80.1537 238.029C80.1537 238.029 76.7027 241.167 69.1733 241.48C69.0133 241.487 68.8564 241.49 68.7058 241.49C61.7725 241.49 64.7812 234.578 64.7812 234.578C64.7812 234.578 67.3255 230.287 72.7968 228.982C72.7968 228.982 67.9184 229.245 61.9577 236.461C61.9577 236.461 60.0753 231.127 66.0361 227.99C67.5576 227.19 69.9733 226.898 72.6839 226.898C79.9341 226.898 89.2988 228.982 89.2988 228.982C89.2988 228.982 90.8203 222.657 94.8988 210.735M94.9019 205.716C94.6164 205.716 94.3278 205.741 94.0391 205.791C92.2352 206.105 90.7451 207.378 90.1521 209.11C88.0282 215.319 86.5851 220.031 85.6784 223.175C82.1113 222.566 77.0917 221.876 72.687 221.876C68.7749 221.876 65.8353 222.422 63.7019 223.545C59.8651 225.565 57.418 228.784 56.8094 232.611C56.3702 235.378 57.0196 237.534 57.2298 238.13C57.6627 239.356 58.5443 240.345 59.6675 240.925C59.8776 241.496 60.1537 242.064 60.5176 242.616C61.6816 244.392 64.0502 246.509 68.7121 246.509C68.9317 246.509 69.1608 246.503 69.3866 246.494C72.8 246.353 75.5733 245.709 77.7349 244.938C79.636 247.099 82.4094 248.464 85.4807 248.464C85.9011 248.464 86.3278 248.439 86.7482 248.385C88.665 248.147 90.5286 247.454 92.2823 246.327C94.2682 245.051 95.3882 244.705 95.7301 244.621C96.207 244.79 97.0697 245.123 98.5348 245.763C101.142 246.905 103.68 247.482 106.077 247.482C107.818 247.482 109.095 247.171 109.848 246.917C111.79 246.396 114.114 244.982 115.31 242.4C116.182 240.511 116.725 237.361 114.347 233.079C112.188 229.195 108.367 227.143 104.856 226.061C107.388 221.004 109.17 216.646 109.274 216.392C109.82 215.052 109.76 213.54 109.11 212.247C108.461 210.955 107.285 210.004 105.885 209.64C100.518 208.247 98.654 207.244 98.2556 207.002C97.3333 206.174 96.138 205.716 94.9019 205.716Z" fill="black"/>
<path d="M94.4307 212.122C94.4307 212.122 98.1954 213.402 97.5679 219.049C96.9405 224.696 94.4307 230.641 94.4307 230.641C94.4307 230.641 98.8385 227.839 106.437 232.15C106.437 232.15 108.705 233.323 109.96 235.519C111.215 237.715 107.45 237.402 107.45 237.402C107.45 237.402 102.744 237.088 96.4699 233.01C96.4699 233.01 95.215 231.927 94.4307 233.097C94.4307 233.097 91.0738 237.697 86.3993 238.49C81.7248 239.284 80.7837 237.715 80.7837 237.715C80.7837 237.715 79.5288 236.147 82.9797 232.696C82.9797 232.696 83.9209 231.755 85.4895 230.814C85.4895 230.814 83.8111 230.851 78.5876 233.637C73.8817 236.147 71.3719 236.774 71.3719 236.774C71.3719 236.774 66.0386 238.343 64.7837 236.461C64.7837 236.461 67.6072 231.441 78.2739 229.245C78.2739 229.245 82.7601 228.404 89.3013 228.981C89.3013 228.981 93.3327 215.701 94.4307 212.122Z" fill="#FFCB67"/>
<path d="M72.9403 228.931C72.9403 228.931 65.7247 228.931 64.7176 234.738C64.7176 234.738 64.156 238.343 66.2047 235.614C66.2047 235.614 72.4478 227.582 89.254 228.931C89.254 228.931 80.7835 225.794 70.1168 226.735C70.1168 226.735 63.3278 227.57 61.96 232.696C61.96 232.696 65.0972 229.559 72.9403 228.931Z" fill="white"/>
<path d="M168.974 246.12C165.071 246.12 161.62 243.808 161.238 243.545L161.181 243.504C161.181 243.504 159.399 242.252 157.351 242.252C156.463 242.252 155.672 242.484 154.926 242.964C152.802 244.329 150.386 245.054 147.939 245.054C145.821 245.054 144.356 244.514 144.196 244.451L144.143 244.429L144.089 244.407C143.776 244.269 141.002 242.98 140.162 239.962C139.562 237.81 140.108 235.51 141.79 233.129C144.645 229.085 150.279 227.833 154.267 227.473L147.173 213.289L152.704 214.914C152.704 214.914 153.354 215.084 154.298 215.084C156.381 215.084 158.157 214.312 159.569 212.79L162.471 209.666L167.81 226.045C169.514 225.778 172.077 225.493 175.264 225.493C177.184 225.493 179.142 225.596 181.078 225.804C182.025 225.876 189.046 226.651 191.97 233.96C193.288 237.258 192.613 239.51 191.816 240.822C189.991 243.814 186.223 244.254 185.799 244.294L185.63 244.31L185.46 244.304C184.767 244.276 179.823 244.012 175.619 242.058C174.834 243.758 173.416 245.336 171.001 245.894C170.351 246.045 169.667 246.12 168.968 246.12H168.974Z" fill="#B98C48"/>
<path d="M161.41 214.5L166.116 228.932C166.116 228.932 169.642 228.003 175.271 228.003C176.958 228.003 178.834 228.088 180.861 228.304C180.861 228.304 187.136 228.618 189.645 234.892C192.155 241.167 185.567 241.794 185.567 241.794C185.567 241.794 177.724 241.481 173.959 238.03C173.959 238.03 174.138 242.594 170.442 243.448C169.956 243.561 169.464 243.608 168.974 243.608C165.743 243.608 162.668 241.477 162.668 241.477C162.668 241.477 160.3 239.739 157.351 239.739C156.146 239.739 154.844 240.031 153.57 240.85C151.49 242.186 149.479 242.541 147.939 242.541C146.229 242.541 145.1 242.105 145.1 242.105C145.1 242.105 140.08 239.909 143.845 234.575C146.891 230.259 154.464 229.848 157.238 229.848C157.89 229.848 158.276 229.87 158.276 229.87L152.002 217.321C152.002 217.321 152.927 217.594 154.301 217.594C156.227 217.594 159.032 217.06 161.413 214.497M163.537 204.834L157.73 211.087C156.798 212.091 155.675 212.58 154.298 212.58C153.834 212.58 153.489 212.521 153.363 212.496L141.812 208.536L147.509 219.573L150.464 225.484C146.511 226.293 142.314 228.044 139.741 231.689C137.081 235.46 137.187 238.638 137.746 240.643C138.875 244.69 142.392 246.409 143.086 246.714L143.189 246.757L143.296 246.798C143.766 246.98 145.486 247.567 147.939 247.567C150.866 247.567 153.752 246.707 156.284 245.079C156.62 244.863 156.949 244.765 157.351 244.765C158.317 244.765 159.377 245.324 159.725 245.553L159.813 245.622V245.612C160.538 246.117 164.406 248.633 168.974 248.633C169.865 248.633 170.74 248.536 171.575 248.342C173.78 247.834 175.456 246.663 176.651 245.17C177.733 245.543 178.897 245.86 180.146 246.124C182.907 246.704 185.125 246.804 185.366 246.814L185.705 246.826L186.044 246.795C186.944 246.71 191.556 246.083 193.965 242.13C195.063 240.332 196.014 237.292 194.307 233.032C191.427 225.832 184.842 223.542 181.275 223.303C179.274 223.093 177.256 222.986 175.271 222.986C173.056 222.986 171.129 223.115 169.554 223.288L166.182 212.947L163.537 204.834Z" fill="black"/>
<path d="M159.528 232.696C159.528 232.696 162.8 238.773 169.319 238.713C175.839 238.654 172.077 233.637 172.077 233.637C172.077 233.637 171.136 232.069 168.94 230.5C168.94 230.5 186.373 241.926 189.893 235.586C189.893 235.586 187.588 227.124 176.852 228.028C176.852 228.028 170.822 227.677 166.116 228.932L161.445 214.61C161.445 214.61 160.682 215.341 159.635 216.019C159.635 216.019 156.391 217.951 158.273 222.657L161.41 230.814C161.41 230.814 159.377 228.756 151.453 230.412C143.528 232.069 142.744 236.624 142.744 236.624C142.744 236.624 145.097 239.284 152.94 235.833C160.783 232.382 159.528 232.696 159.528 232.696Z" fill="#FFCB67"/>
<path d="M153.47 214.585C151.105 214.585 149.2 213.841 148.532 213.543C147.679 213.261 145.451 212.307 142.926 209.509L143.983 211.2L140.394 212.072C140.168 212.128 134.731 213.424 126.176 213.424C117.037 213.424 103.033 211.896 88.1683 204.618C86.8758 204.094 75.5942 199.331 65.1629 188.991C58.7441 182.629 53.9943 175.47 51.039 167.711C47.3402 158.005 46.4774 147.372 48.4696 136.113L48.9621 133.336L51.7072 133.983C51.7072 133.983 51.8484 134.017 52.0868 134.07C50.4398 132.696 48.7017 131.143 46.9543 129.424C36.5574 119.187 30.8445 107.852 30.4335 96.6399C30.0006 84.825 30.1731 72.1568 34.3112 59.5608C38.5747 46.5851 46.5213 34.7734 59.3245 22.3875C77.0593 5.22988 100.852 2.66675 113.455 2.66675C129.721 2.66675 145.172 6.68556 154.788 13.415L156.473 14.5914C165.285 20.7499 172.247 25.6126 178.349 32.7373C184.752 40.2102 189.906 49.7161 195.591 64.527L195.629 64.6211L195.657 64.7184C195.961 65.7411 203.023 90.0235 193.712 114.431L193.125 115.969C201.696 114.306 212.912 110.444 223.864 101.694C229.065 97.3081 236.874 89.8886 237.997 87.0776C239.152 84.1913 241.461 82.538 244.334 82.538C246.37 82.538 248.008 83.3568 248.315 83.5199L248.45 83.5921L248.576 83.6799C249.122 84.0595 253.89 87.6454 253.169 97.0572C252.701 103.134 250.806 108.819 247.374 114.438C244.576 119.021 240.742 123.526 235.92 127.915C239.431 127.103 243.142 126.516 246.54 126.516C248.206 126.516 249.746 126.66 251.114 126.943L251.45 127.012L251.757 127.165C252.196 127.385 256.077 129.424 256.805 133.854C257.392 137.43 255.697 141.239 251.763 145.17C246.204 150.726 237.862 154.481 231.506 156.731C232.391 157.333 233.025 158.105 233.244 159.128C233.348 159.611 233.432 160.59 232.796 161.609L233.95 161.641C235.506 161.681 238.402 162.488 239.387 165.242C240.937 169.568 236.777 175.708 225.9 185.145C216.705 193.126 203.804 198.867 187.563 202.211C175.556 204.684 166.323 204.847 165.938 204.85L164.52 204.872C163.986 206.657 163.186 208.461 162 210.105C159.883 213.038 156.931 214.588 153.464 214.588L153.47 214.585ZM143.713 139.589C144.04 143.504 146.198 153.506 159.001 163.793C175.767 177.264 195.807 180.458 196.008 180.489L196.102 180.505C196.121 180.508 198.443 180.935 201.392 180.935C204.865 180.935 209.486 180.361 211.782 177.628C213.21 175.931 213.639 173.396 213.059 170.095L212.469 166.726L215.883 166.974C215.883 166.974 216.501 167.018 217.492 167.018C219.917 167.018 227.958 166.714 231.597 162.858C231.475 162.946 231.343 163.034 231.202 163.121C226.647 165.923 216.303 166.306 215.139 166.34H215.042H214.945C214.64 166.328 210.929 166.165 206.352 165.728C206.725 165.926 207.108 166.124 207.5 166.328C211.287 168.288 213.159 170.616 213.065 173.255C212.924 177.157 208.52 179.241 207.641 179.617L207.512 179.67L207.381 179.711C207.161 179.78 205.134 180.376 201.517 180.376C197.116 180.376 189.878 179.479 180.397 175.203C164.927 168.226 154.985 158.519 153.674 157.195C152.485 156.238 146.813 151.165 144.03 139.488L143.72 139.586L143.713 139.589ZM184.538 116.602C184.46 116.756 184.375 116.916 184.281 117.082C186.537 116.957 189.335 116.671 192.516 116.081L191.352 116.144C191.302 116.144 187.271 116.361 184.538 116.602Z" fill="#3090C2"/>
<path d="M113.451 5.33332C129.545 5.33332 144.45 9.43685 153.253 15.5984C172.077 28.7748 181.175 34.4219 193.097 65.4807C193.097 65.4807 200.312 89.6375 191.214 113.481C191.214 113.481 185.253 113.794 182.744 114.108C182.744 114.108 181.489 117.559 178.665 119.755C178.665 119.755 179.578 119.84 181.219 119.84C188.002 119.84 207.217 118.415 225.551 103.758C225.551 103.758 238.587 92.7779 240.469 88.072C241.379 85.7944 242.951 85.2077 244.331 85.2077C245.802 85.2077 247.057 85.8759 247.057 85.8759C247.057 85.8759 251.136 88.6994 250.508 96.8563C249.881 105.013 246.116 119.131 222.273 135.131C222.273 135.131 236.187 129.186 246.54 129.186C247.967 129.186 249.329 129.299 250.574 129.556C250.574 129.556 259.292 133.876 249.881 143.288C240.469 152.699 221.959 156.778 221.959 156.778C221.959 156.778 233.881 158.346 229.802 160.856C225.724 163.366 215.057 163.68 215.057 163.68C215.057 163.68 200.312 163.052 193.097 160.856C193.097 160.856 197.175 163.993 206.273 168.699C215.371 173.405 206.587 177.17 206.587 177.17C206.587 177.17 204.833 177.713 201.511 177.713C197.266 177.713 190.464 176.825 181.489 172.778C165.489 165.562 155.45 155.209 155.45 155.209C155.45 155.209 148.548 150.19 146.038 136.072L141.018 137.641C141.018 137.641 139.763 151.758 157.332 165.876C174.9 179.993 195.606 183.131 195.606 183.131C195.606 183.131 198.126 183.608 201.391 183.608C208.042 183.608 217.787 181.631 215.685 169.64C215.685 169.64 216.372 169.691 217.489 169.691C221.219 169.691 229.777 169.135 233.881 164.307C233.881 164.307 245.489 164.621 224.155 183.131C202.822 201.64 165.903 202.183 165.903 202.183C165.903 202.183 165.175 198.503 162.665 194.738C162.665 194.738 163.92 202.895 159.842 208.542C157.909 211.218 155.484 211.921 153.467 211.921C151.224 211.921 149.489 211.052 149.489 211.052C149.489 211.052 144.469 209.797 140.391 200.386L137.253 200.699C137.253 200.699 138.195 206.974 139.763 209.484C139.763 209.484 134.508 210.76 126.176 210.76C116.758 210.76 103.403 209.129 89.2536 202.183C89.2536 202.183 42.7345 183.83 51.0921 136.577C51.0921 136.577 56.9399 137.954 63.8419 139.209C63.8419 139.209 34.038 122.268 33.0969 96.5426C32.1557 70.8171 34.6655 49.9513 61.1752 24.3043C75.2866 10.6541 95.1359 5.33332 113.451 5.33332ZM113.451 0C103.083 0 93.1877 1.56235 84.0332 4.64627C73.6427 8.1443 64.7015 13.4713 57.467 20.4706C44.3439 33.167 36.1776 45.3238 31.7761 58.7262C27.5063 71.7207 27.3275 84.6744 27.7667 96.7339C28.0114 103.46 29.991 110.168 33.649 116.671C36.4851 121.713 40.3314 126.641 45.0812 131.319C45.5172 131.749 45.9502 132.166 46.3831 132.574L45.8404 135.645C43.7635 147.385 44.6733 158.494 48.5447 168.659C51.6349 176.775 56.5949 184.254 63.2835 190.886C73.834 201.349 85.2913 206.318 87.0732 207.052C102.367 214.519 116.77 216.091 126.173 216.091C135.042 216.091 140.78 214.723 141.018 214.663L143.845 213.976C145.417 215.159 146.747 215.749 147.556 216.031C148.529 216.451 150.737 217.251 153.464 217.251C157.759 217.251 161.558 215.265 164.162 211.661C165.125 210.327 165.865 208.919 166.433 207.501C168.501 207.441 177.203 207.062 188.102 204.818C195.333 203.328 202.053 201.32 208.077 198.845C215.76 195.689 222.345 191.755 227.647 187.156C233.379 182.183 237.294 178.077 239.625 174.6C240.582 173.17 243.5 168.815 241.896 164.342C240.824 161.342 238.317 159.799 235.951 159.231C235.926 158.955 235.885 158.729 235.851 158.569C235.81 158.371 235.757 158.18 235.697 157.989C241.733 155.576 248.701 152 253.649 147.055C258.223 142.481 260.168 137.895 259.434 133.421C258.489 127.68 253.501 125.054 252.936 124.775L252.322 124.47L251.647 124.332C250.103 124.012 248.381 123.852 246.533 123.852C245.561 123.852 244.566 123.896 243.559 123.981C245.931 121.302 247.961 118.582 249.639 115.834C253.297 109.848 255.318 103.774 255.816 97.2673C256.654 86.3716 250.759 81.9606 250.085 81.4932L249.831 81.3175L249.558 81.1732C248.987 80.8689 246.925 79.8775 244.322 79.8775C240.359 79.8775 237.065 82.2022 235.506 86.0955C235.475 86.1708 234.596 88.1253 228.535 93.901C225.454 96.8343 222.562 99.2971 222.154 99.6453C213.514 106.541 204.717 110.274 197.291 112.276C205.231 88.1191 198.499 64.9756 198.195 63.9622L198.135 63.7677L198.063 63.5795C185.919 31.9372 175.995 25.0039 157.981 12.4172C157.429 12.0314 156.868 11.6392 156.3 11.2408C146.267 4.19764 130.245 0 113.451 0Z" fill="black"/>
<path d="M51.0926 136.577C51.0926 136.577 46.8479 150.406 53.775 167.394C53.775 167.394 69.0597 192.699 110.214 190.111C110.214 190.111 128.153 188.774 150.741 179.676C150.741 179.676 136.448 167.695 124.457 141.057C124.457 141.057 113.722 142.657 104.624 141.716L110.898 137.01L114.349 137.637L133.486 135.128L150.114 129.48L160.153 125.402L171.133 114.735V107.928L169.251 100.618L164.545 97.1668L157.016 94.0296L159.525 84.9316L159.839 78.9708L157.329 70.1865L153.878 64.5394L147.604 59.5198L139.447 55.4414H132.26L124.388 57.3238L117.173 62.9708L113.094 69.2453L111.538 76.2602L111.525 83.9904L114.035 94.3433L113.094 94.0296L109.304 81.8665L98.2957 76.2602L82.3491 78.6571L77.3295 82.4218V73.9512L74.5059 65.1669L69.8001 61.0885L63.5256 57.6375L55.6824 56.6963L47.8393 59.8336L41.8785 67.0492L39.3687 74.2649L38.7413 81.4806L41.8785 92.1472C41.8785 92.1472 37.4864 93.0884 33.0942 96.5394C33.0942 96.5394 33.408 119.128 51.9177 127.284L59.7609 133.245L68.2314 136.382L71.6824 137.637L75.7608 139.833L69.4863 139.52L62.8981 137.951L61.5554 139.005L51.0895 136.574L51.0926 136.577Z" fill="white"/>
<path d="M33.098 96.5393C33.098 96.5393 30.5882 64.2257 55.6862 37.8728C80.7842 11.5199 111.843 10.8924 111.843 10.8924C111.843 10.8924 138.196 6.50029 162.666 29.0885C187.137 51.6767 185.568 86.1864 185.568 86.1864C185.568 86.1864 182.745 120.382 159.529 131.363C159.529 131.363 131.921 143.912 104.627 141.716L110.902 137.01C110.902 137.01 138.196 136.696 161.412 122.892C161.412 122.892 185.255 105.951 155.764 94.3433C155.764 94.3433 164.862 80.5394 151.372 63.912C151.372 63.912 134.431 46.3434 118.431 63.5982C118.431 63.5982 107.451 73.01 114.666 95.2844H112.784C112.784 95.2844 109.961 81.7943 96.1567 78.3433C96.1567 78.3433 84.5489 78.0296 76.3921 84.9315C76.3921 84.9315 78.5881 68.9316 69.4901 61.7159C60.3921 54.5002 50.6666 59.8335 50.6666 59.8335C50.6666 59.8335 40.6274 64.2257 39.6863 79.5982C39.6863 79.5982 40 88.3825 43.1372 92.7746C43.1372 92.7746 39.3725 92.4609 33.098 96.5393Z" fill="#4BCDFF"/>
<path d="M39.999 117.873C39.999 117.873 47.8421 128.226 70.744 135.128C70.744 135.128 75.7636 140.775 78.2734 142.03C78.2734 142.03 69.4891 141.716 62.2735 139.52C55.0578 137.324 45.3323 125.402 39.999 117.873Z" fill="#4BCDFF"/>
<path d="M58.4034 102.491C66.287 102.491 72.6779 93.2905 72.6779 81.9416C72.6779 70.5927 66.287 61.3926 58.4034 61.3926C50.5198 61.3926 44.1289 70.5927 44.1289 81.9416C44.1289 93.2905 50.5198 102.491 58.4034 102.491Z" fill="black"/>
<path d="M60.5522 75.9969C61.7562 71.2972 60.2151 66.8425 57.11 66.047C54.0049 65.2515 50.5116 68.4164 49.3076 73.116C48.1035 77.8157 49.6446 82.2704 52.7498 83.0659C55.8549 83.8614 59.3482 80.6965 60.5522 75.9969Z" fill="white"/>
<path d="M134.637 104.373C142.52 104.373 148.911 95.173 148.911 83.8241C148.911 72.4752 142.52 63.2751 134.637 63.2751C126.753 63.2751 120.362 72.4752 120.362 83.8241C120.362 95.173 126.753 104.373 134.637 104.373Z" fill="black"/>
<path d="M136.776 77.8769C137.98 73.1772 136.439 68.7225 133.334 67.927C130.229 67.1315 126.736 70.2964 125.532 74.996C124.328 79.6957 125.869 84.1504 128.974 84.9459C132.079 85.7415 135.572 82.5765 136.776 77.8769Z" fill="white"/>
<path d="M87.2181 121.653C81.5993 121.653 79.375 117.408 79.2212 114.478C79.1585 113.904 78.9201 111.432 79.2338 108.916C79.3656 107.852 80.1153 106.999 81.0973 106.698C75.1522 106.792 70.2362 107.193 70.1797 107.2C70.1044 107.206 70.0291 107.209 69.957 107.209C68.7115 107.209 67.6166 106.34 67.3499 105.101C67.2589 104.668 65.2699 94.3934 81.6871 83.7927C85.3483 81.4272 88.9938 80.2288 92.5232 80.2288C103.067 80.2288 108.498 90.6507 108.727 91.0962C108.762 91.1652 108.793 91.2374 108.824 91.3064C108.896 91.4821 110.547 95.6421 110.107 100.957C109.696 105.929 107.359 112.897 98.5624 117.844C94.0071 120.408 90.2989 121.65 87.2181 121.653Z" fill="#CA883A"/>
<path d="M92.5261 82.8953C101.555 82.8953 106.352 92.3071 106.352 92.3071C106.352 92.3071 112.313 107.052 97.2539 115.523C92.6861 118.092 89.4735 118.986 87.2179 118.986C82.0351 118.986 81.8814 114.268 81.8814 114.268C81.8814 114.268 81.5677 111.758 81.8814 109.248H96.9402C96.9402 109.248 100.705 107.052 102.901 102.974C102.901 102.974 100.827 104.357 94.3081 104.357C93.2226 104.357 92.0116 104.32 90.6657 104.229C88.3127 104.072 85.8406 104.012 83.4594 104.012C76.3128 104.012 69.9598 104.542 69.9598 104.542C69.9598 104.542 68.0775 95.7581 83.1363 86.0326C86.6469 83.7675 89.781 82.8953 92.5261 82.8953ZM92.5261 77.562C88.4759 77.562 84.341 78.9048 80.2438 81.5526C62.5999 92.9471 64.4728 104.392 64.7457 105.659C65.2759 108.135 67.4658 109.876 69.9567 109.876C70.1042 109.876 70.2548 109.869 70.4022 109.857C70.4399 109.854 72.934 109.65 76.4948 109.499C76.2971 111.905 76.4947 114.064 76.5669 114.742C76.6297 115.576 76.8932 117.414 77.9944 119.309C79.8453 122.494 83.2084 124.323 87.2179 124.323C90.7661 124.323 94.9041 122.964 99.8704 120.172C109.69 114.651 112.303 106.795 112.768 101.179C113.251 95.3408 111.5 90.8075 111.299 90.3087C111.24 90.1643 111.177 90.0232 111.108 89.8851C110.851 89.3832 104.689 77.562 92.5292 77.562H92.5261Z" fill="black"/>
<path d="M83.9338 109.245C83.9338 109.245 82.6663 115.99 85.1761 116.618C87.6859 117.245 90.8232 114.422 90.8232 114.422C90.8232 114.422 92.7055 112.539 96.9408 109.245H83.9338Z" fill="#7A282A"/>
<path d="M83.9215 112.853C83.9215 112.853 84.8627 111.285 86.7451 111.598C88.6274 111.912 89.9137 115.134 89.9137 115.134C89.9137 115.134 88.047 116.452 86.2996 116.69C84.5521 116.932 84.1004 115.636 84.1004 115.636C84.1004 115.636 83.7145 114.735 83.6612 113.794C83.6612 113.794 83.6109 113.167 83.9247 112.853H83.9215Z" fill="#B44D51"/>
<path d="M70.7451 103.128C70.7451 103.128 77.3333 89.9512 95.5294 86.5002C95.5294 86.5002 102.431 84.9316 105.569 93.0884C108.706 101.245 84.8627 102.186 84.8627 102.186C84.8627 102.186 74.5098 102.5 70.7451 103.128Z" fill="#FFD06A"/>
<path d="M70.7451 103.128C70.7451 103.128 71.3726 97.7942 74.8235 94.0295C78.2745 90.2648 82.6667 87.4413 82.6667 87.4413C82.6667 87.4413 85.8039 85.2452 90.5098 83.9903C95.2157 82.7354 102.118 88.1472 102.118 88.1472C102.118 88.1472 98.3529 85.5589 94.9019 86.8138C94.9019 86.8138 92.8063 88.0719 87.0745 90.0703C81.4463 92.0342 76.5114 95.6013 72.8628 100.317C72.1004 101.302 71.3977 102.255 70.7451 103.128Z" fill="white"/>
<path d="M49.4336 181.208C45.7159 181.208 38.3559 180.577 30.8485 176.354C19.523 169.983 19.7489 160.226 19.7646 159.815L19.8493 157.503L22.1489 157.261C26.3748 156.816 28.8626 153.958 29.2893 153.427C29.7755 152.533 32.3481 147.463 30.4156 143.702C30.952 145.427 30.9144 147.272 30.2901 149.148C28.5834 154.268 24.6367 157.324 19.7301 157.324C19.0964 157.324 18.6164 157.271 18.3528 157.23C17.2548 157.142 11.4258 156.48 8.1348 152.182C6.03599 149.44 5.42736 145.942 6.32775 141.779C8.7246 130.698 17.5528 129.838 20.2007 129.838C21.3583 129.838 22.1301 129.967 22.2744 129.995L23.2469 130.171L23.8681 130.94C24.552 131.783 25.603 132.527 26.9646 133.148C24.4924 131.52 22.4375 128.979 22.2681 125.208C21.8822 116.706 30.243 112.242 30.6006 112.056L33.3991 110.598L34.3716 113.6C37.5183 123.332 47.7928 131.369 47.8963 131.448L49.3394 132.565L48.8218 134.315C44.6806 148.27 46.2869 159.034 48.3637 165.606C50.6194 172.74 53.901 176.643 53.9355 176.681L57.1292 180.427L52.2539 181.063C52.141 181.079 51.1151 181.205 49.4241 181.205L49.4336 181.208Z" fill="#3292C4"/>
<path d="M31.8427 114.422C35.2937 125.088 46.2741 133.559 46.2741 133.559C37.8035 162.108 51.9211 178.422 51.9211 178.422C51.9211 178.422 51.0019 178.541 49.4333 178.541C45.907 178.541 39.1055 177.939 32.1565 174.03C22.1173 168.382 22.431 159.912 22.431 159.912C28.3918 159.284 31.529 154.892 31.529 154.892C31.529 154.892 37.1761 145.167 30.5753 139.752C27.7455 137.433 24.8686 136.768 22.5031 136.768C19.3471 136.768 17.0977 137.948 17.0977 137.948C17.242 137.901 17.4428 137.876 17.6875 137.876C20.6365 137.876 30.0796 141.352 27.7643 148.301C25.882 153.948 21.7063 154.654 19.7361 154.654C19.0804 154.654 18.6663 154.575 18.6663 154.575C18.6663 154.575 6.43102 153.948 8.94082 142.34C10.8357 133.575 17.2043 132.502 20.2067 132.502C21.1824 132.502 21.8035 132.615 21.8035 132.615C25.6655 137.386 35.4506 138.042 40.5549 138.042C42.5 138.042 43.7643 137.948 43.7643 137.948C44.078 135.752 45.0192 132.928 45.0192 132.928C43.4506 133.139 41.7094 133.208 40.0812 133.208C36.8278 133.208 34.0388 132.928 34.0388 132.928C34.0388 132.928 25.2545 131.987 24.9408 125.085C24.6271 118.183 31.8427 114.419 31.8427 114.419M34.9737 106.773L29.3769 109.694C28.9502 109.917 26.7071 111.143 24.4639 113.437C21.0945 116.881 19.4192 120.994 19.6137 125.33C19.642 125.961 19.7141 126.575 19.8271 127.175C17.5902 127.222 14.4216 127.702 11.3534 129.6C8.6616 131.266 5.15103 134.632 3.72985 141.214C2.39338 147.394 4.24123 151.47 6.02632 153.801C9.36749 158.168 14.6318 159.416 17.1039 159.768C17.0851 160.439 17.1102 163.3 18.6098 166.902C20.0059 170.252 23.0365 175.015 29.5463 178.676C37.5839 183.197 45.4584 183.871 49.4364 183.871C51.256 183.871 52.398 183.736 52.6082 183.708L62.6317 182.415L55.9713 174.946C55.758 174.685 52.8403 171.03 50.8388 164.539C48.0686 155.561 48.2537 145.647 51.3941 135.074L52.4356 131.567L49.5399 129.333C49.449 129.264 39.8114 121.697 36.9251 112.778L34.98 106.77L34.9737 106.773Z" fill="black"/>
<path d="M16.8396 129.399C16.4349 129.06 6.87258 120.872 2.46475 103.711L2.43338 103.589L2.41456 103.464C2.3675 103.134 1.9973 100.179 3.82004 98.0769C4.56043 97.2204 5.93768 96.2008 8.29062 96.2008C8.93689 96.2008 9.6365 96.2792 10.3675 96.433L10.5871 96.48L10.7941 96.5679C11.0953 96.6933 13.8028 97.9231 16.4412 102.017C17.0781 103.005 17.7934 104.16 18.5494 105.38C20.4349 108.424 22.7847 112.21 24.2341 113.86L25.1784 114.933L24.6608 116.267C24.6357 116.329 22.2451 122.532 21.9565 127.42L21.8561 129.145L17.7588 130.168L16.8396 129.396V129.399Z" fill="#3292C4"/>
<path d="M8.29109 98.5537C8.75854 98.5537 9.28874 98.6101 9.88482 98.7356C9.88482 98.7356 12.1468 99.6893 14.4683 103.291C16.7868 106.892 20.313 112.957 22.4715 115.413C22.4715 115.413 19.924 121.951 19.6103 127.285L18.3554 127.598C18.3554 127.598 9.0158 119.755 4.746 103.128C4.746 103.128 4.08091 98.5537 8.29423 98.5537M8.29109 93.8478C5.05031 93.8478 3.10209 95.3129 2.0417 96.5395C-0.411631 99.3756 -0.0163508 103.09 0.0871784 103.805L0.124824 104.056L0.187573 104.301C4.78364 122.183 14.9013 130.845 15.3279 131.203L17.1664 132.747L19.4942 132.163L20.7491 131.849L24.1028 131.012L24.3067 127.561C24.5734 123.052 26.8322 117.176 26.8542 117.12L27.8864 114.459L26.004 112.31C24.6832 110.808 22.393 107.112 20.5515 104.144C19.7891 102.914 19.0675 101.751 18.4213 100.747C15.4628 96.1537 12.3099 94.6572 11.7107 94.4031L11.2934 94.2274L10.8511 94.1333C9.9601 93.945 9.09736 93.8509 8.29109 93.8509V93.8478Z" fill="black"/>
<path d="M13.8408 146.315C13.8408 146.315 15.4094 151.335 23.5662 150.08C23.5662 150.08 31.2525 148.982 26.5466 141.766C26.5466 141.766 25.2917 139.57 19.6447 137.688C19.6447 137.688 18.0761 137.374 16.8212 138.001C15.5663 138.629 13.0565 142.08 13.8408 146.315Z" fill="#4BCDFF"/>
<path d="M19.9218 124.775C19.9218 124.775 6.74537 110.971 6.46929 106.315C6.46929 106.315 6.15557 101.923 9.92027 100.982C13.685 100.041 17.7634 108.198 17.7634 108.198C17.7634 108.198 20.9006 113.531 22.4693 115.413C22.4693 115.413 19.9218 122.265 19.9218 124.775Z" fill="#4BCDFF"/>
<path d="M40.1556 127.774C40.1556 127.774 38.3391 130.331 32.0426 129.556C25.7462 128.778 25.6489 125.016 25.6489 125.016C25.6489 125.016 26.4834 120.941 32.6513 116.687C32.6513 116.687 35.3242 122.88 40.1587 127.777L40.1556 127.774Z" fill="#4BCDFF"/>
<path d="M176.156 122.265C176.156 122.265 188.391 127.598 206.273 119.441C224.155 111.284 231.999 103.755 231.999 103.755C231.999 103.755 242.665 94.3433 245.489 88.6963C245.489 88.6963 253.112 101.559 223.575 127.912C223.575 127.912 228.036 126.271 230.803 128.819C230.803 128.819 225.724 132.932 222.273 135.128C222.273 135.128 233.445 130.158 245.897 129.192C245.897 129.192 257.724 129.794 239.842 143.284C221.959 156.775 203.45 152.696 203.45 152.696L216.94 158.657C216.94 158.657 192.156 163.049 184.312 157.088L191.528 165.873C191.528 165.873 166.963 167.526 155.45 149.873C150.744 142.657 161.724 134.5 161.724 134.5C161.724 134.5 167.371 130.735 176.156 122.265Z" fill="#4BCDFF"/>
<path d="M109.488 63.5337C109.488 63.5337 117.292 51.0699 130.066 51.1628C130.066 51.1628 125.771 46.2159 118.649 48.7375C111.527 51.2591 108.211 56.8827 109.488 63.5337Z" fill="#011619"/>
<path d="M78.3324 63.1648C78.3324 63.1648 72.973 53.0808 61.5584 51.6027C61.5584 51.6027 65.2 46.7196 72.45 49.7279C79.7001 52.7361 78.3324 63.1648 78.3324 63.1648Z" fill="#011619"/>
<path d="M145.097 117.245C150.122 117.245 154.195 115.209 154.195 112.696C154.195 110.184 150.122 108.147 145.097 108.147C140.072 108.147 135.999 110.184 135.999 112.696C135.999 115.209 140.072 117.245 145.097 117.245Z" fill="#FF5527"/>
<path d="M49.0978 113.794C53.2561 113.794 56.6272 112.109 56.6272 110.03C56.6272 107.951 53.2561 106.265 49.0978 106.265C44.9394 106.265 41.5684 107.951 41.5684 110.03C41.5684 112.109 44.9394 113.794 49.0978 113.794Z" fill="#FF5527"/>
<path d="M222.072 147.553C215.173 147.553 209.557 144.658 209.159 144.444C208.606 144.156 201.786 140.422 199.157 130.957C196.782 122.408 197.752 117.533 198.009 116.51C198.294 114.979 200.914 103.447 215.311 100.172C219.527 99.2147 222.903 97.9535 225.347 96.4288C227.122 95.3214 228.387 93.5802 228.914 91.5222C230.269 86.2171 233.695 76.8493 241.416 73.734C245.312 72.1622 249.435 71.3654 253.67 71.3654C256.97 71.3654 259.235 71.8736 259.646 71.974C260.773 72.2187 274.831 75.5881 278.297 90.6249C280.164 98.7159 277.742 104.272 275.386 107.503C272.857 110.97 269.927 112.523 269.601 112.689L269.513 112.733C269.293 112.834 264.039 115.221 258.247 115.221C257.077 115.221 255.948 115.124 254.89 114.929C254.379 114.835 253.915 114.7 253.504 114.581C253.453 114.606 253.359 114.666 253.221 114.794C252.732 115.259 252.189 115.698 251.606 116.096C249.491 117.549 247.766 119.039 246.871 120.181C245.805 121.543 245.413 124.686 245.416 126.349V126.421C245.406 126.823 245.042 136.335 234.112 143.924C230.639 146.333 226.589 147.557 222.078 147.557L222.072 147.553Z" fill="#4E7891"/>
<path d="M253.667 73.8752C256.967 73.8752 259.078 74.4179 259.078 74.4179C259.078 74.4179 272.634 77.2414 275.847 91.1865C279.047 105.066 268.459 110.449 268.459 110.449C268.459 110.449 263.549 112.705 258.241 112.705C257.274 112.705 256.299 112.63 255.332 112.454C254.912 112.375 254.501 112.253 254.09 112.134C253.943 112.09 253.739 112.052 253.494 112.052C252.97 112.052 252.255 112.237 251.486 112.968C251.078 113.354 250.639 113.706 250.178 114.023C248.857 114.932 246.329 116.79 244.889 118.628C242.874 121.201 242.9 126.352 242.9 126.352C242.9 126.352 242.686 134.907 232.672 141.853C229.215 144.253 225.478 145.037 222.068 145.037C215.609 145.037 210.322 142.217 210.322 142.217C210.322 142.217 203.991 138.986 201.569 130.28C199.147 121.574 200.456 117.047 200.456 117.047C200.456 117.047 202.241 105.712 215.86 102.615C221.023 101.442 224.431 99.952 226.671 98.5528C228.995 97.1002 230.661 94.7943 231.339 92.1402C232.399 87.9865 235.464 78.8351 242.347 76.0587C246.642 74.3238 250.648 73.872 253.66 73.872M253.667 68.8556C249.108 68.8556 244.669 69.7152 240.474 71.4061C231.731 74.9355 227.954 85.1347 226.482 90.901C226.118 92.3285 225.243 93.5363 224.02 94.2987C222.504 95.2461 219.665 96.6077 214.755 97.7245C206.106 99.6916 201.35 104.514 198.884 108.209C196.547 111.71 195.765 114.92 195.562 115.958C195.185 117.483 194.275 122.763 196.741 131.629C199.618 141.972 206.94 146.117 207.998 146.666C208.791 147.086 214.683 150.06 222.074 150.06C227.107 150.06 231.637 148.686 235.539 145.979C240.402 142.606 244.07 138.289 246.15 133.495C247.762 129.781 247.91 126.998 247.922 126.477V126.386V126.333C247.929 124.592 248.383 122.311 248.845 121.721C249.566 120.799 251.169 119.434 253.023 118.157C253.403 117.897 253.773 117.621 254.125 117.332C254.225 117.354 254.329 117.373 254.435 117.395C255.643 117.615 256.923 117.728 258.244 117.728C264.471 117.728 269.955 115.29 270.557 115.011L270.648 114.97L270.736 114.926C271.116 114.732 274.539 112.921 277.409 108.981C280.076 105.326 282.818 99.0735 280.738 90.0602C279.125 83.061 275.059 77.2853 268.979 73.3575C264.785 70.6469 260.995 69.7026 260.208 69.5269C259.605 69.3826 257.165 68.8524 253.663 68.8524L253.667 68.8556Z" fill="black"/>
<path opacity="0.5" d="M235.774 84.3441C235.774 84.3441 237.293 75.3182 248.424 73.4923C259.555 71.6664 268.753 79.7574 268.753 79.7574C268.753 79.7574 274.046 83.8264 275.978 91.3715C277.911 98.9166 269.293 104.623 269.293 104.623C269.293 104.623 261.327 110.173 253.073 105.85C252.207 105.395 251.166 105.448 250.366 106.013C247.718 107.889 242.196 112.41 241.631 117.784C240.885 124.877 238.25 128.78 238.25 128.78C238.25 128.78 232.913 138.455 221.189 138.653C209.465 138.851 204.766 130.973 204.766 130.973C204.766 130.973 198.861 121.759 204.405 110.917C204.443 110.841 204.483 110.769 204.53 110.697C205.114 109.771 209.243 103.691 217.61 102.361C226.67 100.918 228.477 98.7879 228.477 98.7879C228.477 98.7879 234.4 94.7974 235.771 84.3503L235.774 84.3441Z" fill="#8DABB5"/>
<path d="M211.919 115.108L216.415 119.375L210.103 125.348L214.717 129.941L221.03 123.968L225.761 128.887L230.353 124.272L226.3 120.212L232.286 114.358L227.019 110L221.848 114.942L216.835 110.377L211.919 115.108Z" fill="#92AAAC"/>
<path d="M226.771 125.571L224.568 127.648L225.761 128.887L230.353 124.272L229.233 123.152L226.771 125.571Z" fill="#44728A"/>
<path d="M221.597 116.391L216.775 112.24L213.123 116.253L211.918 115.108L216.835 110.377L221.848 114.942L227.018 110L227.796 110.644L232.285 114.358L231.216 115.403L226.547 111.682L221.597 116.391Z" fill="#E9F7F8"/>
<path d="M212.204 126.06L210.658 124.824L210.103 125.348L214.717 129.941L215.888 128.833L212.204 126.06Z" fill="#44728A"/>
<path d="M206.249 133.012C206.249 133.012 200.687 129.868 199.689 121.018C198.961 114.565 202.701 109.232 204.781 106.819C205.606 105.859 206.585 105.05 207.674 104.407C209.901 103.089 214.221 100.968 218.899 101.021C220.677 101.043 222.444 100.636 224.053 99.8732C225.75 99.067 227.68 97.7462 229.164 95.5878C231.592 92.0584 232.216 88.8019 232.376 87.249C232.477 86.2607 232.69 85.2913 233.035 84.3627C234.23 81.1345 237.396 74.86 244.282 73.4482C244.524 73.398 244.762 73.3478 245.001 73.2882C247.357 72.6921 262.808 69.4325 272.483 83.9329C272.483 83.9329 265.267 76.2309 255.47 74.6247C245.672 73.0184 239.689 78.8725 239.689 78.8725C239.689 78.8725 235.63 82.9258 235.178 90.8286C234.905 95.6223 230.51 98.8317 227.956 100.592C226.456 101.624 224.721 102.264 222.914 102.483C218.657 103.001 208.994 104.651 206.064 109.125C202.271 114.923 198.98 119.064 206.249 133.012Z" fill="white"/>
<path d="M252.698 97.8586C253.624 95.6149 252.714 93.1098 250.664 92.2632C248.614 91.4167 246.201 92.5492 245.274 94.7929C244.348 97.0365 245.258 99.5416 247.308 100.388C249.358 101.235 251.771 100.102 252.698 97.8586Z" fill="#04151F"/>
<path d="M251.284 96.9801C251.79 95.3718 251.067 93.7121 249.671 93.2731C248.274 92.834 246.732 93.7819 246.226 95.3902C245.721 96.9985 246.443 98.6582 247.84 99.0972C249.237 99.5362 250.779 98.5884 251.284 96.9801Z" fill="#09C3F2"/>
<path d="M250.47 93.7025C250.47 93.7025 251.097 94.9793 250.937 95.9738C250.777 96.9684 249.933 97.7934 249.933 97.7934C249.933 97.7934 248.217 99.7856 246.307 97.6084C246.307 97.6084 246.423 98.2609 247.27 98.8225C248.117 99.3872 248.986 99.1707 248.986 99.1707C248.986 99.1707 250.495 99.0107 251.176 97.3229C251.856 95.635 251.317 94.4868 250.467 93.6993L250.47 93.7025Z" fill="#00598E"/>
<path d="M252.822 86.306C253.749 84.0623 252.838 81.5572 250.788 80.7106C248.738 79.8641 246.326 80.9966 245.399 83.2403C244.472 85.4839 245.383 87.989 247.433 88.8356C249.483 89.6821 251.896 88.5496 252.822 86.306Z" fill="#04151F"/>
<path d="M251.41 85.4316C251.915 83.8234 251.193 82.1637 249.796 81.7246C248.4 81.2856 246.857 82.2334 246.352 83.8417C245.846 85.45 246.569 87.1097 247.965 87.5487C249.362 87.9878 250.904 87.0399 251.41 85.4316Z" fill="#F78927"/>
<path d="M250.593 82.1541C250.593 82.1541 251.221 83.431 251.061 84.4255C250.901 85.42 250.057 86.2451 250.057 86.2451C250.057 86.2451 248.341 88.2373 246.43 86.06C246.43 86.06 246.546 86.7126 247.393 87.2741C248.24 87.8357 249.109 87.6224 249.109 87.6224C249.109 87.6224 250.618 87.4624 251.299 85.7745C251.98 84.0867 251.44 82.9385 250.59 82.151L250.593 82.1541Z" fill="#F15A24"/>
<path d="M264.371 86.4343C265.298 84.1906 264.387 81.6855 262.338 80.8389C260.288 79.9924 257.875 81.1249 256.948 83.3686C256.022 85.6122 256.932 88.1173 258.982 88.9639C261.032 89.8104 263.445 88.6779 264.371 86.4343Z" fill="#04151F"/>
<path d="M262.959 85.5584C263.465 83.9501 262.742 82.2904 261.346 81.8513C259.949 81.4123 258.407 82.3601 257.901 83.9684C257.396 85.5767 258.118 87.2364 259.515 87.6754C260.912 88.1145 262.454 87.1666 262.959 85.5584Z" fill="#FF2E2A"/>
<path d="M262.144 82.2794C262.144 82.2794 262.771 83.5562 262.611 84.5508C262.451 85.5453 261.607 86.3704 261.607 86.3704C261.607 86.3704 259.891 88.3625 257.98 86.1853C257.98 86.1853 258.097 86.8378 258.944 87.3994C259.791 87.9641 260.66 87.7476 260.66 87.7476C260.66 87.7476 262.169 87.5876 262.849 85.8998C263.53 84.2119 262.991 83.0637 262.14 82.2762L262.144 82.2794Z" fill="#A30408"/>
<path d="M264.248 97.9841C265.175 95.7404 264.264 93.2353 262.214 92.3887C260.164 91.5422 257.751 92.6747 256.825 94.9184C255.898 97.162 256.809 99.6671 258.859 100.514C260.908 101.36 263.321 100.228 264.248 97.9841Z" fill="#04151F"/>
<path d="M262.835 97.1068C263.34 95.4985 262.618 93.8388 261.221 93.3998C259.824 92.9607 258.282 93.9086 257.777 95.5169C257.271 97.1252 257.994 98.7849 259.39 99.2239C260.787 99.663 262.329 98.7151 262.835 97.1068Z" fill="#62D717"/>
<path d="M262.016 93.828C262.016 93.828 262.644 95.1048 262.484 96.0993C262.324 97.0938 261.48 97.9189 261.48 97.9189C261.48 97.9189 259.764 99.9111 257.853 97.7338C257.853 97.7338 257.969 98.3864 258.816 98.948C259.663 99.5095 260.532 99.2962 260.532 99.2962C260.532 99.2962 262.041 99.1362 262.722 97.4483C263.403 95.7605 262.863 94.6123 262.013 93.8248L262.016 93.828Z" fill="#266A00"/>
<path d="M258.621 84.6946C258.516 84.5735 258.514 84.3906 258.616 84.146C258.686 83.9753 258.787 83.808 258.92 83.6439C259.07 83.4581 259.238 83.299 259.425 83.1667C259.527 83.094 259.685 83.0937 259.898 83.1659C260.051 83.218 260.167 83.2773 260.244 83.3441C260.365 83.4459 260.444 83.5852 260.481 83.7622C260.513 83.9198 260.507 84.0825 260.463 84.2504C260.63 84.1576 260.83 84.0944 261.065 84.0606C261.309 84.0544 261.517 84.1205 261.688 84.2589C261.883 84.4167 261.991 84.617 262.01 84.8598C262.018 84.9339 261.978 85.0694 261.891 85.2661C261.814 85.4508 261.746 85.5793 261.687 85.6517C261.508 85.8737 261.369 86.0263 261.27 86.1097C261.1 86.2513 260.941 86.3123 260.793 86.2928C260.52 86.2557 260.059 85.975 259.41 85.4509C258.966 85.0924 258.703 84.8402 258.621 84.6946ZM259.445 84.3852C259.498 84.4281 259.558 84.446 259.623 84.439C259.688 84.4277 259.742 84.3955 259.785 84.3424C259.828 84.2893 259.848 84.2299 259.845 84.164C259.84 84.0961 259.811 84.0408 259.758 83.9979C259.707 83.957 259.649 83.9434 259.582 83.9571C259.514 83.9665 259.46 83.9965 259.419 84.0472C259.378 84.0979 259.36 84.1571 259.365 84.225C259.368 84.2909 259.395 84.3443 259.445 84.3852ZM260.683 85.3252C260.734 85.3661 260.796 85.3739 260.868 85.3486C260.925 85.3271 260.976 85.2885 261.021 85.233C261.064 85.18 261.09 85.1198 261.101 85.0525C261.111 84.9809 261.091 84.9246 261.04 84.8837C260.987 84.8408 260.909 84.8281 260.808 84.8455C260.706 84.863 260.634 84.8983 260.591 84.9513C260.548 85.0044 260.539 85.0693 260.565 85.1459C260.588 85.2206 260.628 85.2804 260.683 85.3252Z" fill="white"/>
<path d="M247.122 84.6454C247.062 84.5967 247.054 84.5026 247.099 84.3634C247.133 84.2516 247.18 84.1596 247.238 84.0872C247.324 83.981 247.405 83.9448 247.481 83.9786C247.548 83.9803 247.642 84.0089 247.765 84.0642C247.906 84.1263 248 84.1626 248.048 84.173C248.149 84.1953 248.227 84.1704 248.281 84.0985C248.391 83.9479 248.294 83.7057 247.989 83.3721C247.935 83.3006 247.964 83.1961 248.075 83.0586C248.145 82.9717 248.229 82.9021 248.327 82.8498C248.45 82.7859 248.551 82.7851 248.628 82.8475C248.992 83.2057 249.22 83.455 249.31 83.5953C249.484 83.8679 249.51 84.132 249.387 84.3877C249.404 84.4212 249.44 84.4603 249.496 84.5051C249.578 84.5714 249.71 84.6599 249.891 84.7707C250.075 84.879 250.208 84.9664 250.29 85.0326C250.35 85.0813 250.393 85.122 250.418 85.1545C250.51 85.2683 250.465 85.4374 250.284 85.6618C250.219 85.7414 250.139 85.8161 250.043 85.8859C249.914 85.9812 249.82 86.0089 249.761 85.9689C249.677 85.9094 249.545 85.7868 249.364 85.6009C249.171 85.4009 249.042 85.2746 248.977 85.222C248.907 85.1655 248.849 85.1331 248.804 85.1246C248.541 85.2828 248.254 85.3001 247.943 85.1766C247.731 85.0933 247.458 84.9162 247.122 84.6454Z" fill="white"/>
<path d="M246.748 96.1738C246.649 96.0983 246.598 95.9835 246.595 95.8294C246.595 95.6861 246.636 95.5649 246.715 95.466C246.774 95.3936 246.847 95.3406 246.933 95.3071C247.004 95.2886 247.177 95.3286 247.452 95.4272C247.7 95.5155 247.841 95.538 247.876 95.4946C247.902 95.4632 247.841 95.3505 247.695 95.1566C247.523 94.9345 247.431 94.78 247.417 94.6932C247.423 94.5867 247.462 94.49 247.532 94.4031C247.614 94.3018 247.717 94.2378 247.842 94.2113C247.967 94.1804 248.078 94.2061 248.175 94.2884C248.325 94.4136 248.443 94.5708 248.529 94.7601C248.575 94.861 248.631 95.0216 248.696 95.2418C248.748 95.415 248.795 95.5247 248.837 95.5709C248.901 95.6104 249.081 95.6398 249.376 95.6591C249.656 95.6778 249.872 95.7265 250.023 95.8052C250.091 95.82 250.158 95.8538 250.223 95.9064C250.314 95.9804 250.361 96.0681 250.363 96.1693C250.363 96.2686 250.324 96.3653 250.248 96.4594C250.206 96.5125 250.15 96.5636 250.083 96.6127C250.036 96.6861 249.936 96.6977 249.786 96.6476C249.691 96.6114 249.551 96.5579 249.365 96.4873C249.207 96.4314 249.104 96.4302 249.057 96.4837C249.02 96.5296 249.042 96.6309 249.122 96.7877C249.194 96.9256 249.268 97.0688 249.343 97.2174C249.411 97.38 249.41 97.5047 249.34 97.5916C249.245 97.7142 249.123 97.7867 248.973 97.8093C248.825 97.8295 248.691 97.7908 248.57 97.6934C248.44 97.5882 248.34 97.4158 248.27 97.1762C248.266 97.1568 248.237 97.0154 248.182 96.7522C248.155 96.6184 248.117 96.5341 248.069 96.4995C248.012 96.4615 247.897 96.4341 247.723 96.4173C247.445 96.3918 247.276 96.3734 247.218 96.3619C247.017 96.3237 246.861 96.261 246.748 96.1738Z" fill="white"/>
<path d="M258.73 95.7253C258.642 95.5428 258.722 95.2983 258.969 94.9919C259.063 94.876 259.165 94.7813 259.277 94.7077C259.422 94.6062 259.551 94.5683 259.661 94.594C259.896 94.644 260.314 94.8355 260.914 95.1686C261.483 95.4807 261.882 95.7293 262.111 95.9145C262.215 95.9982 262.265 96.0568 262.262 96.0902C262.28 96.1325 262.267 96.2034 262.222 96.3029C262.184 96.3841 262.146 96.4489 262.107 96.4971C262.014 96.613 261.9 96.6824 261.765 96.7055C261.584 96.6829 261.429 96.6333 261.3 96.5566C261.207 96.4981 261.069 96.4125 260.885 96.2997C260.802 96.2601 260.734 96.2717 260.684 96.3344C260.662 96.3609 260.649 96.3977 260.643 96.4446C260.634 96.4897 260.644 96.5217 260.673 96.5407C260.768 96.6298 260.908 96.7648 261.093 96.9459C261.228 97.0792 261.297 97.1921 261.298 97.2846C261.301 97.4188 261.254 97.5462 261.156 97.6669C261.028 97.8261 260.887 97.904 260.735 97.9004C260.693 97.907 260.602 97.8528 260.459 97.7378C260.184 97.5157 259.875 97.2101 259.531 96.821C259.13 96.3653 258.863 96.0001 258.73 95.7253ZM259.731 95.9958C259.789 96.0426 259.855 96.0598 259.929 96.0476C260 96.0334 260.059 95.9973 260.106 95.9394C260.153 95.8815 260.175 95.8162 260.174 95.7436C260.173 95.6665 260.143 95.6046 260.085 95.5579C260.027 95.5111 259.962 95.496 259.888 95.5127C259.815 95.5249 259.754 95.56 259.708 95.6179C259.661 95.6758 259.639 95.7421 259.643 95.8167C259.644 95.8893 259.673 95.9491 259.731 95.9958Z" fill="white"/>
</svg>
