<svg width="48" height="48" viewBox="0 0 48 48" fill="none" xmlns="http://www.w3.org/2000/svg">
<path fill-rule="evenodd" clip-rule="evenodd" d="M10.9401 10.94C11.2214 10.6591 11.6026 10.5013 12.0001 10.5013C12.3976 10.5013 12.7789 10.6591 13.0601 10.94L37.0601 34.94C37.2075 35.0773 37.3257 35.2429 37.4077 35.4269C37.4897 35.6109 37.5338 35.8096 37.5373 36.011C37.5409 36.2124 37.5038 36.4124 37.4284 36.5992C37.3529 36.786 37.2407 36.9557 37.0982 37.0981C36.9558 37.2405 36.7861 37.3528 36.5993 37.4283C36.4126 37.5037 36.2125 37.5408 36.0111 37.5372C35.8097 37.5337 35.6111 37.4896 35.4271 37.4076C35.2431 37.3256 35.0775 37.2074 34.9401 37.06L10.9401 13.06C10.6592 12.7788 10.5015 12.3975 10.5015 12C10.5015 11.6025 10.6592 11.2213 10.9401 10.94Z" fill="black"/>
<path fill-rule="evenodd" clip-rule="evenodd" d="M37.0602 10.94C37.3411 11.2213 37.4989 11.6025 37.4989 12C37.4989 12.3975 37.3411 12.7788 37.0602 13.06L13.0602 37.06C12.7758 37.325 12.3997 37.4692 12.0111 37.4624C11.6225 37.4555 11.2518 37.2981 10.9769 37.0233C10.7021 36.7484 10.5447 36.3777 10.5378 35.9891C10.531 35.6005 10.6752 35.2244 10.9402 34.94L34.9402 10.94C35.2214 10.6591 35.6027 10.5013 36.0002 10.5013C36.3977 10.5013 36.7789 10.6591 37.0602 10.94Z" fill="black"/>
</svg>
