<svg width="477" height="222" viewBox="0 0 477 222" fill="none" xmlns="http://www.w3.org/2000/svg">
<path d="M329.625 18.437L322.301 90.8414L342.35 90.333L346.713 47.2052C347.553 38.8944 353.045 34.8088 355.686 33.8049C357.688 32.842 362.565 31.7046 366.055 34.8577C369.545 38.0108 369.762 43.1851 369.435 45.378L364.976 89.4503L387.571 88.8823L392.634 38.8289C392.812 37.066 392.735 33.6446 392.674 32.1542C391.528 27.7973 386.119 18.5127 373.653 16.2291C361.187 13.9455 351.815 22.9166 348.687 27.6875L349.706 17.6138L329.625 18.437Z" fill="#E6E5EA"/>
<path d="M312.056 91.7093L288.519 92.1816L295.684 21.3512L319.348 19.6198L312.056 91.7093Z" fill="#E6E5EA"/>
<path d="M270.287 2.55241L244.801 3.46282L235.535 95.0701L282.986 93.5279L284.451 79.047L262.485 79.6788L270.287 2.55241Z" fill="#E6E5EA"/>
<path fill-rule="evenodd" clip-rule="evenodd" d="M161.067 66.8366C161.431 66.2887 162 66.2091 162.41 66.6497C162.819 67.0884 163.038 68.0121 162.925 68.8303C162.765 68.8664 162.604 68.902 162.444 68.9376C162.284 68.9733 162.124 69.0089 161.964 69.045C161.573 69.132 161.104 69.1653 160.866 68.6155C160.634 68.0824 160.777 67.2698 161.067 66.8366ZM157.921 49.4474C158.878 48.3811 160.356 49.551 159.902 50.3007C159.599 50.8005 158.976 50.5747 158.352 50.3489C158.041 50.2359 157.729 50.123 157.457 50.1008C157.401 49.6788 157.698 49.2623 157.921 49.4474ZM124.695 38.1945C126.794 37.356 130.785 38.9072 135.464 42.1855C141.314 38.661 146.291 37.1579 148.572 38.4C145.626 39.4922 141.973 41.4543 137.997 44.081C139.785 45.4971 141.633 47.1242 143.492 48.9439C148.248 46.443 152.178 45.486 154.129 46.5485C151.667 47.4611 148.714 48.9772 145.492 50.9782C147.696 53.2958 149.676 55.6486 151.368 57.9273C155.313 56.1002 158.519 55.4912 160.221 56.4186C158.099 57.2053 155.6 58.4567 152.89 60.0634C156.319 65.1169 158.171 69.5911 157.723 72.1493C156.134 69.0635 153.675 65.3872 150.578 61.4906C147.459 63.4935 144.121 65.9148 140.726 68.7155C139.739 69.53 138.78 70.35 137.847 71.17C141.188 76.0014 142.957 80.3885 142.457 83.0226C140.969 80.1035 138.643 76.6771 135.722 73.0896C130.722 77.7248 126.716 82.3007 124.278 86.0566C124.007 82.7376 127.753 76.7826 133.763 70.7665C132.05 68.8025 130.193 66.8144 128.18 64.8485C128.15 64.8189 128.119 64.7909 128.089 64.763C128.074 64.749 128.059 64.735 128.044 64.7208C123.781 68.8358 120.359 72.8379 118.186 76.1884C117.942 73.2044 120.947 68.088 125.922 62.7142C124.171 61.1038 122.439 59.6229 120.753 58.2882C117.296 61.7924 114.499 65.1577 112.629 68.038C112.417 65.4353 114.673 61.2093 118.554 56.6056C115.525 54.3824 112.717 52.6905 110.34 51.6483C112.368 50.658 116.103 51.7612 120.478 54.4435C122.498 52.2722 124.828 50.0638 127.408 47.9369C129.295 46.382 131.171 44.9918 132.994 43.7663C129.927 41.3284 127.09 39.4237 124.695 38.1945ZM150.392 74.9796C150.431 75.4183 150.261 75.8552 150.036 76.0625C149.812 76.2698 149.546 76.2902 149.293 76.2513C148.98 76.205 148.65 76.057 148.437 75.6497C148.225 75.2425 148.192 74.5168 148.44 74.1762C148.668 74.2509 148.897 74.1932 149.128 74.1352C149.263 74.1012 149.399 74.0671 149.534 74.0596C149.901 74.0411 150.336 74.3447 150.392 74.9796ZM123.548 76.0699C123.426 75.8145 123.325 75.4794 123.376 75.1573C123.458 74.639 123.858 74.5279 124.154 74.6668C124.259 74.7167 124.371 74.71 124.482 74.7033C124.685 74.6911 124.887 74.679 125.044 75.0074C125.287 75.5164 125.084 76.5567 124.679 76.7844C124.274 77.0121 123.822 76.6382 123.548 76.0699ZM117.967 65.8574C117.957 65.721 117.928 65.612 117.9 65.5032C117.843 65.2854 117.787 65.0682 117.879 64.6338C117.967 64.2176 118.066 64.3142 118.127 64.3742C118.162 64.4081 118.185 64.4303 118.187 64.3413C118.468 64.0581 118.869 64.2432 119.034 64.7338C119.199 65.2225 119.097 65.9296 118.819 66.2221C118.541 66.5127 118.137 66.3405 117.967 65.8574ZM114.04 73.0859C113.684 73.5321 112.339 72.1456 112.339 71.4644C112.339 70.7832 113.162 70.7517 113.548 71.1201C113.935 71.4884 114.396 72.6398 114.04 73.0859ZM120.207 46.2783C120.048 46.5411 118.806 46.5893 118.291 45.8507C117.776 45.1121 118.393 44.094 118.227 44.4364L118.944 44.1069C119.331 44.0681 119.749 44.107 120.059 44.5123C120.37 44.9196 120.367 46.0154 120.207 46.2783ZM109.509 61.5962C109.252 61.6832 108.993 61.4999 108.753 61.3222C108.75 61.1853 108.723 61.0616 108.695 60.938C108.64 60.6904 108.584 60.4431 108.726 60.0912C108.866 59.7428 109.003 59.8722 109.141 60.0019C109.213 60.0693 109.285 60.1368 109.357 60.1375C109.569 60.1393 109.811 60.2634 109.893 60.6058C109.994 61.026 109.766 61.5091 109.509 61.5962ZM130.461 62.4189C132.521 64.4605 134.377 66.5541 135.984 68.6125C136.969 67.7075 137.998 66.8082 139.071 65.9218C142.422 63.1588 145.751 60.8872 148.782 59.2108C147.005 57.0968 145.06 54.942 142.976 52.7984C142.952 52.7733 142.928 52.7502 142.904 52.727C142.88 52.7038 142.857 52.6806 142.833 52.6556C140.201 54.4321 137.437 56.4923 134.639 58.7991C133.187 60.0008 131.793 61.2098 130.461 62.4189ZM138.862 60.0323C139.178 59.7047 139.442 59.7826 139.705 59.8604C139.837 59.8994 139.969 59.9383 140.107 59.9266C140.185 60.4013 140.135 60.9576 139.937 61.3081C139.722 61.6864 139.35 61.7513 139.098 61.4509C138.845 61.1505 138.39 60.5237 138.862 60.0323ZM132.976 56.0229C131.282 57.4176 129.691 58.8476 128.225 60.2794C126.447 58.6753 124.678 57.2528 122.97 56.0377C124.862 54.2373 126.907 52.4202 129.08 50.6309C131.255 48.8416 133.401 47.2172 135.49 45.7409C137.182 47.1857 138.924 48.7805 140.684 50.4938C138.216 52.0053 135.605 53.8594 132.976 56.0229Z" fill="#E6E5EA"/>
<path fill-rule="evenodd" clip-rule="evenodd" d="M74.3054 120.044L105.235 118.737L69.5958 88.0828C76.0297 87.2531 89.8271 80.7911 93.5454 61.5805C97.2637 42.3699 82.1289 31.0575 74.0967 27.8027C73.0915 27.2764 68.3719 26.0121 57.5354 25.1644C46.6988 24.3167 38.8153 22.9426 36.2282 22.3614C31.9966 21.2951 22.3936 21.0181 17.8339 28.4407C16.6897 30.3384 14.2996 35.1409 13.8927 39.1699L3.75117 139.58C3.11534 145.876 3.99765 160.402 12.6135 168.147C19.896 176.52 30.2857 179.697 34.5702 180.238C40.8663 180.773 56.4453 181.191 68.3921 178.59C80.339 175.989 85.0116 167.03 85.8545 162.876C86.3713 159.855 85.9721 153.539 80.2402 152.447C74.5084 151.355 69.5088 154.96 67.7255 156.898C66.1093 159.278 60.8083 164.399 52.5339 165.847C44.2595 167.295 38.1913 165.343 36.1915 164.185C31.9082 162.584 23.7718 157.007 25.4926 147.515L30.3249 99.6709C34.2221 99.8552 43.4377 99.9869 49.1215 99.0385L74.3054 120.044ZM36.0256 43.3257L32.2745 80.4658C41.2418 80.7418 60.5669 80.0998 66.129 75.3234C71.691 70.5471 73.8632 63.7088 74.254 60.8868C74.5719 57.7393 73.669 50.3339 67.5141 45.8922C61.3592 41.4505 43.9572 42.3305 36.0256 43.3257Z" fill="#E6E5EA"/>
<path fill-rule="evenodd" clip-rule="evenodd" d="M132.341 98.5772C154.903 100.872 174.858 86.2449 176.912 65.9072C178.966 45.5694 162.341 27.2223 139.78 24.9277C117.218 22.6331 97.2629 37.26 95.2088 57.5977C93.1548 77.9355 109.78 96.2826 132.341 98.5772ZM133.282 88.465C149.335 90.0976 163.552 79.5042 165.036 64.8038C166.521 50.1035 154.711 36.863 138.658 35.2304C122.605 33.5977 108.388 44.1912 106.903 58.8915C105.419 73.5918 117.229 86.8323 133.282 88.465Z" fill="#E6E5EA"/>
<path d="M178.366 7.52997L203.192 6.87055L197.061 80.0322L234.613 79.0749L233.021 94.815L169.354 96.6188L178.366 7.52997Z" fill="#E6E5EA"/>
<path fill-rule="evenodd" clip-rule="evenodd" d="M418.658 29.4183C412.779 31.0462 399.705 37.284 394.436 49.2125C389.168 61.1409 390.273 71.5766 391.484 75.3033C393.415 81.3291 400.431 94.2102 413.049 97.5284C425.666 100.847 435.129 99.9859 438.283 99.1409C440.578 98.4204 445.778 96.5963 448.219 95.0639L446.502 112.059L258.245 118.351C256.841 118.632 253.196 119.936 249.849 122.902L215.938 150.614L253.472 197.039C254.885 198.772 258.916 202.234 263.743 202.217C268.571 202.199 272.482 200.562 273.834 199.745C276.99 197.84 283.428 192.772 283.936 187.736L285.621 171.055L424.472 166.735C432.549 166.39 444.965 165.003 454.025 157.022C458.734 152.307 467.834 140.366 466.564 130.316L383.435 132.99C381.529 133.008 377.534 132.327 376.808 129.455C376.082 126.583 381.432 125.579 384.198 125.437L467.358 122.448L472.508 71.461C473.365 64.0229 473.177 47.2364 465.567 39.5945C456.056 30.0421 438.371 22.8381 418.658 29.4183ZM431.511 84.4352C444.006 85.7061 455.076 77.4359 456.234 65.9633C457.393 54.4907 448.202 44.1601 435.707 42.8893C423.211 41.6184 412.142 49.8886 410.983 61.3612C409.824 72.8338 419.015 83.1644 431.511 84.4352Z" fill="#E6E5EA"/>
<path fill-rule="evenodd" clip-rule="evenodd" d="M192.069 148.229L225.382 120.14C144.602 120.318 116.715 123.184 112.869 124.595C107.252 126.779 95.4476 134.269 93.1706 146.756C90.8936 159.243 95.0529 167.932 97.4172 170.717C100.453 175.858 107.855 176.335 111.176 175.931L164.666 174.376L169.75 180.617C174.938 187.927 186.645 203.193 191.972 205.769C197.299 208.346 203.432 205.451 205.833 203.681L224.518 188.412L192.069 148.229ZM135.163 142.761L136.465 129.859L149.509 129.597L148.207 142.5L135.163 142.761ZM116.605 156.767L117.97 143.236L130.982 143.289L129.649 156.506L116.605 156.767ZM133.798 156.293L132.433 169.824L145.823 169.28L146.874 155.717L133.798 156.293ZM163.972 156.186L150.96 156.133L152.293 142.916L165.337 142.654L163.972 156.186ZM197.759 195.546C203.834 196.165 209.256 191.735 209.87 185.652C210.483 179.568 206.056 174.135 199.981 173.517C193.906 172.898 188.483 177.328 187.869 183.411C187.256 189.494 191.683 194.927 197.759 195.546Z" fill="#E6E5EA"/>
</svg>
