<svg width="756" height="351" viewBox="0 0 756 351" fill="#FFFF" xmlns="http://www.w3.org/2000/svg">
<path d="M521.883 29.1344L510.288 143.548L542.03 142.745L548.937 74.594C550.268 61.4613 558.964 55.0052 563.145 53.4187C566.315 51.8972 574.035 50.0999 579.561 55.0824C585.087 60.065 585.431 68.2414 584.912 71.7067L577.854 141.35L613.626 140.452L621.643 61.3577C621.925 58.5719 621.803 53.1654 621.706 50.8103C619.891 43.9256 611.327 29.2539 591.59 25.6454C571.854 22.0369 557.015 36.2129 552.063 43.752L553.677 27.8336L521.883 29.1344Z" fill="#FFFF"/>
<path d="M494.066 144.92L456.801 145.666L468.145 33.7393L505.612 31.0033L494.066 144.92Z" fill="#FFFF"/>
<path d="M427.935 4.03333L387.585 5.47197L372.913 150.23L448.042 147.793L450.361 124.911L415.583 125.909L427.935 4.03333Z" fill="#FFFF"/>
<path fill-rule="evenodd" clip-rule="evenodd" d="M255.011 105.616C255.589 104.75 256.489 104.624 257.138 105.32C257.786 106.013 258.132 107.473 257.953 108.766C257.699 108.823 257.446 108.879 257.192 108.936C256.939 108.992 256.685 109.048 256.432 109.105C255.813 109.243 255.07 109.295 254.693 108.427C254.327 107.584 254.553 106.3 255.011 105.616ZM250.031 78.1371C251.546 76.4522 253.887 78.3009 253.167 79.4855C252.687 80.2753 251.7 79.9185 250.714 79.5616L250.713 79.5616C250.22 79.3831 249.727 79.2047 249.296 79.1696C249.208 78.5027 249.678 77.8445 250.031 78.1371ZM197.426 60.3552C200.749 59.0302 207.068 61.4814 214.476 66.6618C223.737 61.0924 231.617 58.7172 235.228 60.6799C230.564 62.4057 224.781 65.5064 218.486 69.6571C221.317 71.8948 224.242 74.466 227.186 77.3414C234.716 73.3896 240.938 71.8773 244.027 73.5563C240.13 74.9984 235.454 77.3941 230.352 80.5561C233.843 84.2184 236.977 87.9362 239.656 91.537C245.901 88.6499 250.978 87.6876 253.672 89.1531C250.312 90.3962 246.356 92.3736 242.066 94.9126C247.494 102.898 250.426 109.968 249.717 114.011C247.201 109.135 243.309 103.325 238.404 97.1679C233.466 100.333 228.181 104.159 222.806 108.585C221.243 109.872 219.726 111.168 218.248 112.463C223.538 120.098 226.339 127.03 225.547 131.193C223.191 126.58 219.508 121.166 214.884 115.497C206.967 122.821 200.625 130.052 196.765 135.987C196.336 130.742 202.267 121.332 211.782 111.826C209.071 108.722 206.131 105.581 202.943 102.474C202.895 102.427 202.847 102.383 202.799 102.339C202.775 102.317 202.751 102.295 202.727 102.272C195.978 108.775 190.56 115.099 187.119 120.393C186.734 115.678 191.492 107.593 199.368 99.1014C196.596 96.5566 193.853 94.2164 191.184 92.1074C185.71 97.6447 181.282 102.963 178.322 107.514C177.986 103.401 181.558 96.7233 187.703 89.4485C182.907 85.9354 178.461 83.2619 174.697 81.615C177.909 80.0501 183.822 81.7935 190.749 86.032C193.947 82.6008 197.636 79.1111 201.721 75.7502C204.708 73.2931 207.679 71.0963 210.565 69.1599C205.709 65.3075 201.218 62.2975 197.426 60.3552ZM238.11 118.483C238.172 119.177 237.902 119.867 237.547 120.194C237.193 120.522 236.771 120.554 236.371 120.493C235.874 120.42 235.352 120.186 235.016 119.542C234.679 118.899 234.627 117.752 235.021 117.214C235.38 117.332 235.744 117.241 236.109 117.149C236.323 117.095 236.538 117.041 236.753 117.029C237.333 117 238.021 117.48 238.11 118.483ZM195.61 120.206C195.416 119.803 195.257 119.273 195.337 118.764C195.466 117.945 196.1 117.77 196.569 117.989C196.735 118.068 196.912 118.057 197.089 118.047C197.409 118.027 197.728 118.008 197.978 118.527C198.363 119.332 198.041 120.975 197.401 121.335C196.758 121.695 196.043 121.104 195.61 120.206ZM186.773 104.068C186.757 103.853 186.712 103.681 186.667 103.509C186.577 103.164 186.488 102.821 186.634 102.135C186.773 101.477 186.929 101.63 187.027 101.724C187.082 101.778 187.118 101.813 187.121 101.673C187.566 101.225 188.202 101.518 188.463 102.293C188.724 103.065 188.562 104.182 188.121 104.645C187.681 105.104 187.042 104.832 186.773 104.068ZM180.556 115.491C179.992 116.196 177.862 114.005 177.862 112.928C177.862 111.852 179.165 111.802 179.776 112.384C180.389 112.966 181.12 114.786 180.556 115.491ZM190.32 73.1292C190.068 73.5446 188.101 73.6207 187.286 72.4535C186.471 71.2864 187.447 69.6776 187.184 70.2188L188.321 69.6981C188.933 69.6366 189.594 69.6981 190.086 70.3387C190.578 70.9822 190.573 72.7139 190.32 73.1292ZM173.382 97.3346C172.975 97.4721 172.565 97.1825 172.185 96.9017C172.18 96.6854 172.137 96.4899 172.093 96.2946C172.005 95.9033 171.918 95.5125 172.142 94.9565C172.363 94.406 172.581 94.6104 172.799 94.8154C172.913 94.9219 173.027 95.0286 173.141 95.0296C173.477 95.0326 173.861 95.2285 173.989 95.7697C174.15 96.4337 173.789 97.1972 173.382 97.3346ZM206.554 98.6347C209.816 101.861 212.755 105.169 215.299 108.422C216.858 106.992 218.488 105.571 220.186 104.17C225.492 99.8039 230.762 96.2143 235.561 93.5653C232.749 90.2248 229.669 86.8198 226.368 83.4323C226.331 83.3928 226.293 83.3562 226.255 83.3196L226.255 83.3195C226.217 83.2829 226.18 83.2463 226.142 83.2067C221.975 86.0139 217.599 89.2695 213.169 92.9148C210.87 94.8136 208.663 96.7241 206.554 98.6347ZM219.856 94.8634C220.355 94.3457 220.773 94.4688 221.19 94.5919C221.399 94.6534 221.608 94.7149 221.827 94.6964C221.949 95.4465 221.871 96.3256 221.557 96.8794C221.217 97.4772 220.628 97.5798 220.23 97.1051C219.829 96.6304 219.108 95.6399 219.856 94.8634ZM210.537 88.5277C207.854 90.7317 205.335 92.9913 203.015 95.2539C200.199 92.7191 197.399 90.4712 194.694 88.5511C197.689 85.7061 200.927 82.8348 204.368 80.0073C207.812 77.1798 211.209 74.6129 214.516 72.2801C217.195 74.5631 219.954 77.0832 222.741 79.7907C218.832 82.1791 214.699 85.109 210.537 88.5277Z" fill="#FFFF"/>
<path fill-rule="evenodd" clip-rule="evenodd" d="M117.634 189.691L166.592 187.617L110.189 139.183C120.373 137.87 142.215 127.653 148.106 97.2928C153.997 66.9321 130.044 49.059 117.331 43.9176C115.74 43.0863 108.27 41.0895 91.1174 39.7532C73.9647 38.4168 61.4866 36.2475 57.3915 35.3299C50.6939 33.646 35.4936 33.2111 28.2738 44.9429C26.4622 47.9422 22.6775 55.5326 22.0322 61.9L5.94927 220.587C4.94094 230.536 6.33316 253.493 19.9687 265.731C31.4935 278.96 47.9381 283.977 54.7198 284.832C64.6856 285.675 89.3451 286.331 108.256 282.217C127.168 278.103 134.566 263.944 135.902 257.378C136.721 252.603 136.091 242.622 127.018 240.898C117.946 239.175 110.031 244.872 107.208 247.937C104.649 251.698 96.2563 259.793 83.1585 262.084C70.0608 264.375 60.4561 261.291 57.291 259.462C50.5116 256.932 37.6343 248.122 40.3608 233.121L48.0242 157.508C54.193 157.798 68.78 158.004 77.7772 156.503L117.634 189.691ZM57.0487 68.4643L51.0996 127.164C65.2949 127.597 95.887 126.577 104.693 119.026C113.499 111.476 116.94 100.667 117.56 96.2072C118.064 91.2327 116.637 79.5291 106.895 72.511C97.1528 65.493 69.6049 66.889 57.0487 68.4643Z" fill="#FFFF"/>
<path fill-rule="evenodd" clip-rule="evenodd" d="M209.521 155.784C245.237 159.403 276.831 136.28 280.089 104.136C283.346 71.9919 257.034 42.9996 221.319 39.3798C185.603 35.7601 154.009 58.8835 150.751 91.0275C147.493 123.172 173.806 152.164 209.521 155.784ZM211.013 139.801C236.425 142.376 258.934 125.63 261.289 102.396C263.644 79.1616 244.952 58.2389 219.54 55.6634C194.128 53.0879 171.618 69.8348 169.264 93.0688C166.909 116.303 185.601 137.225 211.013 139.801Z" fill="#FFFF"/>
<path d="M282.401 11.8988L321.706 10.8568L311.999 126.467L371.455 124.955L368.934 149.827L268.133 152.678L282.401 11.8988Z" fill="#FFFF"/>
<path fill-rule="evenodd" clip-rule="evenodd" d="M662.857 46.4378C653.55 49.0124 632.85 58.8754 624.506 77.7302C616.163 96.585 617.908 113.078 619.824 118.968C622.88 128.492 633.983 148.848 653.957 154.089C673.93 159.33 688.911 157.967 693.904 156.63C697.538 155.491 705.77 152.606 709.634 150.183L706.912 177.046L408.885 187.046C406.662 187.49 400.891 189.552 395.591 194.242L341.9 238.051L401.305 311.415C403.541 314.155 409.921 319.626 417.563 319.596C425.205 319.567 431.398 316.978 433.539 315.687C438.535 312.676 448.728 304.663 449.535 296.703L452.207 270.338L672.02 263.468C684.807 262.921 704.462 260.725 718.807 248.107C726.263 240.654 740.674 221.778 738.665 205.894L607.065 210.146C604.047 210.176 597.723 209.099 596.575 204.56C595.427 200.021 603.897 198.434 608.275 198.208L739.925 193.458L748.093 112.871C749.452 101.115 749.159 74.5833 737.115 62.5073C722.06 47.4124 694.066 36.0316 662.857 46.4378ZM683.189 133.431C702.97 135.436 720.495 122.362 722.333 104.229C724.171 86.0969 709.625 69.7724 689.844 67.7676C670.063 65.7628 652.538 78.8369 650.7 96.9694C648.862 115.102 663.408 131.426 683.189 133.431Z" fill="#FFFF"/>
<path fill-rule="evenodd" clip-rule="evenodd" d="M304.094 234.219L356.841 189.812C228.958 190.118 184.809 194.656 178.719 196.887C169.826 200.341 151.136 212.184 147.528 231.921C143.919 251.657 150.501 265.391 154.244 269.791C159.049 277.917 170.766 278.669 176.024 278.029L260.705 275.555L268.752 285.417C276.962 296.97 295.49 321.095 303.923 325.166C312.355 329.237 322.066 324.659 325.868 321.862L355.453 297.722L304.094 234.219ZM214.005 225.591L216.072 205.196L236.72 204.776L234.653 225.171L214.005 225.591ZM184.622 247.741L186.79 226.351L207.387 226.428L205.269 247.321L184.622 247.741ZM211.837 246.982L209.669 268.372L230.865 267.505L232.535 246.064L211.837 246.982ZM259.599 246.797L239.002 246.72L241.119 225.827L261.767 225.406L259.599 246.797ZM313.099 309.008C322.714 309.983 331.3 302.978 332.274 293.362C333.249 283.747 326.244 275.161 316.628 274.187C307.012 273.212 298.427 280.217 297.453 289.833C296.478 299.449 303.483 308.034 313.099 309.008Z" fill="#FFFF"/>
</svg>
