<svg width="354" height="456" viewBox="0 0 354 456" fill="none" xmlns="http://www.w3.org/2000/svg">
<path d="M279.275 380.473C277.862 380.624 273 380.928 269.848 378.395L265.698 375.05L269.206 371.029C269.27 370.958 277.191 361.532 277.623 346.245V346.024C277.635 345.965 278.09 338.342 274.576 330.661L273.134 327.497L275.527 324.988C275.948 324.544 279.783 320.668 285.182 320.085C288.631 319.711 295.157 320.505 300.066 329.966C308.074 345.417 296.762 367.579 295.869 369.277C294.2 372.616 288.964 378.634 279.695 380.42L279.485 380.461L279.275 380.484H279.281L279.275 380.473Z" fill="white"/>
<path d="M285.731 325.18C288.748 324.853 292.356 326.237 295.513 332.324C302.523 345.854 291.299 366.937 291.299 366.937C291.299 366.937 288.048 373.585 278.721 375.383C278.721 375.383 274.798 375.803 273.065 374.402C273.065 374.402 282.246 363.896 282.748 346.385C282.748 346.385 283.39 337.589 279.24 328.513C279.24 328.513 282.042 325.571 285.737 325.174L285.731 325.18ZM284.639 314.983C277.571 315.742 272.72 320.493 271.822 321.439L267.03 326.47L269.913 332.786C272.726 338.943 272.54 345.131 272.516 345.685L272.487 345.948L272.504 346.099C272.125 359.022 265.921 366.943 265.308 367.69L257.988 375.71L266.627 382.387C271.18 386.053 277.367 385.842 279.812 385.58L280.238 385.533L280.659 385.457C293.756 382.936 299.266 373.819 300.352 371.764C301.759 369.12 313.829 345.405 304.619 327.614C298.081 314.989 288.462 314.581 284.633 314.989H284.639V314.983Z" fill="#1D1D1B"/>
<path d="M318.72 434.965C312.895 435.59 307.256 434.09 303.515 432.706C303.433 432.683 303.118 432.566 303.095 432.555C300.462 431.545 298.554 430.535 297.754 430.091C297.188 429.852 296.219 429.414 295.034 428.702C294.888 428.621 294.765 428.539 294.66 428.475C290.417 425.842 282.94 419.352 280.967 405.874C280.932 405.647 280.903 405.437 280.885 405.238L280.775 404.217L280.751 404.018C280.751 404.018 280.734 403.855 280.71 403.546C280.483 401.129 280.448 398.503 280.599 395.753C280.611 395.555 280.629 395.362 280.664 395.17C280.757 394.639 283.028 382.049 292.828 372.908C298.717 367.41 301.641 351.055 302.219 345.656C302.231 345.481 302.283 344.564 302.242 343.123C302.172 340.624 301.752 335.605 299.762 329.85C298.84 327.182 300.246 324.258 302.919 323.33C303.264 323.213 311.377 320.4 320.097 319.46C328.818 318.52 335.25 319.775 339.458 323.161C349.667 331.385 348.978 354.592 348.739 359.156C348.739 359.197 346.433 389.759 346.433 389.8C346.135 392.712 343.182 418.535 331.246 429.426C327.79 432.584 323.582 434.446 318.743 434.965H318.726H318.72Z" fill="#FF5527"/>
<path d="M320.629 324.556C326.501 323.925 332.594 324.229 336.219 327.147C344.904 334.146 343.597 358.882 343.597 358.882L341.309 389.275C341.309 389.275 338.6 415.745 327.767 425.638C324.861 428.288 321.51 429.508 318.172 429.87C313.409 430.383 308.669 429.152 305.225 427.868C305.15 427.844 305.085 427.821 305.021 427.798H305.015C305.015 427.798 304.969 427.78 304.939 427.774C301.933 426.624 299.99 425.469 299.99 425.469C299.99 425.469 299.027 425.13 297.591 424.261C297.55 424.243 297.515 424.214 297.474 424.185C293.937 421.996 287.732 416.608 286.057 405.139C286.04 404.958 286.005 404.789 285.987 404.631L285.888 403.68L285.865 403.481L285.824 403.119C285.614 400.966 285.579 398.613 285.725 396.051C285.725 396.051 287.68 384.733 296.336 376.661C304.986 368.589 307.333 346.123 307.333 346.123C307.333 346.123 307.438 344.955 307.373 342.953C307.28 339.72 306.737 334.309 304.613 328.169C304.613 328.169 312.422 325.443 320.646 324.556M319.531 314.359C310.239 315.357 301.572 318.363 301.21 318.485C295.875 320.353 293.056 326.184 294.906 331.525C296.674 336.626 297.042 341.062 297.112 343.251C297.147 344.302 297.112 344.996 297.112 345.218C296.248 353.063 293.096 365.659 289.332 369.167C278.475 379.299 275.872 392.806 275.615 394.306C275.545 394.691 275.498 395.082 275.481 395.473C275.312 398.468 275.347 401.333 275.603 403.995C275.639 404.374 275.656 404.579 275.656 404.579L275.679 404.777C275.72 405.151 275.761 405.513 275.808 405.88C275.831 406.114 275.866 406.359 275.913 406.616V406.645C278.172 422.031 286.845 429.613 291.923 432.8C292.104 432.917 292.279 433.022 292.46 433.133C293.709 433.88 294.772 434.393 295.536 434.72C296.599 435.298 298.612 436.325 301.28 437.347C301.42 437.405 301.56 437.452 301.7 437.498C301.735 437.51 301.776 437.522 301.805 437.533C307.934 439.804 313.817 440.65 319.286 440.067C325.234 439.425 330.417 437.125 334.696 433.214C348.039 421.039 351.214 393.43 351.529 390.319C351.535 390.232 351.547 390.133 351.558 390.045L353.846 359.653C353.852 359.583 353.852 359.501 353.864 359.419C353.881 359.133 354.226 352.327 353.391 344.541C352.066 332.196 348.564 323.902 342.68 319.162C337.311 314.837 329.752 313.261 319.561 314.359H319.555H319.531Z" fill="#1D1D1B"/>
<path d="M343.597 358.882L341.309 389.274C341.309 389.274 338.601 415.745 327.767 425.638C320.722 432.07 311.092 430.056 305.22 427.862C307.012 428.51 319.771 432.379 328.24 415.272C328.24 415.272 332.104 406.925 330.668 393.588L333.791 347.284L325.952 341.278H325.946L307.362 342.942C307.268 339.708 306.726 334.297 304.601 328.157C304.601 328.157 327.54 320.137 336.225 327.136C344.91 334.134 343.603 358.87 343.603 358.87L343.597 358.882Z" fill="#B83111"/>
<path d="M261.846 371.573C261.846 371.573 208.597 378.093 193.672 313.053C193.672 313.053 217.65 307.303 233.526 300.042C233.526 300.042 240.291 333.429 272.527 330.756C272.527 330.756 284.808 356.409 261.84 371.573H261.846Z" fill="white"/>
<path fill-rule="evenodd" clip-rule="evenodd" d="M229.832 308.033C222.938 310.759 215.473 313.14 209.321 314.95C206.105 315.895 203.204 316.695 200.875 317.319C208.469 344.052 223.119 355.883 235.692 361.271C242.55 364.207 249.011 365.316 253.757 365.683C256.121 365.864 258.041 365.864 259.331 365.818C259.5 365.812 259.658 365.806 259.81 365.8C268.18 359.718 270.047 352.089 269.896 345.628C269.814 342.202 269.143 339.108 268.471 336.832C252.443 336.68 242.206 328.345 236.135 319.847C233.124 315.627 231.122 311.372 229.837 308.039L229.832 308.033ZM272.534 330.756L277.869 328.199L276.106 324.522L272.044 324.861C258.479 325.987 250.57 319.713 245.754 312.965C243.285 309.504 241.651 305.92 240.641 303.171C240.139 301.805 239.801 300.679 239.591 299.914C239.486 299.535 239.416 299.243 239.375 299.062C239.351 298.974 239.34 298.91 239.334 298.875V298.852L237.857 291.567L231.081 294.667C223.534 298.116 213.891 301.274 205.988 303.597C202.066 304.747 198.634 305.681 196.182 306.323C194.956 306.644 193.982 306.889 193.311 307.058C192.978 307.14 192.721 307.204 192.552 307.245C192.464 307.268 192.4 307.28 192.359 307.292L192.301 307.303L186.604 308.669L187.917 314.378C195.797 348.716 214.101 364.89 231.04 372.139C239.357 375.699 247.144 377.03 252.846 377.474C255.706 377.696 258.064 377.696 259.745 377.637C260.586 377.608 261.257 377.567 261.736 377.526C261.975 377.509 262.168 377.491 262.308 377.474C262.378 377.468 262.436 377.462 262.483 377.456H262.541L262.565 377.445H262.576C262.576 377.445 262.582 377.445 261.864 371.573L262.582 377.445L263.965 377.275L265.127 376.511C278.68 367.557 281.972 355.195 281.739 345.336C281.622 340.515 280.682 336.295 279.783 333.301C279.334 331.795 278.884 330.569 278.534 329.699C278.359 329.262 278.213 328.917 278.102 328.66C278.044 328.532 278.003 328.433 277.962 328.357C277.945 328.316 277.927 328.287 277.915 328.258L277.898 328.223V328.211H277.886C277.886 328.211 276.106 329.061 272.546 330.762L272.534 330.756Z" fill="#1D1D1B"/>
<path d="M323.799 342.698C323.799 342.698 321.68 374.66 321.149 377.094C321.149 377.094 307.31 373.82 295.35 380.661C283.39 387.501 284.984 401.119 284.984 401.119C284.984 401.119 286.116 419.925 304.146 425.429C304.146 425.429 303.732 399.595 329.811 391.237L333.353 350.397C333.353 350.397 334.165 343.171 329.822 339.669C325.48 336.167 324.248 339.476 323.799 342.698Z" fill="#FFFFF3"/>
<path d="M78.0967 381.601C77.8866 380.194 77.3904 375.349 79.7952 372.098L82.9704 367.814L87.1263 371.158C87.1963 371.217 96.938 378.752 112.23 378.565H112.452C112.511 378.565 120.145 378.711 127.681 374.888L130.78 373.318L133.383 375.612C133.844 376.015 137.872 379.686 138.671 385.056C139.185 388.488 138.66 395.043 129.402 400.325C114.291 408.952 91.6907 398.557 89.9571 397.728C86.5542 396.193 80.3263 391.208 78.1667 382.015L78.12 381.805L78.0908 381.595L78.0967 381.601Z" fill="white"/>
<path d="M133.605 385.803C134.054 388.809 132.817 392.469 126.863 395.866C113.631 403.419 92.105 393.064 92.105 393.064C92.105 393.064 85.3285 390.087 83.1572 380.836C83.1572 380.836 82.5793 376.937 83.9043 375.145C83.9043 375.145 94.7783 383.894 112.289 383.678C112.289 383.678 121.102 383.959 130.004 379.447C130.004 379.447 133.056 382.126 133.605 385.803ZM143.749 384.291C142.705 377.264 137.761 372.606 136.78 371.748L131.562 367.166L125.369 370.306C119.334 373.365 113.141 373.435 112.586 373.429L112.318 373.411L112.172 373.435C99.2435 373.581 91.0777 367.709 90.3073 367.119L81.9956 360.133L75.6743 369.034C72.1956 373.732 72.6567 379.908 73.0186 382.342L73.0828 382.762L73.1762 383.176C76.223 396.163 85.5619 401.294 87.6573 402.298C90.354 403.594 114.542 414.695 131.941 404.767C144.292 397.722 144.31 388.091 143.743 384.285H143.755L143.749 384.291Z" fill="#1D1D1B"/>
<path d="M25.2562 423.223C24.3923 417.427 25.6648 411.736 26.8963 407.936C26.9138 407.855 27.0189 407.534 27.0306 407.51C27.9353 404.837 28.8633 402.893 29.2778 402.07C29.4937 401.498 29.8906 400.512 30.556 399.298C30.6319 399.152 30.7078 399.018 30.772 398.913C33.2293 394.57 39.4105 386.83 52.7944 384.309C53.022 384.268 53.2263 384.227 53.4247 384.198L54.4404 384.046L54.633 384.017C54.633 384.017 54.7964 383.994 55.0999 383.953C57.5047 383.626 60.1254 383.486 62.8862 383.527C63.0847 383.527 63.2773 383.538 63.4758 383.567C64.0128 383.638 76.6845 385.4 86.2102 394.815C91.942 400.477 108.402 402.736 113.824 403.092C113.999 403.092 114.922 403.109 116.357 403.01C118.85 402.841 123.846 402.216 129.52 399.992C132.152 398.965 135.123 400.249 136.162 402.882C136.29 403.22 139.436 411.217 140.726 419.89C142.016 428.564 141.03 435.043 137.814 439.385C130.01 449.915 106.797 450.177 102.227 450.119C102.186 450.119 71.5598 449.063 71.5189 449.057C68.5947 448.876 42.6733 446.979 31.309 435.498C28.017 432.177 25.9799 428.044 25.262 423.229V423.211L25.2562 423.223Z" fill="#FF5527"/>
<path d="M135.649 420.643C136.518 426.486 136.46 432.585 133.693 436.327C127.051 445.292 102.285 444.989 102.285 444.989L71.8228 443.938C71.8228 443.938 45.2652 442.309 34.9399 431.885C32.1732 429.089 30.8191 425.791 30.3229 422.47C29.6167 417.736 30.6498 412.944 31.7997 409.448C31.823 409.372 31.8405 409.308 31.8639 409.238C31.8639 409.203 31.8814 409.18 31.8872 409.156C32.9145 406.109 33.9943 404.113 33.9943 404.113C33.9943 404.113 34.2978 403.133 35.1033 401.668C35.1208 401.627 35.15 401.592 35.1733 401.545C37.2162 397.92 42.3468 391.506 53.7345 389.363C53.9154 389.334 54.0847 389.293 54.2364 389.27L55.182 389.13L55.3746 389.101L55.7307 389.048C57.8728 388.751 60.2192 388.616 62.7874 388.657C62.7874 388.657 74.1751 390.151 82.5918 398.469C91.0085 406.786 113.55 408.216 113.55 408.216C113.55 408.216 114.724 408.275 116.72 408.129C119.948 407.901 125.329 407.142 131.382 404.767C131.382 404.767 134.423 412.454 135.643 420.643M145.793 419.131C144.416 409.886 141.065 401.347 140.925 400.996C138.841 395.737 132.899 393.163 127.64 395.23C122.615 397.208 118.196 397.751 116.013 397.909C114.963 397.985 114.268 397.985 114.046 397.985C106.173 397.442 93.46 394.803 89.8061 391.185C79.2414 380.748 65.6416 378.694 64.1299 378.501C63.7388 378.449 63.3536 378.419 62.9625 378.414C59.9624 378.367 57.1023 378.519 54.4524 378.881C54.0788 378.927 53.8746 378.956 53.8746 378.956L53.6819 378.986C53.3084 379.044 52.9465 379.097 52.5846 379.155C52.3511 379.19 52.1118 379.231 51.855 379.289H51.8258C36.545 382.173 29.3248 391.144 26.3422 396.35C26.2313 396.531 26.1321 396.718 26.0329 396.899C25.3383 398.177 24.8713 399.257 24.5678 400.033C24.0367 401.119 23.0911 403.173 22.1747 405.876C22.1222 406.022 22.0813 406.162 22.0405 406.302C22.0288 406.337 22.0171 406.378 22.0113 406.413C19.9917 412.629 19.3847 418.542 20.1902 423.982C21.0716 429.894 23.5814 434.984 27.6613 439.099C40.3681 451.94 68.0872 453.983 71.21 454.176C71.2975 454.176 71.3967 454.187 71.4843 454.193L101.947 455.244C102.017 455.244 102.098 455.244 102.18 455.244C102.466 455.244 109.284 455.32 117.029 454.164C129.31 452.337 137.458 448.502 141.952 442.432C146.056 436.893 147.322 429.27 145.816 419.137L145.793 419.131Z" fill="#1D1D1B"/>
<path d="M102.285 444.988L71.8225 443.938C71.8225 443.938 45.2649 442.309 34.9396 431.885C28.2272 425.108 29.844 415.402 31.7994 409.448C31.2215 411.263 27.8712 424.174 45.3116 431.937C45.3116 431.937 53.8101 435.457 67.0714 433.484L113.463 434.721L119.142 426.643L116.725 408.135C119.953 407.907 125.335 407.148 131.387 404.773C131.387 404.773 140.335 427.367 133.693 436.327C127.051 445.292 102.285 444.988 102.285 444.988Z" fill="#B83111"/>
<path d="M86.5135 364.662C86.5135 364.662 77.8341 311.722 142.214 294.165C142.214 294.165 148.933 317.886 156.836 333.458C156.836 333.458 123.753 341.572 127.733 373.68C127.733 373.68 102.6 386.988 86.5135 364.662Z" fill="white"/>
<path fill-rule="evenodd" clip-rule="evenodd" d="M148.699 330.09C145.699 323.314 143.014 315.954 140.953 309.878C139.88 306.702 138.963 303.836 138.245 301.537C111.845 310.21 100.615 325.328 95.7472 338.11C93.0915 345.085 92.2451 351.582 92.07 356.339C91.9825 358.708 92.0642 360.623 92.1576 361.913C92.1692 362.082 92.1809 362.24 92.1984 362.386C98.6189 370.505 106.318 372.057 112.767 371.643C116.188 371.421 119.246 370.627 121.499 369.863C120.997 353.841 128.912 343.27 137.154 336.861C141.245 333.68 145.419 331.503 148.693 330.09H148.699ZM127.727 373.68L130.494 378.91L134.095 377.001L133.593 372.956C131.918 359.45 137.866 351.296 144.409 346.206C147.765 343.597 151.279 341.822 153.987 340.696C155.33 340.136 156.444 339.756 157.203 339.511C157.583 339.389 157.869 339.307 158.044 339.26C158.131 339.237 158.195 339.219 158.225 339.208H158.248V339.202L165.468 337.433L162.094 330.785C158.341 323.384 154.793 313.882 152.149 306.078C150.835 302.208 149.767 298.811 149.032 296.389C148.664 295.18 148.372 294.211 148.179 293.552C148.08 293.219 148.01 292.968 147.964 292.799C147.94 292.717 147.923 292.653 147.911 292.612L147.893 292.554L146.294 286.915L140.644 288.456C106.656 297.725 91.2412 316.672 84.6806 333.89C81.4586 342.348 80.4489 350.181 80.2387 355.895C80.1337 358.761 80.2271 361.119 80.3555 362.794C80.4197 363.629 80.4897 364.3 80.5481 364.779C80.5773 365.018 80.6006 365.211 80.624 365.351C80.6357 365.421 80.6415 365.479 80.6473 365.526L80.659 365.584V365.608V365.619C80.659 365.619 82.6046 365.302 86.4958 364.668L80.659 365.625L80.8866 366.997L81.698 368.123C91.1945 381.303 103.685 384.087 113.52 383.451C118.336 383.141 122.509 382.027 125.468 381.005C126.957 380.492 128.159 379.995 129.017 379.616C129.443 379.423 129.788 379.266 130.033 379.143C130.155 379.085 130.255 379.032 130.33 378.991C130.365 378.974 130.4 378.956 130.424 378.945L130.459 378.927H130.471V378.916C130.471 378.916 129.55 377.172 127.71 373.686L127.727 373.68Z" fill="#1D1D1B"/>
<path d="M115.336 425.499C115.336 425.499 83.315 424.682 80.8577 424.25C80.8577 424.25 83.566 410.288 76.2466 398.621C68.9272 386.953 55.3858 389.095 55.3858 389.095C55.3858 389.095 36.6379 390.992 31.875 409.232C31.875 409.232 57.6738 407.767 67.0828 433.484L108.034 435.364C108.034 435.364 115.289 435.877 118.61 431.394C121.932 426.912 118.575 425.814 115.342 425.499H115.336Z" fill="#FFFFF3"/>
<path d="M170.343 341.933C162.008 341.933 154.262 338.315 148.956 332.198C144.561 334.882 139.518 336.324 134.271 336.324C131.796 336.324 129.321 335.997 126.917 335.344C118.868 333.196 112.33 327.692 108.805 320.395C106.219 321.154 103.528 321.545 100.82 321.545C95.8763 321.545 90.9908 320.232 86.6891 317.751C79.4631 313.566 74.5718 306.551 73.0542 298.595C72.8441 298.595 72.634 298.601 72.4297 298.601C64.8768 298.601 57.7734 295.653 52.421 290.301C46.5258 284.411 43.6133 276.362 44.1969 268.267C36.7842 266.446 30.2703 261.665 26.3888 254.941C22.2038 247.727 21.4625 239.193 24.1416 231.524C17.4467 227.852 12.3979 221.549 10.3958 214.025C8.25372 206.005 9.74212 197.606 14.2657 190.894C8.6623 185.646 5.55127 178.45 5.55127 170.389C5.55127 162.328 9.17594 154.285 15.3105 148.985C11.3589 142.465 10.1273 134.486 12.1294 126.957C14.2773 118.896 19.7931 112.347 27.1125 108.822C24.9763 101.497 25.8576 93.4652 29.7508 86.7178C33.8949 79.5619 40.9575 74.6298 48.9189 73.0947C48.7613 65.4718 51.6856 57.9422 57.1722 52.4323C62.5246 47.0799 69.6339 44.1381 77.1984 44.1381C77.8696 44.1381 78.535 44.1615 79.2004 44.2082C81.0098 36.7896 85.7902 30.2698 92.5434 26.3708C96.8218 23.8902 101.701 22.5827 106.639 22.5827C109.832 22.5827 112.978 23.1197 115.961 24.1528C119.626 17.4696 125.924 12.4149 133.442 10.3837C135.853 9.74751 138.293 9.43232 140.738 9.43232C146.412 9.43232 151.939 11.1542 156.597 14.2827C161.844 8.67353 169.047 5.5625 177.107 5.5625C185.168 5.5625 193.211 9.18134 198.499 15.3042C202.889 12.6134 207.938 11.1717 213.191 11.1717C215.666 11.1717 218.14 11.4986 220.557 12.1523C228.606 14.3061 235.149 19.8102 238.674 27.1004C241.254 26.3416 243.939 25.9506 246.647 25.9506C251.585 25.9506 256.465 27.2638 260.761 29.7445C267.987 33.9003 272.878 40.9104 274.396 48.8835C274.623 48.8835 274.851 48.8776 275.079 48.8776C282.614 48.8776 289.712 51.8194 295.058 57.1718C300.948 63.0845 303.854 71.1218 303.265 79.1942C310.678 81.0094 317.191 85.7839 321.085 92.5313C325.252 99.7573 325.976 108.279 323.308 115.937C329.997 119.597 335.046 125.901 337.072 133.436C339.22 141.508 337.72 149.931 333.167 156.631C338.671 161.908 341.922 169.297 341.922 177.084C341.922 177.364 341.899 177.644 341.858 177.918C341.63 185.967 338.035 193.392 332.087 198.517C336.05 205.042 337.282 213.021 335.286 220.539C333.132 228.6 327.622 235.143 320.32 238.674C322.456 246.023 321.569 254.066 317.658 260.796C313.52 267.946 306.458 272.872 298.502 274.407C298.66 282.042 295.724 289.571 290.214 295.081C284.896 300.422 277.793 303.369 270.222 303.369C269.551 303.369 268.874 303.346 268.209 303.299C266.388 310.718 261.607 317.226 254.877 321.113C250.599 323.588 245.719 324.901 240.776 324.901C237.589 324.901 234.443 324.37 231.466 323.337C227.812 330.02 221.52 335.075 213.996 337.1C211.586 337.748 209.111 338.075 206.636 338.075C200.974 338.075 195.464 336.353 190.836 333.231C185.594 338.84 178.397 341.951 170.337 341.951L170.343 341.933ZM111.18 286.758C130.524 297.486 151.571 302.932 173.734 302.932C195.896 302.932 217.831 297.217 236.97 286.402C237.209 286.268 238.108 285.76 238.336 285.631L238.657 285.439C238.925 285.275 239.194 285.118 239.457 284.948C239.521 284.908 239.579 284.872 239.643 284.832C258.216 273.823 273.853 258.186 284.861 239.614C284.896 239.555 284.931 239.491 284.972 239.433C285.235 239.024 285.451 238.697 285.614 238.4C285.748 238.154 286.175 237.407 286.239 237.291C286.285 237.203 286.332 237.116 286.379 237.028C297.194 217.842 302.915 195.978 302.915 173.792C302.915 151.606 297.2 129.694 286.385 110.532C286.245 110.281 285.737 109.388 285.614 109.172L285.422 108.857C285.252 108.583 285.095 108.314 284.92 108.046C284.879 107.981 284.838 107.917 284.803 107.853C273.859 89.3211 258.222 73.69 239.591 62.6467C239.527 62.6117 239.468 62.5709 239.404 62.53C239.019 62.279 238.68 62.063 238.383 61.8938C238.342 61.8704 238.301 61.8471 238.26 61.8237C237.892 61.6078 237.548 61.4035 237.244 61.2517C237.157 61.2109 237.075 61.1642 236.993 61.1175C217.849 50.2726 195.96 44.5409 173.71 44.5409C151.46 44.5409 129.625 50.2726 110.422 61.1233C110.34 61.17 110.258 61.2109 110.177 61.2576C109.885 61.4035 109.546 61.6019 109.196 61.8121L108.846 62.0222C108.566 62.1915 108.291 62.3549 108.017 62.5358C107.953 62.5767 107.894 62.6117 107.83 62.6526C89.2748 73.6375 73.6379 89.2744 62.6121 107.865C62.5771 107.923 62.5363 107.987 62.5013 108.046C62.2386 108.448 62.0285 108.775 61.865 109.079C61.8417 109.12 61.8183 109.155 61.795 109.195C61.579 109.563 61.3572 109.954 61.1646 110.328C61.1413 110.375 61.1179 110.415 61.0887 110.462C50.2439 129.636 44.5063 151.524 44.5063 173.768C44.5063 196.013 50.1563 217.545 60.8494 236.625C60.972 236.835 61.0887 237.051 61.2113 237.267C61.328 237.483 61.4448 237.699 61.5732 237.904C61.6899 238.09 61.795 238.283 61.8884 238.475C62.0985 238.837 62.297 239.176 62.4837 239.462C62.6063 239.637 62.7172 239.818 62.8281 240.005L62.8398 240.028C62.8982 240.116 62.9507 240.197 63.0091 240.291C73.8539 258.344 89.1289 273.619 107.188 284.464C107.311 284.54 107.433 284.622 107.556 284.703L107.591 284.727C107.725 284.797 107.853 284.878 107.976 284.96C108.262 285.153 108.618 285.357 108.997 285.579C109.155 285.655 109.313 285.736 109.464 285.83C109.838 286.052 110.136 286.227 110.416 286.367C110.678 286.478 110.935 286.612 111.186 286.764L111.18 286.758Z" fill="#FFBA48"/>
<path d="M177.101 11.1017C185.88 11.1017 193.468 16.0221 197.25 23.2715C201.452 19.1273 207.161 16.7109 213.185 16.7109C215.14 16.7109 217.124 16.9677 219.109 17.4988C227.526 19.7518 233.613 26.4876 235.399 34.4607C238.826 32.5112 242.707 31.4897 246.641 31.4897C250.499 31.4897 254.41 32.4761 257.988 34.5424C265.553 38.8908 269.668 46.9748 269.329 55.1581C271.214 54.6678 273.146 54.4226 275.078 54.4226C280.88 54.4226 286.688 56.6406 291.135 61.0883C297.299 67.2753 299.19 76.1357 296.756 83.9278C304.578 83.9804 312.113 88.072 316.286 95.298C320.664 102.886 320.174 111.921 315.796 118.838C323.308 120.881 329.548 126.764 331.725 134.866C333.978 143.335 331.182 151.933 325.17 157.472C331.877 161.406 336.383 168.714 336.383 177.078L336.33 177.101C336.33 185.88 331.386 193.468 324.131 197.25C329.624 202.818 332.081 211.025 329.933 219.109C327.68 227.549 320.921 233.613 312.971 235.399C316.806 242.182 317.063 250.78 312.866 258.006C308.658 265.278 301.017 269.37 293.178 269.37C292.869 269.37 292.56 269.364 292.25 269.352C294.194 276.888 292.227 285.229 286.291 291.159C281.861 295.606 276.041 297.819 270.222 297.819C267.946 297.819 265.669 297.48 263.475 296.803C263.399 304.595 259.331 312.136 252.105 316.304C248.532 318.37 244.633 319.351 240.775 319.351C236.462 319.351 232.213 318.125 228.559 315.814C226.51 323.326 220.632 329.565 212.554 331.742C210.575 332.273 208.591 332.53 206.636 332.53C200.227 332.53 194.174 329.799 189.942 325.193C186.008 331.9 179.062 336.406 170.336 336.406C161.61 336.406 153.993 331.485 150.188 324.259C145.985 328.386 140.277 330.797 134.265 330.797C132.315 330.797 130.325 330.54 128.352 330.009C119.906 327.756 113.847 321.02 112.061 313.047C108.635 314.996 104.748 316.018 100.808 316.018C96.8681 316.018 93.0275 315.031 89.4495 312.971C81.8849 308.593 77.77 300.515 78.1085 292.355C76.2407 292.834 74.3262 293.073 72.4176 293.073C66.5866 293.073 60.7731 290.844 56.3313 286.396C50.1442 280.209 48.2765 271.349 50.6871 263.556C42.8891 263.48 35.3537 259.412 31.1862 252.186C26.7852 244.598 27.2755 235.563 31.6531 228.646C24.1411 226.574 17.9016 220.697 15.7536 212.618C13.5006 204.178 16.2964 195.581 22.2792 190.012C15.596 186.078 11.09 179.162 11.09 170.406C11.09 161.651 16.0338 154.04 23.2598 150.258C17.7673 144.689 15.3334 136.483 17.4813 128.399C19.7343 119.929 26.4934 113.894 34.4723 112.108C30.6142 105.326 30.3807 96.728 34.5482 89.502C38.7566 82.2293 46.397 78.1377 54.2359 78.1377C54.5452 78.1377 54.8546 78.1435 55.1639 78.1552C53.2203 70.6199 55.1873 62.279 61.0941 56.3488C65.5418 51.9011 71.367 49.6831 77.1863 49.689C79.4627 49.689 81.739 50.0275 83.9337 50.7046C83.9862 42.9124 88.0778 35.3479 95.3038 31.1804C98.876 29.1141 102.775 28.1335 106.633 28.1335C110.947 28.1335 115.196 29.3593 118.85 31.6707C120.922 24.1587 126.829 17.9191 134.883 15.7419C136.839 15.2283 138.8 14.9773 140.732 14.9773C147.147 14.9773 153.217 17.6914 157.495 22.2909C161.429 15.6077 168.323 11.1017 177.101 11.1017ZM173.733 308.471C197.717 308.471 220.224 302.231 239.695 291.223C240.162 290.966 240.653 290.68 241.12 290.418C241.587 290.132 242.024 289.875 242.468 289.589C261.864 278.09 278.131 261.829 289.63 242.433C289.916 241.995 290.202 241.552 290.458 241.085C290.715 240.618 291.001 240.127 291.264 239.66L291.211 239.736C302.19 220.265 308.459 197.758 308.459 173.78C308.459 149.802 302.22 127.296 291.211 107.795C290.954 107.328 290.668 106.837 290.406 106.37C290.12 105.904 289.863 105.466 289.577 105.022C278.102 85.5972 261.811 69.3649 242.415 57.8664C241.978 57.5804 241.534 57.2944 241.067 57.0375C240.629 56.7807 240.186 56.5181 239.719 56.2846C220.241 45.253 197.688 38.9842 173.704 38.9842C149.721 38.9842 127.214 45.253 107.69 56.2846C107.223 56.5181 106.785 56.7749 106.341 57.0375C105.874 57.3235 105.437 57.5804 104.993 57.8664C85.568 69.3649 69.3299 85.6264 57.8313 105.022C57.5453 105.46 57.2593 105.904 57.0025 106.37C56.7457 106.808 56.483 107.275 56.2496 107.719C45.218 127.22 38.9492 149.931 38.9492 173.757C38.9492 197.583 45.1362 219.955 56.0161 239.351C56.3021 239.841 56.5589 240.361 56.8683 240.851C56.8916 240.927 56.9441 241.032 56.9967 241.108C57.2827 241.598 57.5687 242.094 57.878 242.555C58.0065 242.736 58.1115 242.947 58.2399 243.127C69.5809 262.004 85.4337 277.857 104.316 289.198C104.497 289.326 104.678 289.454 104.888 289.559C105.355 289.869 105.845 290.155 106.335 290.441C106.411 290.493 106.516 290.569 106.592 290.569C107.112 290.879 107.602 291.165 108.145 291.421C108.221 291.445 108.273 291.474 108.349 291.526C127.722 302.301 149.738 308.465 173.716 308.465M177.101 0.0116737C170.926 0.0116737 164.949 1.6168 159.83 4.64612C158.435 5.47495 157.098 6.40884 155.832 7.44196C151.174 5.13058 146.008 3.88733 140.732 3.88733C137.813 3.88733 134.895 4.26673 132.053 5.01384C132.029 5.01384 132.012 5.02551 131.988 5.03135C124.476 7.06257 117.98 11.6211 113.491 17.7323C111.25 17.2712 108.95 17.0319 106.633 17.0319C100.72 17.0319 94.8777 18.602 89.753 21.5671C82.9998 25.4603 77.8984 31.5598 75.1434 38.6457C66.8726 39.136 59.1621 42.5914 53.2553 48.4982C47.757 54.0199 44.4066 61.2284 43.572 68.7754C35.8382 71.3553 29.1433 76.6902 24.9525 83.9337C21.0535 90.6927 19.676 98.5141 20.8258 106.02C14.0084 110.497 8.94203 117.367 6.77073 125.533C5.2298 131.329 5.24148 137.428 6.81158 143.178C7.25518 144.806 7.82136 146.394 8.49843 147.929C3.09936 154.005 0 161.943 0 170.389C0 176.553 1.60513 182.524 4.63445 187.643C5.46328 189.038 6.39133 190.374 7.42445 191.641C3.81145 198.908 2.87172 207.348 5.03719 215.461C7.03922 222.985 11.592 229.487 17.7148 233.987C16.063 241.978 17.3471 250.418 21.5963 257.737C25.4719 264.455 31.5539 269.551 38.634 272.312C39.1185 280.442 42.5272 288.258 48.4982 294.223C54.0141 299.739 61.0941 303.118 68.7287 303.947C71.2911 311.664 76.6026 318.318 83.9103 322.549C89.0642 325.52 94.9069 327.09 100.82 327.09C102.565 327.09 104.298 326.956 106.014 326.688C110.48 333.47 117.332 338.513 125.474 340.696C128.352 341.472 131.317 341.869 134.276 341.869C139.039 341.869 143.662 340.883 147.905 339.003C153.987 344.385 161.914 347.478 170.342 347.478C178.274 347.478 185.681 344.811 191.577 340.042C196.217 342.354 201.371 343.603 206.641 343.603C209.601 343.603 212.566 343.212 215.443 342.435C222.967 340.41 229.463 335.851 233.946 329.734C236.182 330.196 238.47 330.429 240.781 330.429C246.694 330.429 252.531 328.859 257.661 325.894C264.391 322.012 269.492 315.924 272.253 308.844C280.542 308.36 288.258 304.899 294.153 298.974C299.651 293.476 303.008 286.267 303.848 278.715C311.582 276.135 318.277 270.8 322.468 263.556C326.378 256.827 327.762 248.993 326.612 241.464C333.417 236.987 338.478 230.123 340.655 221.963C342.657 214.439 341.951 206.536 338.898 199.585C344.04 193.806 347.111 186.353 347.402 178.362C347.455 177.936 347.478 177.504 347.478 177.072C347.478 169.286 344.758 161.82 340.019 155.896C343.661 148.629 344.618 140.166 342.447 132.006C340.422 124.453 335.863 117.945 329.746 113.456C331.392 105.483 330.12 97.0607 325.9 89.7472C322.001 82.9939 315.913 77.8925 308.839 75.1317C308.36 67.0244 304.957 59.2263 299.003 53.2494C293.464 47.7103 286.373 44.3249 278.726 43.5078C276.164 35.7798 270.841 29.1258 263.521 24.9174C258.397 21.9582 252.554 20.3881 246.647 20.3881C244.908 20.3881 243.174 20.5223 241.464 20.7908C236.993 14.0084 230.135 8.95954 221.986 6.77656C219.121 6.0061 216.155 5.6092 213.196 5.6092C208.433 5.6092 203.805 6.59562 199.561 8.48092C193.491 3.09936 185.559 0 177.113 0L177.101 0.0116737ZM112.032 66.5632C112.283 66.4173 112.534 66.2656 112.651 66.2072C112.82 66.1255 112.984 66.0379 113.147 65.9445C131.521 55.5667 152.458 50.08 173.71 50.08C194.962 50.08 215.945 55.5667 234.261 65.9387C234.431 66.0321 234.594 66.1255 234.769 66.2072C234.898 66.2714 235.189 66.4407 235.446 66.5924C235.522 66.6391 235.61 66.6858 235.686 66.7325C235.826 66.8084 236.129 67.0069 236.392 67.1761C236.514 67.252 236.643 67.3337 236.765 67.4096C254.597 77.9801 269.562 92.9399 280.034 110.666C280.11 110.795 280.191 110.929 280.273 111.057C280.419 111.279 280.553 111.501 280.688 111.735L280.822 111.956C280.933 112.155 281.044 112.353 281.16 112.552C281.283 112.762 281.4 112.978 281.516 113.182C281.528 113.205 281.54 113.229 281.551 113.252C291.9 131.586 297.369 152.516 297.369 173.786C297.369 195.055 291.9 215.945 281.551 234.296C281.481 234.419 281.417 234.541 281.353 234.67C281.306 234.752 281.26 234.833 281.213 234.915C281.061 235.184 280.909 235.446 280.769 235.703C280.688 235.849 280.495 236.147 280.32 236.415C280.238 236.538 280.162 236.66 280.092 236.783C269.557 254.556 254.591 269.522 236.818 280.057C236.695 280.133 236.573 280.209 236.45 280.285C236.228 280.431 236.007 280.565 235.773 280.699L235.54 280.839C235.341 280.95 235.143 281.061 234.938 281.178C234.728 281.3 234.512 281.417 234.308 281.534C234.285 281.546 234.261 281.563 234.238 281.575C215.934 291.918 195.009 297.387 173.728 297.387C152.446 297.387 132.426 292.192 113.941 281.954C113.567 281.732 113.188 281.54 112.803 281.365C112.633 281.271 112.406 281.137 112.307 281.079C112.079 280.938 111.845 280.81 111.606 280.693C111.373 280.559 111.162 280.431 111.04 280.349C110.882 280.244 110.719 280.139 110.555 280.045C110.386 279.929 110.211 279.818 110.03 279.713C92.7531 269.335 78.1319 254.714 67.7481 237.437C67.6722 237.308 67.5964 237.186 67.5147 237.063C67.4154 236.9 67.2695 236.66 67.0769 236.38C66.9952 236.252 66.8843 236.065 66.7617 235.861C66.6041 235.551 66.429 235.242 66.2422 234.95C66.1839 234.851 66.1197 234.728 66.0496 234.606C65.9154 234.366 65.787 234.127 65.6527 233.894C55.4324 215.648 50.0333 194.863 50.0333 173.774C50.0333 152.686 55.52 131.539 65.8979 113.2C65.9504 113.112 65.9971 113.019 66.0438 112.925C66.2072 112.616 66.3881 112.289 66.5516 112.015C66.5983 111.939 66.645 111.857 66.6858 111.775C66.7617 111.635 66.9543 111.338 67.1294 111.069C67.2053 110.947 67.287 110.818 67.3629 110.696C77.9159 92.899 92.8757 77.9392 110.631 67.4271C110.76 67.3512 110.882 67.2753 111.005 67.1936C111.227 67.0535 111.449 66.9193 111.67 66.785L112.015 66.5749L112.032 66.5632Z" fill="#1D1D1B"/>
<path d="M331.865 177.411C331.865 169.338 327.481 162.287 320.956 158.488C326.798 153.141 329.518 144.841 327.329 136.669C325.217 128.848 319.146 123.175 311.839 121.196C316.094 114.525 316.572 105.798 312.317 98.4791C308.261 91.504 300.929 87.5583 293.324 87.5058C295.694 79.9821 293.855 71.437 287.861 65.4601C282.094 59.7342 273.981 57.8372 266.656 59.7342C266.982 51.8369 262.978 44.0389 255.624 39.8364C248.596 35.8148 240.261 36.0366 233.66 39.7605C231.921 32.0617 226.002 25.5653 217.819 23.3882C209.962 21.2869 201.978 23.6625 196.561 28.9624C192.884 21.964 185.506 17.2128 176.967 17.2128C168.428 17.2128 161.727 21.5613 157.898 28.011C152.481 22.2383 144.123 19.5359 135.911 21.6897C128.077 23.7909 122.334 29.8146 120.32 37.0581C113.596 32.8322 104.777 32.3594 97.4224 36.5853C90.3949 40.6069 86.4142 47.9087 86.3675 55.4324C78.7854 53.1094 70.1703 54.9071 64.1525 60.8782C58.409 66.6041 56.4946 74.6473 58.3857 81.9258C50.4534 81.5989 42.5912 85.5738 38.3362 92.8757C34.2796 99.8507 34.5072 108.145 38.2603 114.694C30.5031 116.416 23.9309 122.241 21.7362 130.412C19.6466 138.21 22.0106 146.131 27.3513 151.507C20.3237 155.155 15.5142 162.503 15.5142 170.949C15.5142 179.395 19.8976 186.072 26.394 189.872C20.5747 195.248 17.8547 203.542 20.0494 211.69C22.139 219.488 28.2093 225.162 35.517 227.164C31.2619 233.835 30.7833 242.561 35.0617 249.881C39.1183 256.856 46.4494 260.778 54.0256 260.854C51.685 268.378 53.4944 276.923 59.518 282.9C65.2615 288.596 73.3455 290.523 80.6999 288.649C80.373 296.523 84.3771 304.321 91.7315 308.547C98.7591 312.568 107.123 312.346 113.719 308.623C115.458 316.321 121.353 322.818 129.56 324.995C137.393 327.096 145.378 324.721 150.794 319.444C154.495 326.419 161.902 331.164 170.389 331.164C178.875 331.164 185.629 326.816 189.458 320.343C194.822 326.139 203.209 328.865 211.445 326.664C219.301 324.563 225.021 318.539 227.012 311.296C233.736 315.522 242.555 315.995 249.91 311.769C256.937 307.747 260.889 300.469 260.965 292.951C268.547 295.274 277.162 293.476 283.156 287.505C288.923 281.779 290.838 273.736 288.952 266.457C296.885 266.784 304.747 262.809 309.002 255.507C313.082 248.532 312.831 240.238 309.101 233.689C316.835 231.967 323.407 226.119 325.602 217.971C327.691 210.173 325.298 202.252 319.958 196.876C327.008 193.228 331.818 185.903 331.818 177.434L331.871 177.411H331.865ZM287.989 237.816C287.738 238.265 287.458 238.738 287.207 239.193C286.956 239.643 286.676 240.069 286.402 240.495C275.218 259.214 259.4 274.909 240.536 286.011C240.11 286.285 239.678 286.536 239.228 286.81C238.773 287.061 238.294 287.336 237.845 287.587C218.904 298.21 197.016 304.233 173.692 304.233C150.368 304.233 128.959 298.286 110.118 287.89C110.042 287.838 109.989 287.814 109.913 287.791C109.382 287.54 108.903 287.266 108.402 286.968C108.326 286.968 108.226 286.892 108.151 286.845C107.672 286.571 107.193 286.297 106.738 285.993C106.534 285.894 106.359 285.766 106.184 285.643C87.8208 274.693 72.4058 259.401 61.3742 241.178C61.2457 241.003 61.1465 240.804 61.0239 240.629C60.7204 240.18 60.4461 239.707 60.1659 239.228C60.1134 239.153 60.0667 239.053 60.0375 238.977C59.734 238.505 59.483 238.003 59.2087 237.53C48.6324 218.811 42.6087 197.215 42.6087 174.224C42.6087 151.232 48.7024 129.309 59.4363 110.491C59.664 110.065 59.915 109.616 60.1659 109.19C60.4169 108.74 60.6971 108.314 60.9714 107.888C72.1548 89.1693 87.9493 73.4741 106.837 62.3724C107.263 62.0981 107.695 61.8471 108.145 61.5728C108.571 61.3218 109.003 61.0708 109.452 60.849C128.445 50.2026 150.333 44.1557 173.657 44.1557C196.981 44.1557 218.922 50.2026 237.862 60.849C238.318 61.0766 238.744 61.3218 239.17 61.5728C239.625 61.8237 240.051 62.0981 240.477 62.3724C259.342 73.4682 275.183 89.1401 286.343 107.888C286.618 108.314 286.874 108.74 287.149 109.19C287.4 109.639 287.68 110.112 287.931 110.567C298.636 129.385 304.706 151.11 304.706 174.253C304.706 197.396 298.612 219.115 287.931 237.909L287.983 237.833L287.989 237.816Z" fill="#C7541B"/>
<path d="M174.807 313.928C252.663 313.928 315.778 251.558 315.778 174.621C315.778 97.6831 252.663 35.3129 174.807 35.3129C96.9509 35.3129 33.8359 97.6831 33.8359 174.621C33.8359 251.558 96.9509 313.928 174.807 313.928Z" fill="#FFBA48"/>
<path d="M222.954 152.931C261.319 152.18 293.03 182.675 293.781 221.052C320.38 193.392 319.526 149.411 291.865 122.812C264.205 96.213 220.223 97.0673 193.624 124.727C180.319 138.551 173.886 156.465 174.235 174.249C186.557 161.435 203.772 153.319 222.967 152.944L222.954 152.931Z" fill="#FFBA48"/>
<path fill-rule="evenodd" clip-rule="evenodd" d="M191.76 122.932C219.35 94.242 264.97 93.3566 293.66 120.946C322.351 148.536 323.237 194.156 295.647 222.847L291.315 227.351L291.193 221.103C290.479 184.603 260.677 155.511 224.348 155.506L223.018 155.532C204.537 155.894 187.967 163.704 176.101 176.043L171.77 180.547L171.647 174.3C171.285 155.858 177.957 137.272 191.759 122.933M217.07 150.704L216.828 150.462L222.904 150.343C260.554 149.606 292.027 177.881 295.968 214.643C317.35 187.939 315.21 148.851 290.071 124.678C263.441 99.0695 221.098 99.8923 195.491 126.522L195.49 126.522C184.211 138.241 178.061 153.008 176.983 168.061C187.913 158.532 201.766 152.235 217.07 150.704Z" fill="#C7541B"/>
<path d="M193.626 124.714C220.224 97.0542 264.219 96.2 291.866 122.799C291.116 84.4344 259.404 53.9396 221.04 54.6774C182.675 55.4152 152.181 87.1395 152.918 125.504C153.294 144.686 161.409 161.901 174.223 174.236C173.874 156.452 180.307 138.551 193.613 124.714H193.626Z" fill="#FFBA48"/>
<path fill-rule="evenodd" clip-rule="evenodd" d="M220.989 52.0893C260.782 51.324 293.675 82.9542 294.454 122.748L294.576 128.999L290.071 124.664C263.454 99.057 221.099 99.8792 195.491 126.509L194.727 127.303H194.726C182.425 140.512 176.481 157.398 176.811 174.185L176.934 180.439L172.427 176.101C159.14 163.31 150.719 145.451 150.33 125.555L150.33 125.554C149.564 85.7616 181.194 52.8546 220.989 52.0893ZM288.88 116.719C285.115 82.7204 255.956 56.5952 221.089 57.2657C184.156 57.9759 154.796 88.5172 155.506 125.453M288.88 116.719C260.398 93.7478 218.692 95.7342 192.534 122.126H192.51L191.746 122.92C179.536 135.617 172.905 151.619 171.79 167.912C161.916 156.501 155.824 141.713 155.506 125.454" fill="#C7541B"/>
<path d="M152.931 125.504C152.18 87.1397 182.675 55.4283 221.052 54.6775C193.392 28.0788 149.41 28.9331 122.811 56.5932C96.2124 84.2533 97.0667 128.235 124.727 154.834C138.55 168.14 156.464 174.573 174.249 174.223C161.435 161.901 153.319 144.686 152.944 125.491L152.931 125.504Z" fill="#FFBA48"/>
<path fill-rule="evenodd" clip-rule="evenodd" d="M120.946 54.7988C148.536 26.1079 194.156 25.2222 222.847 52.8116L227.352 57.1435L221.103 57.2657C184.604 57.9797 155.511 87.7816 155.506 124.11L155.532 125.44C155.894 143.922 163.704 160.492 176.043 172.357L180.547 176.688L174.3 176.811C155.858 177.174 137.272 170.501 122.933 156.7C94.2419 129.11 93.3561 83.4892 120.946 54.7988ZM150.704 131.391L150.462 131.634L150.343 125.555C149.606 87.9044 177.881 56.432 214.643 52.4909C187.939 31.1084 148.851 33.2491 124.678 58.3875C99.0694 85.0174 99.8922 127.36 126.522 152.968L126.522 152.969C138.241 164.248 153.008 170.397 168.061 171.476C158.533 160.546 152.236 146.694 150.704 131.391Z" fill="#C7541B"/>
<path d="M124.715 154.847C97.055 128.248 96.2008 84.2531 122.8 56.6059C84.4352 57.3566 53.9404 89.068 54.6781 127.432C55.4289 165.797 87.1404 196.291 125.505 195.554C144.687 195.178 161.902 187.063 174.237 174.249C156.453 174.598 138.552 168.165 124.715 154.859V154.847Z" fill="#FFBA48"/>
<path fill-rule="evenodd" clip-rule="evenodd" d="M128.999 53.8956L124.665 58.4009C99.0576 85.0175 99.8798 127.373 126.509 152.981L127.304 153.745V153.746C140.512 166.047 157.399 171.991 174.186 171.661L180.44 171.538L176.102 176.044C163.311 189.332 145.452 197.753 125.555 198.142L125.554 198.142C85.7613 198.907 52.8685 167.277 52.0898 127.483L52.0898 127.482C51.3245 87.6894 82.9548 54.7966 122.749 54.0179L128.999 53.8956ZM57.2662 127.383C57.9894 164.317 88.5193 193.676 125.455 192.966C141.714 192.647 156.502 186.556 167.913 176.682C151.62 175.567 135.618 168.936 122.921 156.726L122.126 155.962V155.937C95.7348 129.78 93.7484 88.0741 116.72 59.5921C82.7212 63.3568 56.5961 92.5152 57.2662 127.382" fill="#C7541B"/>
<path d="M125.504 195.541C87.1392 196.292 55.4277 165.797 54.677 127.42C28.0782 155.08 28.9324 199.061 56.5926 225.66C84.2528 252.259 128.235 251.405 154.833 223.745C168.139 209.921 174.572 192.007 174.223 174.223C161.901 187.037 144.686 195.153 125.491 195.528L125.504 195.541Z" fill="#FFBA48"/>
<path fill-rule="evenodd" clip-rule="evenodd" d="M57.1433 121.12L57.2655 127.369C57.9795 163.868 87.7811 192.961 124.11 192.965L125.44 192.939C143.922 192.578 160.492 184.768 172.357 172.428L176.689 167.924L176.811 174.172C177.174 192.614 170.501 211.2 156.7 225.539C129.11 254.23 83.489 255.115 54.7986 227.526C26.1076 199.936 25.2219 154.315 52.8114 125.625L57.1433 121.12ZM131.386 197.768L131.628 198.01L125.555 198.129C87.9042 198.866 56.4318 170.59 52.4906 133.828C31.1081 160.532 33.2488 199.62 58.3873 223.794C85.0172 249.402 127.36 248.579 152.968 221.95L152.969 221.949C164.248 210.231 170.397 195.464 171.476 180.41C160.544 189.94 146.691 196.237 131.386 197.768Z" fill="#C7541B"/>
<path d="M154.848 223.757C128.249 251.418 84.2542 252.272 56.6069 225.673C57.3577 264.037 89.0691 294.532 127.434 293.794C165.798 293.044 196.293 261.332 195.555 222.968C195.18 203.786 187.064 186.571 174.25 174.236C174.6 192.02 168.167 209.921 154.861 223.757H154.848Z" fill="#FFBA48"/>
<path fill-rule="evenodd" clip-rule="evenodd" d="M171.539 168.033L176.045 172.371C189.333 185.162 197.753 203.021 198.143 222.917L198.143 222.918C198.908 262.711 167.278 295.604 127.484 296.383L127.483 296.383C87.6899 297.148 54.797 265.518 54.0183 225.724L53.896 219.473L58.4013 223.808C85.0179 249.415 127.374 248.593 152.981 221.963L153.745 221.169H153.746C166.048 207.96 171.991 191.074 171.661 174.287L171.539 168.033ZM176.683 180.56C175.568 196.853 168.937 212.855 156.726 225.552L155.962 226.346H155.938C129.78 252.738 88.0745 254.724 59.5925 231.753C63.3573 265.751 92.5162 291.877 127.383 291.206C164.318 290.483 193.677 259.953 192.966 223.018C192.648 206.759 186.556 191.971 176.683 180.56Z" fill="#C7541B"/>
<path d="M195.54 222.955C196.291 261.319 165.796 293.031 127.419 293.782C155.079 320.38 199.061 319.526 225.66 291.866C252.259 264.206 251.404 220.224 223.744 193.625C209.921 180.319 192.007 173.887 174.222 174.236C187.037 186.558 195.152 203.773 195.527 222.968L195.54 222.955Z" fill="#FFBA48"/>
<path fill-rule="evenodd" clip-rule="evenodd" d="M174.171 171.648C192.613 171.285 211.199 177.958 225.538 191.759C254.229 219.349 255.115 264.97 227.526 293.66C199.935 322.351 154.315 323.237 125.624 295.647L121.12 291.316L127.368 291.193C163.867 290.479 192.96 260.678 192.965 224.349L192.939 223.019C192.578 204.537 184.767 187.967 172.428 176.102L167.924 171.771L174.171 171.648ZM197.767 217.073L198.01 216.831L198.128 222.904C198.865 260.555 170.59 292.027 133.828 295.968C160.532 317.351 199.62 315.21 223.794 290.072C249.402 263.442 248.579 221.099 221.95 195.491L221.949 195.49C210.231 184.211 195.463 178.062 180.41 176.983C189.939 187.915 196.237 201.768 197.767 217.073Z" fill="#C7541B"/>
<path d="M223.758 194.285C251.419 220.884 252.273 264.879 225.674 292.526C264.039 291.775 294.533 260.064 293.796 221.7C293.045 183.335 261.333 152.84 222.969 153.578C203.787 153.954 186.572 162.069 174.237 174.883C192.021 174.534 209.922 180.967 223.758 194.272V194.285Z" fill="#FFBA48"/>
<path fill-rule="evenodd" clip-rule="evenodd" d="M222.919 150.99C262.712 150.225 295.605 181.855 296.384 221.649L296.384 221.65C297.149 261.443 265.519 294.335 225.725 295.114L219.474 295.236L223.808 290.731C249.416 264.115 248.594 221.759 221.964 196.151L221.17 195.387V195.386C207.961 183.085 191.075 177.141 174.288 177.471L168.034 177.594L172.372 173.088C185.163 159.8 203.022 151.379 222.918 150.99L222.919 150.99ZM223.019 156.166C206.76 156.485 191.971 162.576 180.56 172.45C196.854 173.565 212.855 180.196 225.553 192.406L226.347 193.17V193.195C252.739 219.352 254.725 261.058 231.754 289.54C265.752 285.775 291.878 256.616 291.207 221.749C290.484 184.815 259.955 155.457 223.019 156.166" fill="#C7541B"/>
<path d="M246.927 251.206C259.638 251.206 269.942 240.936 269.942 228.267C269.942 215.598 259.638 205.328 246.927 205.328C234.217 205.328 223.913 215.598 223.913 228.267C223.913 240.936 234.217 251.206 246.927 251.206Z" fill="#011619"/>
<path d="M253.225 239.828C261.478 235.296 264.746 225.387 260.523 217.696C256.299 210.004 246.185 207.443 237.931 211.975C229.677 216.507 226.41 226.416 230.633 234.107C234.856 241.799 244.971 244.36 253.225 239.828Z" fill="#3D5C5E"/>
<path d="M251.306 233.453C256.72 229.236 258.135 221.999 254.466 217.289C250.797 212.579 243.434 212.181 238.02 216.398C232.606 220.616 231.191 227.853 234.86 232.563C238.529 237.272 245.892 237.671 251.306 233.453Z" fill="#011619"/>
<path d="M249.01 229.727C252.651 226.89 253.684 222.126 251.317 219.088C248.949 216.049 244.078 215.885 240.436 218.722C236.795 221.559 235.762 226.322 238.129 229.361C240.497 232.4 245.368 232.564 249.01 229.727Z" fill="#3F6162"/>
<path d="M231.168 234.968C231.168 234.968 228.775 223.65 233.637 217.813C238.499 211.976 245.585 211.708 245.585 211.708C245.585 211.708 251.971 210.873 258.204 214.504C258.204 214.504 251.825 207.231 241.108 210.575C230.392 213.92 228.997 224.35 228.997 224.35C228.997 224.35 228.045 231.045 231.168 234.962V234.968Z" fill="#F3FDF4"/>
<path d="M261.181 219.01C261.181 219.01 263.463 229.487 254.387 236.619C245.31 243.752 232.394 236.619 232.394 236.619C232.394 236.619 237.501 243.244 247.056 241.878C256.657 240.507 259.978 233.38 259.978 233.38C259.978 233.38 264.414 226.685 261.187 219.01H261.181Z" fill="#0B272B"/>
<path d="M228.055 202.595C234.822 195.176 234.812 184.148 228.031 177.963C221.251 171.778 210.268 172.779 203.501 180.197C196.734 187.616 196.745 198.644 203.525 204.829C210.306 211.014 221.288 210.014 228.055 202.595Z" fill="#04151F"/>
<path d="M223.961 197.406C228.197 191.863 227.73 184.389 222.918 180.711C218.105 177.033 210.77 178.544 206.534 184.086C202.298 189.629 202.765 197.104 207.578 200.782C212.39 204.46 219.725 202.948 223.961 197.406Z" fill="#09C3F2"/>
<path d="M225.349 183.422C225.349 183.422 225.991 189.277 223.971 192.913C221.952 196.55 217.498 198.575 217.498 198.575C217.498 198.575 208.013 203.904 203.653 192.744C203.653 192.744 203.186 195.441 205.69 198.832C208.194 202.223 211.877 202.614 211.877 202.614C211.877 202.614 217.977 204.126 222.996 198.522C228.016 192.919 227.543 187.689 225.354 183.422H225.349Z" fill="#00598E"/>
<path d="M210.316 184.59C210.304 184.123 210.52 183.703 210.964 183.329C211.384 182.991 211.833 182.821 212.312 182.821C212.662 182.821 212.989 182.909 213.293 183.084C213.514 183.247 213.806 183.849 214.168 184.888C214.495 185.821 214.764 186.288 214.974 186.288C215.125 186.288 215.312 185.845 215.534 184.958C215.779 183.93 216.013 183.294 216.234 183.049C216.561 182.816 216.935 182.699 217.355 182.699C217.845 182.699 218.277 182.851 218.651 183.154C219.036 183.446 219.223 183.831 219.211 184.31C219.2 185.045 219.019 185.763 218.668 186.464C218.482 186.837 218.143 187.38 217.653 188.092C217.268 188.652 217.057 189.049 217.022 189.283C217.057 189.563 217.396 190.158 218.038 191.069C218.645 191.933 219.013 192.68 219.141 193.31C219.258 193.544 219.316 193.818 219.316 194.133C219.316 194.577 219.17 194.921 218.878 195.166C218.587 195.4 218.213 195.516 217.758 195.516C217.501 195.516 217.221 195.476 216.917 195.394C216.59 195.429 216.322 195.166 216.112 194.606C215.995 194.244 215.82 193.707 215.587 192.995C215.376 192.4 215.137 192.096 214.869 192.084C214.647 192.084 214.402 192.388 214.133 192.995C213.9 193.532 213.655 194.086 213.398 194.658C213.083 195.242 212.715 195.534 212.295 195.534C211.711 195.546 211.209 195.359 210.789 194.974C210.38 194.588 210.176 194.104 210.176 193.52C210.176 192.89 210.444 192.189 210.981 191.419C211.028 191.361 211.372 190.94 212.014 190.158C212.341 189.761 212.499 189.452 212.487 189.23C212.464 188.973 212.271 188.571 211.909 188.022C211.326 187.146 210.981 186.609 210.876 186.411C210.514 185.734 210.328 185.127 210.316 184.59Z" fill="white"/>
<path d="M264.003 180.674C270.77 173.256 270.759 162.228 263.978 156.043C257.198 149.858 246.215 150.858 239.448 158.277C232.681 165.696 232.692 176.724 239.472 182.908C246.253 189.093 257.235 188.093 264.003 180.674Z" fill="#04151F"/>
<path d="M259.918 175.477C264.154 169.934 263.687 162.46 258.875 158.781C254.062 155.103 246.727 156.615 242.491 162.157C238.255 167.7 238.722 175.174 243.535 178.853C248.347 182.531 255.682 181.019 259.918 175.477Z" fill="#FF2E2A"/>
<path d="M261.297 161.499C261.297 161.499 261.939 167.354 259.92 170.99C257.9 174.626 253.447 176.652 253.447 176.652C253.447 176.652 243.962 181.981 239.602 170.821C239.602 170.821 239.135 173.517 241.639 176.909C244.143 180.294 247.826 180.691 247.826 180.691C247.826 180.691 253.925 182.203 258.945 176.599C263.971 170.996 263.492 165.766 261.303 161.499H261.297Z" fill="#A30408"/>
<path d="M247.454 162.206C247.781 161.517 248.686 161.172 250.169 161.172C250.729 161.172 251.248 161.248 251.727 161.4C252.369 161.587 252.783 161.873 252.97 162.258C253.379 163.064 253.805 164.739 254.249 167.284C254.68 169.688 254.896 171.445 254.896 172.554C254.896 173.056 254.844 173.342 254.739 173.412C254.657 173.564 254.418 173.692 254.021 173.798C253.694 173.879 253.414 173.92 253.18 173.92C252.62 173.92 252.147 173.751 251.762 173.412C251.4 172.829 251.178 172.257 251.097 171.696C251.05 171.288 250.974 170.681 250.869 169.875C250.787 169.537 250.595 169.367 250.291 169.367C250.163 169.367 250.023 169.414 249.871 169.507C249.719 169.589 249.649 169.694 249.661 169.823C249.626 170.313 249.562 171.043 249.468 172.011C249.398 172.724 249.229 173.191 248.96 173.412C248.575 173.739 248.091 173.903 247.507 173.903C246.737 173.903 246.176 173.675 245.826 173.22C245.709 173.115 245.651 172.718 245.651 172.029C245.651 170.698 245.814 169.07 246.141 167.144C246.526 164.891 246.964 163.245 247.454 162.206ZM249.03 165.778C249.03 166.058 249.135 166.291 249.346 166.478C249.556 166.653 249.801 166.741 250.081 166.741C250.361 166.741 250.606 166.653 250.816 166.478C251.038 166.291 251.149 166.058 251.149 165.778C251.149 165.498 251.038 165.27 250.816 165.095C250.606 164.908 250.361 164.815 250.081 164.815C249.801 164.815 249.556 164.908 249.346 165.095C249.135 165.27 249.03 165.498 249.03 165.778Z" fill="white"/>
<path d="M296.448 205.221C303.215 197.802 303.204 186.774 296.424 180.589C289.643 174.404 278.661 175.405 271.894 182.823C265.126 190.242 265.137 201.27 271.918 207.455C278.698 213.64 289.681 212.64 296.448 205.221Z" fill="#04151F"/>
<path d="M292.363 200.036C296.599 194.494 296.131 187.019 291.319 183.341C286.506 179.663 279.171 181.174 274.935 186.717C270.699 192.259 271.166 199.734 275.979 203.412C280.791 207.09 288.127 205.579 292.363 200.036Z" fill="#62D717"/>
<path d="M293.745 186.049C293.745 186.049 294.387 191.903 292.367 195.54C290.348 199.176 285.894 201.201 285.894 201.201C285.894 201.201 276.409 206.531 272.049 195.37C272.049 195.37 271.582 198.067 274.086 201.458C276.59 204.844 280.273 205.241 280.273 205.241C280.273 205.241 286.373 206.752 291.392 201.149C296.418 195.546 295.939 190.316 293.75 186.049H293.745Z" fill="#266A00"/>
<path d="M279.311 187.304C279.311 187.012 279.567 186.767 280.081 186.569C280.49 186.405 280.869 186.323 281.219 186.323C281.733 186.323 282.031 186.475 282.112 186.779C282.264 186.977 282.404 187.321 282.532 187.812C282.684 188.372 282.801 188.734 282.883 188.897C283.058 189.248 283.315 189.417 283.653 189.405C284.354 189.37 284.832 188.512 285.089 186.831C285.171 186.504 285.544 186.341 286.21 186.341C286.63 186.341 287.033 186.423 287.418 186.586C287.897 186.796 288.136 187.088 288.136 187.462C287.949 189.376 287.756 190.631 287.558 191.226C287.173 192.382 286.461 193.082 285.422 193.328C285.363 193.456 285.334 193.654 285.334 193.923C285.334 194.32 285.387 194.915 285.492 195.709C285.608 196.503 285.667 197.098 285.667 197.495C285.667 197.787 285.649 198.009 285.614 198.16C285.498 198.697 284.896 198.966 283.811 198.966C283.426 198.966 283.017 198.908 282.585 198.791C282.001 198.639 281.698 198.429 281.674 198.16C281.651 197.775 281.698 197.098 281.815 196.129C281.943 195.09 282.007 194.413 282.007 194.098C282.007 193.759 281.966 193.514 281.885 193.363C280.799 192.966 280.069 192.166 279.696 190.964C279.439 190.146 279.311 188.927 279.311 187.304Z" fill="white"/>
<path d="M169.309 175.911C183.976 175.911 195.866 158.794 195.866 137.679C195.866 116.565 183.976 99.448 169.309 99.448C154.641 99.448 142.751 116.565 142.751 137.679C142.751 158.794 154.641 175.911 169.309 175.911Z" fill="#011619"/>
<path d="M173.341 126.628C175.581 117.884 172.714 109.596 166.937 108.116C161.16 106.636 154.66 112.525 152.42 121.268C150.18 130.012 153.047 138.3 158.825 139.78C164.602 141.26 171.101 135.372 173.341 126.628Z" fill="white"/>
<path d="M98.6831 175.911C113.35 175.911 125.241 158.794 125.241 137.679C125.241 116.565 113.35 99.448 98.6831 99.448C84.0157 99.448 72.1255 116.565 72.1255 137.679C72.1255 158.794 84.0157 175.911 98.6831 175.911Z" fill="#011619"/>
<path d="M102.721 126.631C104.961 117.887 102.094 109.599 96.3166 108.119C90.5395 106.639 84.0403 112.527 81.8002 121.271C79.5601 130.015 82.4274 138.302 88.2044 139.783C93.9815 141.263 100.481 135.374 102.721 126.631Z" fill="white"/>
<path d="M116.486 201.593C116.486 201.593 112.984 201.593 111.816 209.764C110.649 217.936 114.151 231.325 114.151 231.325C114.151 231.325 121.155 252.373 138.666 258.21C156.176 264.047 168.434 252.373 168.434 252.373C168.434 252.373 187.112 235.756 185.944 214.883C185.944 214.883 186.143 201.593 179.623 201.593H116.486Z" fill="#011617"/>
<path d="M173.687 233.695L172.519 230.193C170.768 228.442 166.099 226.107 166.099 226.107C166.099 226.107 155.593 223.189 147.421 227.275C139.249 231.36 137.498 238.948 137.498 238.948C137.498 238.948 134.58 246.536 139.249 249.455C143.919 252.373 146.254 253.54 156.76 251.789C167.266 250.038 173.687 233.695 173.687 233.695Z" fill="#FE7273"/>
<path d="M144.286 234.664C144.286 234.664 140.288 240.758 139.769 249.776C139.769 249.776 135.87 248.993 136.395 242.223C136.92 235.452 142.489 230.403 142.489 230.403L144.292 234.664H144.286Z" fill="#FBF6E3"/>
<path d="M137.498 237.781C137.498 237.781 143.382 234.938 147.526 234.174C150.409 233.643 153.38 233.584 156.252 234.18C159.124 234.775 162.357 236.1 163.916 238.855C167.266 244.785 166.408 245.672 166.408 245.672C166.408 245.672 171.358 242.45 173.692 233.695C173.692 233.695 174.276 231.944 172.537 229.691C172.537 229.691 170.19 225.523 158.516 224.94C146.843 224.356 141.006 231.944 141.006 231.944C141.006 231.944 138.088 234.862 137.504 237.781H137.498Z" fill="#DF1813"/>
<path d="M46.9512 226.767C47.6833 227.5 48.0944 228.503 48.7083 229.321C49.1343 229.889 49.6894 230.565 50.2271 231.026C50.8809 231.587 50.3802 229.674 50.3314 229.53C49.8521 228.111 49.2284 226.581 48.0829 225.569C47.5437 225.092 46.4098 224.084 45.7078 224.876C44.7959 225.906 45.0198 228.065 45.276 229.254C45.5966 230.743 46.2351 232.163 46.981 233.483C47.3182 234.08 47.7557 234.869 48.4328 235.151C50.0124 235.809 49.6356 231.63 49.6315 230.996C49.6122 227.96 48.9489 224.846 46.6981 222.613C45.7508 221.673 45.9269 223.288 45.9684 223.804C46.1568 226.147 46.5704 228.519 47.115 230.803C47.4574 232.239 47.8686 233.787 48.6785 235.047C49.093 235.691 48.8435 234.702 48.8125 234.585C48.1569 232.103 47.779 229.434 46.8172 227.05C46.7837 226.967 46.3848 225.889 46.1769 225.889C46.0919 225.889 46.1482 226.057 46.1471 226.142C46.1431 226.445 46.1382 226.748 46.1471 227.05C46.2069 229.082 46.7511 231.391 47.8 233.156C48.0261 233.536 48.0233 233.287 48.0233 232.992C48.0233 232.094 47.982 231.186 47.8595 230.297C47.7756 229.686 47.3023 227.904 47.3607 228.517C47.528 230.274 48.3299 231.936 48.9614 233.565C49.2962 234.428 49.7449 235.231 50.1229 236.074C50.221 236.293 50.4207 236.969 50.4207 236.729C50.4207 236.45 50.2025 235.931 50.1601 235.679C49.9681 234.539 49.8382 233.38 49.7804 232.225C49.7363 231.342 49.7655 228.691 49.7655 229.574C49.7655 231.547 50.5366 233.53 51.1801 235.359C52.2315 238.347 53.4313 241.233 54.6124 244.167C54.8689 244.804 55.3942 246.76 55.3942 246.073C55.3942 244.273 54.9205 242.47 54.6199 240.705C54.2636 238.614 53.7529 236.823 52.8777 234.898C52.8508 234.839 52.5058 233.977 52.4756 234.064C52.3248 234.498 52.5236 235.214 52.6245 235.612C53.0068 237.121 53.649 238.566 54.2625 239.99C54.8109 241.264 55.4198 242.514 55.7664 243.862C55.8167 244.057 55.4502 242.635 55.3942 242.343C55.2045 241.355 54.9577 240.567 54.7241 239.633" stroke="#C7541B" stroke-width="3" stroke-linecap="round"/>
<path d="M48.8275 234.004C49.7582 234.004 50.3851 235.499 50.8377 236.178C51.2067 236.732 51.0096 237.343 51.3291 237.921C51.5876 238.388 51.9769 238.823 52.1779 239.32C52.4425 239.975 52.5549 240.539 53.0118 241.107C53.7299 242.001 54.4873 243.136 54.9327 244.204C55.3024 245.092 56.0516 245.706 56.4515 246.572C56.7702 247.262 57.1995 248.006 57.6725 248.597C58.3012 249.383 59.0282 250.433 59.385 251.397C59.5392 251.813 59.6264 252.201 59.7423 252.632C59.8508 253.036 60.203 253.248 60.2188 253.675C60.25 254.515 61.058 255.126 61.1644 255.923C61.2695 256.712 61.827 257.413 61.827 258.202C61.827 258.7 62.7861 259.903 62.4077 259.579C61.8239 259.079 61.3517 258.085 61.0155 257.412C60.0115 255.404 59.1462 253.317 58.1714 251.292C57.412 249.715 56.4717 248.181 55.5804 246.676C54.7325 245.244 53.8431 244.074 53.4287 242.462C53.1649 241.436 52.746 240.407 52.714 239.335C52.6881 238.468 52.714 237.597 52.714 236.729C52.714 235.559 53.25 234.948 53.25 233.841C53.25 231.871 53.0368 229.947 52.982 227.974C52.9592 227.152 52.2066 226.528 51.6716 225.993C51.2262 225.548 50.6807 225.454 50.2123 225.1C49.6065 224.642 48.8627 224.39 48.3212 223.849C47.8741 223.402 47.5971 222.807 47.1598 222.345C46.8142 221.98 46.8636 221.684 46.6833 221.243C46.4544 220.684 46.0039 220.262 45.8271 219.672C45.5279 218.675 44.6065 218.179 44.1519 217.327C43.6516 216.389 43.0366 215.477 42.5288 214.513C41.9442 213.402 41.4908 212.236 40.861 211.162C40.3926 210.363 40.0478 209.508 39.5805 208.705C39.1841 208.024 38.4374 207.253 38.2552 206.479C38.1402 205.99 37.9202 205.549 37.7787 205.064C37.587 204.407 37.7244 203.641 37.6968 202.965C37.662 202.112 37.5603 201.209 37.0342 200.508C36.6573 200.005 36.3282 199.521 36.0886 198.937C35.5598 197.648 35.2275 196.245 34.8899 194.894C34.8201 194.615 34.8899 195.47 34.8899 195.758C34.8899 197.242 34.7395 199.026 35.1877 200.471C35.6741 202.038 36.4521 203.501 37.0044 205.042C37.5483 206.56 37.7221 208.143 38.2105 209.673C38.6532 211.06 39.4071 212.293 39.8485 213.664C40.3861 215.333 40.6951 217.063 41.7768 218.496C42.6809 219.693 43.1444 221.164 43.8168 222.509C44.6214 224.118 45.9061 225.696 46.5493 227.304" stroke="#C7541B" stroke-width="10" stroke-linecap="round"/>
<path d="M31.7773 162.309C33.0406 162.151 32.1031 156.183 32.8162 154.858C33.857 152.925 34.4328 150.342 35.6405 148.577C37.3586 146.066 38.8049 143.216 39.8121 140.396C40.6756 137.978 42.3865 136.032 43.5941 133.789C44.2662 132.541 45.139 129.982 46.386 129.358C47.0334 129.034 47.3499 128.287 47.9767 128.108C48.2609 128.027 48.0814 127.597 48.1715 127.394C48.3804 126.924 49.0651 127.092 49.2428 126.599C49.4368 126.06 49.5166 125.124 49.957 124.683C50.4816 124.159 50.2701 124.063 50.6225 123.287C51.0489 122.349 51.0852 122.433 50.1842 122.054C48.6672 121.415 47.2195 125.034 46.5321 125.933C45.6567 127.078 45.6034 128.602 44.9251 129.861C44.0653 131.458 42.9978 133.428 41.7112 134.715C41.4717 134.954 39.6748 136.945 39.1466 136.24C37.9393 134.631 40.6166 130.629 41.1106 129.196C42.3315 125.655 45.0017 123.016 46.7431 119.814C48.7446 116.134 50.9329 112.531 53.0086 108.938C53.9032 107.39 54.545 106.456 54.9239 104.751C55.3208 102.965 55.9468 101.287 56.5958 99.5565C57.1148 98.1726 58.5062 93.3509 57.1639 97.284C56.1739 100.185 55.2546 102.532 54.6967 105.481C54.4627 106.718 54.404 107.986 54.1286 109.198C53.5868 111.582 52.5416 112.995 51.0607 114.912C49.9591 116.337 49.3077 119.588 49.3077 121.405" stroke="#C7541B" stroke-width="10" stroke-linecap="round"/>
<path d="M145.035 36.2272C141.77 36.2272 139.565 38.6832 137.017 40.1649C136.498 40.4666 135.771 40.7279 135.203 40.9525C134.415 41.2637 133.907 41.8569 133.091 42.0383C131.786 42.3282 130.647 43.3817 129.571 44.1265C128.917 44.5792 128.15 44.5374 127.53 45.0334C126.804 45.614 125.918 45.9628 125.227 46.5846C124.436 47.2966 123.127 48.1516 123.127 49.3291C123.127 50.1682 121.672 50.4256 121.361 51.0474C121.011 51.7472 119.514 52.5914 118.831 52.9327C117.663 53.5168 115.908 53.1952 114.643 53.1952C114.274 53.1952 113.698 53.4108 113.342 53.5294C111.97 53.9868 110.354 53.7336 109.071 54.3169C108.1 54.7582 107.347 54.7244 106.374 54.9613C105.012 55.2925 103.648 55.89 102.305 56.3096C100.323 56.9289 98.082 58.0187 96.3743 58.9945C95.875 59.2798 95.5149 59.9185 94.9902 60.0684C94.3561 60.2496 94.0622 60.8245 94.8231 60.1161C95.7313 59.2705 96.3557 58.0398 97.4005 57.3955C98.6698 56.6128 99.9348 55.7258 101.291 55.1045C104.374 53.691 107.629 53.0106 110.753 51.7991C112.758 51.0218 114.357 49.8614 116.254 48.8995C118.113 47.9569 121.333 46.6889 122.268 44.8186" stroke="#C7541B" stroke-width="10" stroke-linecap="round"/>
<path d="M129.618 44.9081C128.261 44.9081 128.035 47.4872 127.41 48.3457C126.924 49.015 125.557 49.0159 124.65 49.249C122.957 49.6843 120.899 50.0834 119.13 49.8261C114.726 49.1854 110.109 50.0434 105.718 49.3117C104.228 49.0634 102.659 49.1988 101.152 49.1988C100.635 49.1988 98.04 49.1978 99.7089 49.9766C100.403 50.3005 101.238 49.982 101.967 50.1146C102.709 50.2496 103.321 50.4546 104.087 50.215C104.354 50.1316 105.595 49.6755 105.43 49.6755C104.891 49.6755 104.217 50.8019 103.849 51.1183C102.928 51.9118 101.861 52.4321 100.876 53.1257C99.126 54.3569 98.6742 56.8781 96.4219 57.3285" stroke="#C7541B" stroke-width="10" stroke-linecap="round"/>
<path d="M196.057 34.0007C196.375 34.0361 196.676 34.2411 196.886 34.4745C197.759 35.4445 199.141 36.1151 200.216 36.8435C201.388 37.6384 202.595 38.2909 203.795 39.0546C205.382 40.0641 206.592 41.2131 208.375 42.0027C209.276 42.4013 210.233 42.5776 211.126 42.9898C211.71 43.2591 212.464 43.7136 213.113 43.7136C214.559 43.7136 216.148 44.7493 217.522 45.1219C219.31 45.6067 221.19 45.469 222.945 45.8589C223.457 45.9728 224.021 46.3928 224.564 46.5564C226.169 47.0406 227.697 47.1247 229.341 47.3988C229.712 47.4606 230.572 47.6618 230.828 47.9779C231.154 48.3784 232.343 48.3464 232.829 48.5043C236.064 49.5546 239.558 49.089 242.779 50.1626C243.365 50.3579 243.817 51.1029 244.411 51.3997C245.12 51.7543 245.776 52.2017 246.464 52.5316C247.013 52.7952 247.318 53.459 247.911 53.7556C248.327 53.9635 248.678 54.0269 248.885 54.4926C249.108 54.9943 250.426 55.5144 250.925 55.8219C251.812 56.3673 252.927 56.9254 253.742 57.5592C254.298 57.9913 255.921 58.4546 254.439 57.6644C252.759 56.7684 251.518 55.3094 249.833 54.4268C247.219 53.0577 244.316 53.035 241.436 52.9528C239.701 52.9032 238.03 52.0524 236.33 52.0052C235.112 51.9713 233.889 52.0052 232.671 52.0052C230.57 52.0052 228.468 52.0052 226.367 52.0052C224.57 52.0052 221.284 51.5976 219.931 50.2942C218.933 49.3335 217.84 48.3333 216.957 47.2672C216.114 46.25 214.832 45.7192 213.956 44.7402C213.614 44.3587 211.842 42.9877 211.929 42.2922C212.043 41.3823 214.876 41.9623 215.417 42.1738C216.602 42.6377 217.362 42.6186 218.246 43.3846C218.456 43.5666 219.48 44.1874 219.273 44.1874C218.782 44.1874 218.55 43.9672 218.154 43.6742C216.711 42.6048 215.348 41.5343 213.693 40.7919C212.641 40.3202 211.08 40.0807 210.179 39.3178C209.337 38.6057 207.428 37.0551 207.428 36.1328" stroke="#C7541B" stroke-width="10" stroke-linecap="round"/>
<path d="M281.943 84.0809C282.014 84.6423 284.94 85.5742 285.397 86.7155C285.959 88.1201 286.698 89.6689 287.462 90.9876C287.63 91.2778 288.272 92.22 288.512 92.4117C288.871 92.6989 288.566 93.3703 288.814 93.7646C289.636 95.0699 289.869 96.1716 290.915 97.2179" stroke="#C7541B" stroke-width="10" stroke-linecap="round"/>
<path d="M290.341 98.0261C290.732 98.1984 290.739 98.5023 290.959 98.8252C291.455 99.5532 291.92 100.548 292.251 101.366C293.367 104.12 293.712 107.207 295.435 109.687C295.919 110.385 296.153 111.28 296.558 112.034C296.851 112.58 297.238 113.116 297.482 113.682C297.809 114.44 298.161 115.052 298.65 115.711C299.413 116.742 299.164 115.311 299.087 114.706C298.743 112.024 298.728 109.278 298.269 106.616C298.043 105.307 297.625 104.234 296.908 103.133C296.577 102.624 296.398 101.991 296.046 101.509C295.238 100.402 295.951 102.857 296.022 103.157C296.494 105.181 297.732 107.002 298.756 108.776C299.856 110.681 300.62 112.693 301.44 114.731C301.922 115.928 302.265 117.17 302.838 118.327C303.323 119.304 303.505 120.37 303.912 121.373C304.163 121.991 304.364 122.65 304.549 123.29C304.825 124.248 305.498 125.012 305.847 125.949C306.366 127.341 306.844 128.79 307.427 130.15C307.919 131.299 308.202 132.534 308.663 133.715C309.044 134.691 309.373 135.648 309.63 136.655C310.022 138.188 310.163 139.748 310.454 141.312C310.598 142.085 310.89 142.855 310.904 143.646C310.915 144.275 310.989 144.696 311.191 145.294C311.4 145.916 311.518 146.441 311.778 147.042C312.182 147.981 312.518 148.978 312.726 149.976C312.937 150.984 313.151 151.788 313.151 152.835C313.151 154.136 313.121 155.443 313.157 156.743C313.203 158.353 313.833 159.783 314.106 161.331C314.339 162.652 314.499 164.04 314.499 165.383C314.499 165.842 314.481 166.291 314.443 166.75C314.412 167.126 314.558 168.075 314.225 168.361C314.118 168.452 314.266 168.62 314.275 168.392C314.321 167.086 314.28 165.764 314.25 164.459C314.19 161.908 314.143 159.357 314.075 156.806C313.974 153.011 314.091 148.656 312.477 145.12C311.051 141.996 309.001 139.299 306.634 136.842C306.102 136.29 305.455 135.73 305.036 135.082C304.509 134.268 304.008 133.417 303.438 132.635C303.032 132.079 302.757 131.41 302.295 130.905C301.166 129.671 300.527 128.316 299.742 126.842C299.269 125.954 298.673 125.162 298.169 124.295C297.835 123.72 297.688 123.072 297.414 122.466C296.56 120.58 295.618 118.753 294.848 116.829C294.684 116.42 294.274 115.838 294.274 115.38C294.274 114.958 294.274 114.535 294.274 114.113C294.274 113.844 294.656 112.585 294.885 113.021C295.717 114.604 296.659 116.129 297.595 117.653C298.314 118.824 299.052 119.973 299.892 121.061C299.98 121.175 300.097 121.397 300.229 121.485C300.553 121.701 300.775 122.102 301.065 122.372C301.78 123.036 302.149 123.897 302.501 124.782C303.033 126.116 303.684 127.424 304.386 128.677C304.976 129.729 304.501 128.735 304.274 128.14" stroke="#C7541B" stroke-width="10" stroke-linecap="round"/>
<path d="M314.494 171.97C314.494 178.356 314.114 184.788 313.76 191.159C313.631 193.475 313.589 195.796 313.589 198.132C313.589 198.74 313.816 199.896 313.408 200.406C313.132 200.751 313.227 201.255 313.227 201.674" stroke="#C7541B" stroke-width="10" stroke-linecap="round"/>
<path d="M310.393 202.277C310.393 205.074 311.084 209.026 309.953 211.724C308.876 214.292 307.497 216.668 307.131 219.409C306.95 220.768 306.09 223.433 305.33 224.572C304.785 225.39 304.144 226.12 303.629 226.973C303.01 227.999 303.014 229.25 302.388 230.216C300.837 232.607 298.506 235.776 298.506 238.661C298.506 240.276 297.379 242.193 297.065 243.845C296.844 245.002 296.599 246.323 295.904 247.307C294.311 249.564 292.095 251.008 290.721 253.451C289.71 255.248 289.941 256.432 288.419 257.954C288.175 258.198 286.281 259.509 287.418 259.555C289.319 259.631 289.66 257.318 289.86 255.772C290.42 251.434 293.321 247.717 293.803 243.384C294.177 240.017 295.565 236.622 295.624 233.258C295.672 230.501 296.072 227.548 296.364 224.772C296.576 222.758 297.41 223.027 298.265 221.55C298.614 220.949 298.518 220.268 299.026 219.729C299.785 218.924 300.584 218.355 301.227 217.407C302.314 215.807 303.572 214.377 304.189 212.524C304.446 211.755 305.209 211.364 305.67 210.723C305.783 210.567 306.722 208.832 306.771 209.002C307.892 212.926 305.553 218.44 304.349 222.17C304.006 223.235 303.552 224.299 303.109 225.332C302.702 226.282 301.857 226.006 301.387 226.593C300.613 227.561 301.767 230.376 299.947 230.376" stroke="#C7541B" stroke-width="10" stroke-linecap="round"/>
<path d="M258.879 287.293C256.529 287.293 253.416 288.67 251.955 290.375C251.01 291.477 249.708 292.804 248.613 293.777C247.43 294.829 246.699 296.224 245.19 296.859C243.593 297.532 241.626 297.349 239.947 298.1C238.331 298.823 236.471 299.446 234.764 299.901C232.484 300.509 229.939 302.146 227.799 303.183C225.098 304.493 222.793 305.268 219.934 305.745C217.515 306.148 215.549 307.718 213.209 308.387C211.765 308.799 210.325 308.241 208.987 309.107C206.268 310.867 203.171 310.672 200.241 311.509C199.55 311.706 198.23 311.655 197.719 312.229C197.429 312.556 200.921 312.264 201.302 312.129C205.754 310.558 210.463 308.691 213.85 305.305C216.1 303.055 218.514 301.388 220.914 299.541C222.101 298.628 223.161 298.951 223.936 297.4C224.32 296.633 225.712 295.782 226.458 295.418C229.283 294.042 232.138 293.777 235.284 293.777C239.744 293.777 244.224 293.417 248.713 293.417C249.016 293.417 250.301 292.987 249.793 292.416C249.424 292 247.327 292.336 246.791 292.336C244.722 292.336 243.723 293.22 241.968 294.097C240.101 295.031 238.522 295.655 236.545 296.379C234.289 297.205 231.937 298.414 229.5 298.46C227.813 298.492 227.222 299.077 225.738 299.501C224.891 299.743 224.318 300.212 223.756 300.962C223.194 301.712 221.535 302.003 220.694 302.423" stroke="#C7541B" stroke-width="10" stroke-linecap="round"/>
<path d="M152.97 313.59C152.33 313.021 151.795 312.931 151.009 312.67C149.092 312.031 147.218 310.721 145.485 309.748C142.033 307.808 138.298 306.041 135.239 303.504C132.942 301.599 130.801 299.158 128.114 297.74C123.407 295.256 117.696 295.911 112.544 295.138C109.693 294.711 107.129 292.78 104.138 292.696C102.42 292.649 99.7716 292.802 98.1345 292.256C96.9657 291.867 94.8494 291.538 93.9318 290.735C93.5144 290.37 96.3611 292.244 96.8537 292.536C98.2704 293.377 99.6826 294.205 101.116 295.018C102.163 295.611 104.374 296.868 105.619 296.999C107.345 297.181 109.07 296.78 110.743 297.299C112.037 297.701 113.824 297.286 114.966 297.92C117.037 299.071 119.251 299.999 121.59 300.462C123.162 300.773 125.489 300.661 126.873 301.542C127.544 301.969 128.542 302.421 129.275 302.703C130.383 303.129 130.888 304.036 131.917 304.584C132.539 304.916 133.144 305.319 133.798 305.585C134.464 305.856 134.086 306.397 134.478 306.946C134.901 307.538 137.793 309.388 136.179 309.247C134.165 309.072 132.181 307.642 130.195 307.106C127.879 306.481 125.392 306.564 123.091 305.845C122.131 305.545 118.922 303.884 121.71 304.644C124.92 305.52 127.443 308.095 130.836 308.187C132.321 308.227 133.677 309.145 135.159 309.247C136.666 309.351 137.626 309.399 139.001 309.908C140.036 310.291 142.256 310.441 142.884 311.068" stroke="#C7541B" stroke-width="10" stroke-linecap="round"/>
</svg>
