<svg width="48" height="48" viewBox="0 0 48 48" fill="none" xmlns="http://www.w3.org/2000/svg">
<path fill-rule="evenodd" clip-rule="evenodd" d="M7.2002 12C7.2002 11.3635 7.45305 10.753 7.90314 10.3029C8.35323 9.85283 8.96368 9.59998 9.6002 9.59998H38.4002C39.0367 9.59998 39.6472 9.85283 40.0973 10.3029C40.5473 10.753 40.8002 11.3635 40.8002 12C40.8002 12.6365 40.5473 13.2469 40.0973 13.697C39.6472 14.1471 39.0367 14.4 38.4002 14.4H9.6002C8.96368 14.4 8.35323 14.1471 7.90314 13.697C7.45305 13.2469 7.2002 12.6365 7.2002 12ZM7.2002 24C7.2002 23.3635 7.45305 22.753 7.90314 22.3029C8.35323 21.8528 8.96368 21.6 9.6002 21.6H38.4002C39.0367 21.6 39.6472 21.8528 40.0973 22.3029C40.5473 22.753 40.8002 23.3635 40.8002 24C40.8002 24.6365 40.5473 25.2469 40.0973 25.697C39.6472 26.1471 39.0367 26.4 38.4002 26.4H9.6002C8.96368 26.4 8.35323 26.1471 7.90314 25.697C7.45305 25.2469 7.2002 24.6365 7.2002 24ZM7.2002 36C7.2002 35.3635 7.45305 34.753 7.90314 34.3029C8.35323 33.8528 8.96368 33.6 9.6002 33.6H38.4002C39.0367 33.6 39.6472 33.8528 40.0973 34.3029C40.5473 34.753 40.8002 35.3635 40.8002 36C40.8002 36.6365 40.5473 37.2469 40.0973 37.697C39.6472 38.1471 39.0367 38.4 38.4002 38.4H9.6002C8.96368 38.4 8.35323 38.1471 7.90314 37.697C7.45305 37.2469 7.2002 36.6365 7.2002 36Z" fill="black"/>
</svg>
