<svg width="200" height="73" viewBox="0 0 200 73" fill="none" xmlns="http://www.w3.org/2000/svg">
<rect width="200.01" height="72.79" rx="10" fill="white"/>
<g filter="url(#filter0_ii_445_263)">
<path d="M19.4488 18.4322C19.0268 18.8806 18.7773 19.5765 18.7773 20.4776V52.6741C18.7773 53.5767 19.0268 54.2711 19.4488 54.7195L19.5561 54.8243L37.5219 36.7884V36.5758V36.3633L19.5561 18.3259L19.4488 18.4322Z" fill="url(#paint0_linear_445_263)"/>
<path d="M43.5091 42.802L37.5215 36.7881V36.5756V36.363L43.5106 30.3506L43.6454 30.4277L50.741 34.4749C52.7668 35.6308 52.7668 37.5219 50.741 38.6792L43.6454 42.7263L43.5091 42.802Z" fill="url(#paint1_linear_445_263)"/>
<g filter="url(#filter1_i_445_263)">
<path d="M43.6458 42.7249L37.5204 36.5756L19.4487 54.7192C20.1158 55.4296 21.2194 55.517 22.4621 54.8095L43.6458 42.7249Z" fill="url(#paint2_linear_445_263)"/>
</g>
<path d="M43.6458 30.4265L22.4621 18.3434C21.2194 17.6344 20.1158 17.7232 19.4487 18.4336L37.5218 36.5773L43.6458 30.4265Z" fill="url(#paint3_linear_445_263)"/>
</g>
<path d="M97.8265 38.3373C94.6051 38.3373 91.9796 40.7863 91.9796 44.1593C91.9796 47.5118 94.6051 49.9813 97.8265 49.9813C101.049 49.9813 103.675 47.5118 103.675 44.1593C103.673 40.7863 101.048 38.3373 97.8265 38.3373ZM97.8265 47.6898C96.061 47.6898 94.5394 46.2346 94.5394 44.1607C94.5394 42.0649 96.0624 40.6316 97.8265 40.6316C99.5919 40.6316 101.114 42.0649 101.114 44.1607C101.114 46.2332 99.5919 47.6898 97.8265 47.6898ZM85.0699 38.3373C81.8486 38.3373 79.2231 40.7863 79.2231 44.1593C79.2231 47.5118 81.8486 49.9813 85.0699 49.9813C88.2926 49.9813 90.9182 47.5118 90.9182 44.1593C90.9182 40.7863 88.2926 38.3373 85.0699 38.3373ZM85.0699 47.6898C83.3045 47.6898 81.7829 46.2346 81.7829 44.1607C81.7829 42.0649 83.3059 40.6316 85.0699 40.6316C86.8353 40.6316 88.357 42.0649 88.357 44.1607C88.3583 46.2332 86.8353 47.6898 85.0699 47.6898ZM69.8974 40.1251V42.5947H75.8114C75.6347 43.9841 75.1717 44.9985 74.465 45.7035C73.6049 46.5631 72.2586 47.5118 69.8974 47.5118C66.257 47.5118 63.4109 44.5782 63.4109 40.9396C63.4109 37.3011 66.257 34.3675 69.8974 34.3675C71.8614 34.3675 73.2954 35.1395 74.3541 36.132L76.0976 34.3894C74.6184 32.978 72.6558 31.898 69.8974 31.898C64.9106 31.898 60.7183 35.9554 60.7183 40.9396C60.7183 45.9239 64.9106 49.9813 69.8974 49.9813C72.5887 49.9813 74.6198 49.0984 76.2072 47.4447C77.8398 45.813 78.3479 43.5187 78.3479 41.6665C78.3479 41.0943 78.304 40.5646 78.215 40.1238L69.8974 40.1251ZM131.952 42.043C131.467 40.7425 129.988 38.3373 126.965 38.3373C123.964 38.3373 121.47 40.6973 121.47 44.1593C121.47 47.4228 123.942 49.9813 127.251 49.9813C129.921 49.9813 131.465 48.3496 132.106 47.4009L130.12 46.0772C129.459 47.0477 128.554 47.687 127.251 47.687C125.95 47.687 125.023 47.0916 124.427 45.9225L132.216 42.7028L131.952 42.043ZM124.008 43.9841C123.942 41.7336 125.751 40.5878 127.054 40.5878C128.069 40.5878 128.929 41.0957 129.217 41.8226L124.008 43.9841ZM117.676 49.6295H120.235V32.5167H117.676V49.6295ZM113.482 39.6392H113.395C112.821 38.9547 111.717 38.3373 110.328 38.3373C107.415 38.3373 104.746 40.8958 104.746 44.1826C104.746 47.4461 107.415 49.9827 110.328 49.9827C111.718 49.9827 112.821 49.3653 113.395 48.6603H113.482V49.4981C113.482 51.7253 112.291 52.9163 110.372 52.9163C108.805 52.9163 107.834 51.7924 107.437 50.8438L105.209 51.7705C105.848 53.3133 107.547 55.2106 110.372 55.2106C113.373 55.2106 115.911 53.4461 115.911 49.1449V38.6919H113.484L113.482 39.6392ZM110.549 47.6898C108.783 47.6898 107.306 46.2113 107.306 44.1826C107.306 42.1306 108.783 40.6316 110.549 40.6316C112.291 40.6316 113.659 42.1306 113.659 44.1826C113.659 46.2113 112.291 47.6898 110.549 47.6898ZM143.941 32.5167H137.818V49.6295H140.372V43.1463H143.94C146.772 43.1463 149.558 41.0971 149.558 37.8322C149.558 34.5673 146.774 32.5167 143.941 32.5167ZM144.007 40.7644H140.372V34.8986H144.007C145.918 34.8986 147.002 36.4797 147.002 37.8322C147.002 39.1573 145.918 40.7644 144.007 40.7644ZM159.801 38.3072C157.951 38.3072 156.035 39.1217 155.242 40.9273L157.51 41.8732C157.995 40.9273 158.899 40.6179 159.845 40.6179C161.167 40.6179 162.51 41.4106 162.532 42.8192V42.9958C162.069 42.7316 161.078 42.3359 159.867 42.3359C157.422 42.3359 154.932 43.6788 154.932 46.1881C154.932 48.4783 156.937 49.9526 159.184 49.9526C160.901 49.9526 161.849 49.1819 162.443 48.2784H162.531V49.5994H164.999V43.0382C165 40.0019 162.73 38.3072 159.801 38.3072ZM159.492 47.6857C158.656 47.6857 157.488 47.2668 157.488 46.2319C157.488 44.9109 158.943 44.4044 160.198 44.4044C161.32 44.4044 161.85 44.6467 162.532 44.9766C162.334 46.5632 160.968 47.6857 159.492 47.6857ZM173.986 38.6809L171.057 46.1005H170.969L167.929 38.6809H165.176L169.735 49.0505L167.136 54.8191H169.801L176.828 38.6809H173.986ZM150.969 49.6295H153.523V32.5167H150.969V49.6295Z" fill="#090909"/>
<path d="M69.5784 22.3945C69.5784 23.5209 69.2391 24.4174 68.559 25.0867C67.7872 25.8825 66.7801 26.2803 65.5431 26.2803C64.3581 26.2803 63.3496 25.8771 62.5217 25.0706C61.6925 24.2628 61.2778 23.2628 61.2778 22.0692C61.2778 20.8743 61.6925 19.8743 62.5217 19.0678C63.3496 18.26 64.3581 17.8568 65.5431 17.8568C66.1315 17.8568 66.6939 17.9697 67.2276 18.1941C67.7626 18.4199 68.1909 18.7197 68.5111 19.0947L67.79 19.8044C67.2467 19.1659 66.4982 18.8474 65.5417 18.8474C64.6769 18.8474 63.9298 19.1458 63.2989 19.7425C62.6681 20.3393 62.3534 21.1149 62.3534 22.0679C62.3534 23.0208 62.6681 23.7964 63.2989 24.3932C63.9298 24.99 64.6769 25.2884 65.5417 25.2884C66.4585 25.2884 67.2235 24.9886 67.8351 24.3878C68.232 23.9967 68.4618 23.4523 68.5234 22.7547H65.5417V21.7856H69.5196C69.5607 21.9966 69.5784 22.1996 69.5784 22.3945Z" fill="#090909"/>
<path d="M75.8868 19.0262H72.1484V21.5827H75.5201V22.5518H72.1484V25.1083H75.8868V26.1003H71.0934V18.0356H75.8868V19.0262Z" fill="#090909"/>
<path d="M80.3353 26.1003H79.2803V19.0262H76.9868V18.0356H82.6287V19.0262H80.3353V26.1003Z" fill="#090909"/>
<path d="M86.7105 26.1003V18.0356H87.7655V26.1003H86.7105Z" fill="#090909"/>
<path d="M92.4443 26.1003H91.3892V19.0262H89.0958V18.0356H94.7377V19.0262H92.4443V26.1003Z" fill="#090909"/>
<path d="M105.418 25.0586C104.61 25.8731 103.607 26.2804 102.407 26.2804C101.207 26.2804 100.204 25.8731 99.3981 25.0586C98.5907 24.244 98.1884 23.2467 98.1884 22.0679C98.1884 20.8891 98.5907 19.8918 99.3981 19.0773C100.204 18.2627 101.207 17.8541 102.407 17.8541C103.6 17.8541 104.602 18.2641 105.412 19.0826C106.222 19.9012 106.627 20.8959 106.627 22.0679C106.627 23.2467 106.224 24.244 105.418 25.0586ZM100.177 24.3825C100.784 24.9873 101.527 25.2884 102.407 25.2884C103.287 25.2884 104.031 24.986 104.638 24.3825C105.245 23.7776 105.55 23.0061 105.55 22.0679C105.55 21.1297 105.245 20.3582 104.638 19.7534C104.031 19.1485 103.287 18.8474 102.407 18.8474C101.527 18.8474 100.784 19.1499 100.177 19.7534C99.5705 20.3582 99.2653 21.1297 99.2653 22.0679C99.2653 23.0061 99.5705 23.7776 100.177 24.3825Z" fill="#090909"/>
<path d="M108.108 26.1003V18.0356H109.391L113.382 24.3086H113.427L113.382 22.7548V18.0356H114.437V26.1003H113.335L109.16 19.5222H109.115L109.16 21.076V26.1003H108.108Z" fill="#090909"/>
<path d="M69.5784 22.3945C69.5784 23.5209 69.2391 24.4174 68.559 25.0867C67.7872 25.8825 66.7801 26.2803 65.5431 26.2803C64.3581 26.2803 63.3496 25.8771 62.5217 25.0706C61.6925 24.2628 61.2778 23.2628 61.2778 22.0692C61.2778 20.8743 61.6925 19.8743 62.5217 19.0678C63.3496 18.26 64.3581 17.8568 65.5431 17.8568C66.1315 17.8568 66.6939 17.9697 67.2276 18.1941C67.7626 18.4199 68.1909 18.7197 68.5111 19.0947L67.79 19.8044C67.2467 19.1659 66.4982 18.8474 65.5417 18.8474C64.6769 18.8474 63.9298 19.1458 63.2989 19.7425C62.6681 20.3393 62.3534 21.1149 62.3534 22.0679C62.3534 23.0208 62.6681 23.7964 63.2989 24.3932C63.9298 24.99 64.6769 25.2884 65.5417 25.2884C66.4585 25.2884 67.2235 24.9886 67.8351 24.3878C68.232 23.9967 68.4618 23.4523 68.5234 22.7547H65.5417V21.7856H69.5196C69.5607 21.9966 69.5784 22.1996 69.5784 22.3945Z" stroke="white" stroke-width="0.204511" stroke-miterlimit="10"/>
<path d="M75.8868 19.0262H72.1484V21.5827H75.5201V22.5518H72.1484V25.1083H75.8868V26.1003H71.0934V18.0356H75.8868V19.0262Z" stroke="white" stroke-width="0.204511" stroke-miterlimit="10"/>
<path d="M80.3353 26.1003H79.2803V19.0262H76.9868V18.0356H82.6287V19.0262H80.3353V26.1003Z" stroke="white" stroke-width="0.204511" stroke-miterlimit="10"/>
<path d="M86.7105 26.1003V18.0356H87.7655V26.1003H86.7105Z" stroke="white" stroke-width="0.204511" stroke-miterlimit="10"/>
<path d="M92.4443 26.1003H91.3892V19.0262H89.0958V18.0356H94.7377V19.0262H92.4443V26.1003Z" stroke="white" stroke-width="0.204511" stroke-miterlimit="10"/>
<path d="M105.418 25.0586C104.61 25.8731 103.607 26.2804 102.407 26.2804C101.207 26.2804 100.204 25.8731 99.3981 25.0586C98.5907 24.244 98.1884 23.2467 98.1884 22.0679C98.1884 20.8891 98.5907 19.8918 99.3981 19.0773C100.204 18.2627 101.207 17.8541 102.407 17.8541C103.6 17.8541 104.602 18.2641 105.412 19.0826C106.222 19.9012 106.627 20.8959 106.627 22.0679C106.627 23.2467 106.224 24.244 105.418 25.0586ZM100.177 24.3825C100.784 24.9873 101.527 25.2884 102.407 25.2884C103.287 25.2884 104.031 24.986 104.638 24.3825C105.245 23.7776 105.55 23.0061 105.55 22.0679C105.55 21.1297 105.245 20.3582 104.638 19.7534C104.031 19.1485 103.287 18.8474 102.407 18.8474C101.527 18.8474 100.784 19.1499 100.177 19.7534C99.5705 20.3582 99.2653 21.1297 99.2653 22.0679C99.2653 23.0061 99.5705 23.7776 100.177 24.3825Z" stroke="white" stroke-width="0.204511" stroke-miterlimit="10"/>
<path d="M108.108 26.1003V18.0356H109.391L113.382 24.3086H113.427L113.382 22.7548V18.0356H114.437V26.1003H113.335L109.16 19.5222H109.115L109.16 21.076V26.1003H108.108Z" stroke="white" stroke-width="0.204511" stroke-miterlimit="10"/>
<defs>
<filter id="filter0_ii_445_263" x="18.7773" y="17.8541" width="33.4829" height="37.444" filterUnits="userSpaceOnUse" color-interpolation-filters="sRGB">
<feFlood flood-opacity="0" result="BackgroundImageFix"/>
<feBlend mode="normal" in="SourceGraphic" in2="BackgroundImageFix" result="shape"/>
<feColorMatrix in="SourceAlpha" type="matrix" values="0 0 0 0 0 0 0 0 0 0 0 0 0 0 0 0 0 0 127 0" result="hardAlpha"/>
<feOffset dy="-0.795"/>
<feComposite in2="hardAlpha" operator="arithmetic" k2="-1" k3="1"/>
<feColorMatrix type="matrix" values="0 0 0 0 0 0 0 0 0 0 0 0 0 0 0 0 0 0 0.12 0"/>
<feBlend mode="normal" in2="shape" result="effect1_innerShadow_445_263"/>
<feColorMatrix in="SourceAlpha" type="matrix" values="0 0 0 0 0 0 0 0 0 0 0 0 0 0 0 0 0 0 127 0" result="hardAlpha"/>
<feOffset dy="0.795"/>
<feComposite in2="hardAlpha" operator="arithmetic" k2="-1" k3="1"/>
<feColorMatrix type="matrix" values="0 0 0 0 1 0 0 0 0 1 0 0 0 0 1 0 0 0 0.25 0"/>
<feBlend mode="normal" in2="effect1_innerShadow_445_263" result="effect2_innerShadow_445_263"/>
</filter>
<filter id="filter1_i_445_263" x="19.4487" y="36.5756" width="24.1973" height="18.7225" filterUnits="userSpaceOnUse" color-interpolation-filters="sRGB">
<feFlood flood-opacity="0" result="BackgroundImageFix"/>
<feBlend mode="normal" in="SourceGraphic" in2="BackgroundImageFix" result="shape"/>
<feColorMatrix in="SourceAlpha" type="matrix" values="0 0 0 0 0 0 0 0 0 0 0 0 0 0 0 0 0 0 127 0" result="hardAlpha"/>
<feOffset dy="-0.795"/>
<feComposite in2="hardAlpha" operator="arithmetic" k2="-1" k3="1"/>
<feColorMatrix type="matrix" values="0 0 0 0 0 0 0 0 0 0 0 0 0 0 0 0 0 0 0.08 0"/>
<feBlend mode="normal" in2="shape" result="effect1_innerShadow_445_263"/>
</filter>
<linearGradient id="paint0_linear_445_263" x1="35.9293" y1="20.1369" x2="11.4983" y2="44.473" gradientUnits="userSpaceOnUse">
<stop stop-color="#00A0FF"/>
<stop offset="0.0066" stop-color="#00A1FF"/>
<stop offset="0.2601" stop-color="#00BEFF"/>
<stop offset="0.5122" stop-color="#00D2FF"/>
<stop offset="0.7604" stop-color="#00DFFF"/>
<stop offset="1" stop-color="#00E3FF"/>
</linearGradient>
<linearGradient id="paint1_linear_445_263" x1="53.378" y1="36.5756" x2="18.2906" y2="36.5756" gradientUnits="userSpaceOnUse">
<stop stop-color="#FFE000"/>
<stop offset="0.4087" stop-color="#FFBD00"/>
<stop offset="0.7754" stop-color="#FFA500"/>
<stop offset="1" stop-color="#FF9C00"/>
</linearGradient>
<linearGradient id="paint2_linear_445_263" x1="40.3193" y1="39.915" x2="7.18772" y2="72.9178" gradientUnits="userSpaceOnUse">
<stop stop-color="#FF3A44"/>
<stop offset="1" stop-color="#C31162"/>
</linearGradient>
<linearGradient id="paint3_linear_445_263" x1="14.8973" y1="7.71575" x2="29.6915" y2="22.4524" gradientUnits="userSpaceOnUse">
<stop stop-color="#32A071"/>
<stop offset="0.0685" stop-color="#2DA771"/>
<stop offset="0.4762" stop-color="#15CF74"/>
<stop offset="0.8009" stop-color="#06E775"/>
<stop offset="1" stop-color="#00F076"/>
</linearGradient>
</defs>
</svg>
